<?xml version="1.0" standalone="no"?>
<!DOCTYPE svg PUBLIC "-//W3C//DTD SVG 20010904//EN"
 "http://www.w3.org/TR/2001/REC-SVG-20010904/DTD/svg10.dtd">
<svg version="1.0" xmlns="http://www.w3.org/2000/svg"
 width="959.000000pt" height="638.000000pt" viewBox="0 0 959.000000 638.000000"
 preserveAspectRatio="xMidYMid meet">

<g transform="translate(0.000000,638.000000) scale(0.100000,-0.100000)"
fill="#000000" stroke="none">
<path d="M0 3190 l0 -3190 4795 0 4795 0 0 3190 0 3190 -4795 0 -4795 0 0
-3190z m2666 3153 c0 -10 6 -18 14 -18 8 0 14 8 14 18 -1 9 2 17 7 17 5 0 9
-16 9 -35 0 -37 -22 -57 -42 -37 -7 7 -5 10 7 9 10 -1 20 4 22 11 3 7 -1 10
-10 7 -17 -7 -41 20 -32 35 9 15 13 12 11 -7z m145 -47 c-14 -17 -41 -22 -41
-7 0 5 7 8 16 7 25 -2 29 24 5 31 -12 3 -21 12 -21 20 0 9 9 6 27 -11 22 -21
24 -27 14 -40z m71 34 c3 -16 1 -35 -4 -42 -6 -10 -8 -10 -8 0 0 6 -9 12 -21
12 -20 0 -20 1 -2 30 22 38 30 38 35 0z m4307 16 c8 -10 10 -772 9 -2891 -3
-2728 -4 -2878 -20 -2889 -13 -8 -23 -8 -35 0 -17 11 -18 161 -21 2889 -1
2119 1 2881 9 2891 6 8 19 14 29 14 10 0 23 -6 29 -14z m-4451 -538 c7 -7 12
-16 12 -22 0 -6 -5 -5 -12 2 -33 33 -78 -1 -63 -48 7 -22 44 -27 63 -8 7 7 12
8 12 2 0 -17 -23 -34 -46 -34 -24 0 -54 34 -54 60 0 45 59 77 88 48z m52 -48
c0 -33 -4 -60 -10 -60 -6 0 -10 27 -10 60 0 33 4 60 10 60 6 0 10 -27 10 -60z
m40 50 c0 -5 -4 -10 -10 -10 -5 0 -10 5 -10 10 0 6 5 10 10 10 6 0 10 -4 10
-10z m130 -22 c0 -29 1 -30 18 -15 26 23 39 21 18 -2 -17 -18 -17 -21 -1 -45
21 -32 2 -35 -19 -4 l-16 22 0 -22 c0 -12 -4 -22 -10 -22 -6 0 -10 27 -10 60
0 33 4 60 10 60 6 0 10 -14 10 -32z m420 17 c0 -9 9 -15 24 -15 13 0 27 -7 30
-16 10 -25 7 -74 -4 -74 -5 0 -10 16 -10 35 0 28 -4 35 -20 35 -16 0 -20 -7
-20 -35 0 -19 -4 -35 -10 -35 -6 0 -10 27 -10 60 0 33 4 60 10 60 6 0 10 -7
10 -15z m290 -45 c0 -59 0 -60 -28 -60 -33 0 -52 16 -52 45 0 27 18 45 47 45
14 0 23 6 23 15 0 8 2 15 5 15 3 0 5 -27 5 -60z m220 50 c0 -5 -4 -10 -10 -10
-5 0 -10 5 -10 10 0 6 5 10 10 10 6 0 10 -4 10 -10z m250 -51 l0 -60 -37 3
c-37 3 -38 4 -38 43 0 36 3 40 28 43 15 2 27 9 27 18 0 8 5 14 10 14 6 0 10
-27 10 -61z m330 51 c0 -5 -2 -10 -4 -10 -3 0 -8 5 -11 10 -3 6 -1 10 4 10 6
0 11 -4 11 -10z m280 -5 c0 -8 8 -15 18 -15 24 0 42 -19 42 -45 0 -29 -19 -45
-52 -45 -28 0 -28 1 -28 60 0 33 4 60 10 60 6 0 10 -7 10 -15z m190 -45 c0
-33 -4 -60 -10 -60 -6 0 -10 27 -10 60 0 33 4 60 10 60 6 0 10 -27 10 -60z
m-1604 35 c9 -8 11 -15 5 -15 -15 0 -14 -53 2 -69 10 -10 8 -12 -8 -9 -15 2
-21 14 -25 44 -9 62 -1 76 26 49z m1090 0 c9 -8 11 -15 5 -15 -15 0 -14 -53 1
-68 9 -9 8 -12 -5 -12 -16 0 -25 20 -28 65 -3 48 3 55 27 30z m-1596 -50 c0
-25 -4 -45 -10 -45 -5 0 -10 20 -10 45 0 25 5 45 10 45 6 0 10 -20 10 -45z
m85 34 c10 -15 -4 -24 -17 -11 -13 13 -38 -2 -38 -22 0 -22 22 -37 37 -24 15
12 28 5 18 -11 -3 -6 -17 -11 -31 -11 -32 0 -51 38 -35 69 12 22 55 29 66 10z
m226 -10 c16 -31 -3 -69 -36 -69 -17 0 -29 8 -36 24 -15 32 4 66 36 66 15 0
29 -9 36 -21z m97 -26 c2 -26 -1 -43 -7 -43 -6 0 -11 15 -11 34 0 60 -34 53
-43 -9 -3 -22 -4 -18 -6 16 -1 46 -1 46 32 45 30 -1 32 -3 35 -43z m293 20 c8
-21 5 -23 -28 -23 -30 0 -34 -2 -23 -15 9 -11 17 -12 32 -4 16 9 19 8 16 -3
-3 -7 -17 -14 -31 -16 -35 -4 -55 33 -37 67 15 29 60 25 71 -6z m233 11 c11
-28 7 -34 -24 -34 -16 0 -30 -4 -30 -10 0 -11 13 -14 44 -10 11 1 15 -3 12 -9
-9 -15 -49 -14 -64 1 -28 28 -7 78 34 78 12 0 25 -7 28 -16z m82 4 c5 -8 2 -9
-9 -5 -9 3 -19 2 -23 -4 -3 -6 3 -13 14 -16 26 -6 35 -28 17 -43 -18 -15 -47
-9 -53 10 -5 13 -3 13 12 1 12 -10 20 -11 28 -3 8 8 4 14 -15 21 -26 10 -35
30 -20 44 10 11 41 8 49 -5z m44 -33 c0 -25 -4 -45 -10 -45 -5 0 -10 20 -10
45 0 25 5 45 10 45 6 0 10 -20 10 -45z m58 34 c-12 -6 -18 -22 -18 -44 0 -19
-4 -35 -10 -35 -5 0 -10 20 -10 45 0 42 2 45 28 45 23 -1 24 -2 10 -11z m93
-16 c8 -21 5 -23 -28 -23 -30 0 -34 -2 -23 -15 9 -11 17 -12 32 -4 16 9 19 8
16 -3 -3 -7 -17 -14 -31 -16 -35 -4 -55 33 -37 67 15 29 60 25 71 -6z m238 5
c12 -31 -2 -62 -28 -66 -28 -4 -51 14 -51 42 0 47 63 66 79 24z m89 10 c27
-27 7 -78 -30 -78 -10 0 -18 -7 -18 -15 0 -8 -4 -15 -10 -15 -6 0 -10 27 -10
60 0 59 0 60 28 60 15 0 33 -5 40 -12z m99 -55 c-2 -16 -4 -5 -4 22 0 28 2 40
4 28 2 -13 2 -35 0 -50z m93 53 c28 -35 -11 -93 -47 -70 -36 22 -23 84 17 84
10 0 23 -7 30 -14z m98 -33 c2 -24 -1 -43 -7 -43 -5 0 -11 17 -13 38 -2 20 -7
37 -13 37 -5 0 -11 -17 -13 -37 -5 -54 -22 -47 -22 8 0 45 0 45 33 42 30 -3
32 -6 35 -45z m243 20 c8 -21 5 -23 -28 -23 -30 0 -34 -2 -23 -15 9 -11 17
-12 32 -4 16 9 19 8 16 -3 -3 -7 -17 -14 -31 -16 -35 -4 -55 33 -37 67 15 29
60 25 71 -6z m130 6 c16 -31 -3 -69 -36 -69 -17 0 -29 8 -36 24 -15 32 4 66
36 66 15 0 29 -9 36 -21z m39 -10 c0 -11 5 -17 10 -14 6 3 10 15 10 26 0 10 7
19 15 19 8 0 15 -9 15 -19 0 -28 18 -36 22 -9 2 12 8 23 15 25 8 3 8 -7 -1
-38 -16 -54 -32 -60 -42 -17 l-7 33 -10 -32 c-12 -41 -22 -42 -36 -2 -14 40
-14 62 -1 54 6 -3 10 -15 10 -26z m130 21 c0 -5 -4 -10 -10 -10 -5 0 -10 5
-10 10 0 6 5 10 10 10 6 0 10 -4 10 -10z m0 -70 c0 -5 -4 -10 -10 -10 -5 0
-10 5 -10 10 0 6 5 10 10 10 6 0 10 -4 10 -10z m-2440 -1220 c0 -47 2 -50 25
-50 14 0 25 -4 25 -10 0 -5 -18 -10 -40 -10 l-40 0 0 60 c0 47 3 60 15 60 11
0 15 -12 15 -50z m470 35 c0 -9 9 -15 25 -15 16 0 25 -6 25 -15 0 -20 16 -19
24 1 4 10 16 14 38 12 31 -3 33 -5 33 -43 0 -37 -2 -40 -30 -43 -19 -3 -33 2
-42 14 -12 16 -13 16 -13 1 0 -9 -7 -17 -15 -17 -10 0 -15 11 -15 35 0 24 -5
35 -15 35 -10 0 -15 -11 -15 -35 0 -19 -4 -35 -10 -35 -6 0 -10 27 -10 60 0
33 4 60 10 60 6 0 10 -7 10 -15z m420 0 c0 -9 9 -15 24 -15 16 0 26 -7 30 -22
10 -40 7 -68 -9 -68 -10 0 -15 11 -15 35 0 24 -5 35 -15 35 -10 0 -15 -11 -15
-35 0 -19 -4 -35 -10 -35 -6 0 -10 27 -10 60 0 33 4 60 10 60 6 0 10 -7 10
-15z m360 1 c0 -9 12 -16 28 -18 24 -3 27 -7 30 -45 4 -50 -15 -59 -20 -10 -2
20 -8 32 -18 32 -10 0 -16 -12 -18 -32 -6 -57 -22 -36 -22 27 0 33 4 60 10 60
6 0 10 -6 10 -14z m190 -46 c0 -33 -4 -60 -10 -60 -6 0 -10 27 -10 60 0 33 4
60 10 60 6 0 10 -27 10 -60z m212 17 l28 -42 0 43 c0 23 5 42 10 42 6 0 10
-27 10 -60 0 -72 -16 -79 -52 -22 l-23 37 -3 -37 c-5 -61 -22 -44 -22 22 0 73
14 77 52 17z m178 28 c0 -9 9 -15 25 -15 16 0 29 -9 37 -24 12 -23 15 -23 43
-10 l30 14 -28 -5 c-21 -4 -28 -2 -25 7 3 7 18 13 34 13 27 0 29 -3 32 -42 3
-43 3 -43 -31 -43 -24 0 -37 6 -42 18 -6 16 -7 16 -16 0 -7 -12 -22 -18 -44
-18 l-35 0 0 60 c0 33 4 60 10 60 6 0 10 -7 10 -15z m290 -12 c0 -21 3 -24 12
-15 7 7 19 12 27 12 11 0 10 -4 -4 -20 -17 -19 -17 -21 -2 -38 10 -10 17 -22
17 -25 0 -14 -23 -7 -36 11 -13 16 -13 16 -14 0 0 -10 -7 -18 -15 -18 -12 0
-15 13 -15 60 0 47 3 60 15 60 10 0 15 -10 15 -27z m130 -33 c0 -47 -3 -60
-15 -60 -12 0 -15 13 -15 60 0 47 3 60 15 60 12 0 15 -13 15 -60z m1290 33 c0
-21 3 -24 12 -15 7 7 19 12 27 12 11 0 10 -4 -4 -20 -17 -19 -17 -21 -2 -38
10 -10 17 -22 17 -25 0 -14 -23 -7 -36 11 -13 16 -13 16 -14 0 0 -10 -7 -18
-15 -18 -11 0 -15 11 -15 40 0 31 -3 38 -15 34 -9 -4 -15 -19 -15 -40 0 -24
-5 -34 -15 -34 -11 0 -15 12 -15 45 0 43 1 45 30 45 20 0 30 5 30 15 0 8 7 15
15 15 10 0 15 -10 15 -27z m-2702 0 c12 -12 13 -18 4 -21 -14 -4 -16 -38 -2
-47 17 -10 11 -27 -7 -23 -25 5 -40 108 -16 108 2 0 12 -8 21 -17z m-698 -22
c15 -30 -4 -71 -33 -71 -29 0 -47 17 -47 45 0 44 60 63 80 26z m88 -29 l3 -43
-38 3 c-51 4 -57 32 -11 54 29 13 30 14 6 9 -21 -4 -28 -2 -28 10 0 12 8 15
33 13 30 -3 32 -6 35 -46z m72 38 c0 -5 -7 -10 -15 -10 -10 0 -15 -11 -15 -35
0 -19 -4 -35 -10 -35 -5 0 -10 20 -10 45 0 41 2 45 25 45 14 0 25 -4 25 -10z
m78 -37 c2 -26 -1 -43 -7 -43 -6 0 -11 16 -11 35 0 24 -5 35 -15 35 -10 0 -15
-11 -15 -35 0 -19 -4 -35 -10 -35 -5 0 -10 21 -10 46 0 45 0 45 33 42 30 -3
32 -6 35 -45z m277 25 l8 -23 4 23 c6 31 29 28 41 -5 9 -25 11 -25 11 -6 1 21
18 40 27 30 10 -9 -19 -87 -31 -87 -7 0 -16 10 -19 23 l-7 22 -9 -22 c-14 -34
-26 -28 -43 22 -13 36 -13 45 -3 45 8 0 17 -10 21 -22z m380 -23 c0 -39 -1
-40 -35 -40 -31 0 -35 3 -38 28 -5 46 4 59 40 55 31 -3 33 -5 33 -43z m90 23
l8 -23 4 23 c6 31 29 28 41 -5 9 -25 11 -25 11 -6 1 21 18 40 27 30 10 -9 -19
-87 -31 -87 -7 0 -16 10 -19 23 l-7 22 -9 -22 c-14 -34 -26 -28 -43 22 -13 36
-13 45 -3 45 8 0 17 -10 21 -22z m276 1 c16 -30 -3 -69 -34 -69 -29 0 -47 17
-47 45 0 45 60 63 81 24z m128 7 c7 -8 11 -27 9 -43 -2 -23 -8 -29 -35 -31
-27 -3 -35 1 -44 21 -22 49 37 93 70 53z m211 -21 c0 -24 5 -35 15 -35 10 0
15 11 15 35 0 19 5 35 10 35 6 0 10 -21 10 -46 0 -45 0 -45 -32 -42 -31 3 -33
6 -36 46 -2 25 1 42 7 42 6 0 11 -16 11 -35z m334 19 c12 -31 7 -74 -9 -74
-10 0 -15 11 -15 35 0 24 -5 35 -15 35 -10 0 -15 -11 -15 -35 0 -19 -4 -35
-10 -35 -5 0 -10 20 -10 45 0 44 0 45 34 45 22 0 36 -6 40 -16z m268 -8 c12
-23 15 -23 43 -10 l30 14 -28 -5 c-21 -4 -28 -2 -25 7 3 7 18 13 34 13 27 0
29 -3 32 -42 3 -43 3 -43 -31 -43 -24 0 -37 6 -42 18 -6 16 -7 16 -16 0 -20
-36 -79 -16 -79 27 0 47 60 63 82 21z m182 8 c12 -31 7 -74 -9 -74 -10 0 -15
11 -15 35 0 24 -5 35 -15 35 -10 0 -15 -11 -15 -35 0 -19 -4 -35 -10 -35 -5 0
-10 20 -10 45 0 44 0 45 34 45 22 0 36 -6 40 -16z m141 -29 c0 -36 -3 -40 -27
-43 -16 -2 -28 -9 -28 -18 0 -8 -4 -14 -10 -14 -6 0 -10 27 -10 61 l0 60 38
-3 c36 -3 37 -4 37 -43z m152 24 c5 -19 6 -19 20 1 16 23 63 25 71 2 3 -9 -3
-11 -22 -6 -23 5 -26 3 -26 -21 0 -24 3 -26 26 -21 19 5 25 3 22 -6 -8 -23
-55 -21 -71 2 l-14 21 -6 -21 c-4 -17 -12 -21 -39 -18 -30 3 -33 6 -36 40 -4
49 -32 42 -32 -8 0 -24 -5 -34 -15 -34 -11 0 -15 12 -15 44 l0 45 66 0 c58 0
67 -3 71 -20z m182 7 c6 -7 8 -27 5 -45 -5 -25 -11 -31 -33 -31 -32 0 -51 16
-51 45 0 41 53 62 79 31z m89 -4 c3 -9 -4 -11 -25 -7 l-28 6 28 -16 c38 -22
32 -49 -11 -53 -24 -2 -32 1 -32 13 0 12 7 14 28 10 l27 -6 -27 16 c-27 15
-35 34 -21 49 11 11 56 2 61 -12z m82 2 c0 -11 -6 -14 -21 -9 -15 5 -19 4 -15
-4 4 -6 13 -11 21 -11 16 0 26 -23 15 -39 -9 -16 -62 -10 -68 7 -3 9 3 11 22
6 33 -8 34 3 1 16 -24 9 -32 29 -18 43 14 14 63 7 63 -9z m85 -6 l8 -23 4 23
c6 31 29 28 41 -5 9 -25 11 -25 11 -6 1 21 18 40 27 30 10 -9 -19 -87 -31 -87
-7 0 -16 10 -19 23 l-7 22 -9 -22 c-14 -34 -26 -28 -43 22 -13 36 -13 45 -3
45 8 0 17 -10 21 -22z m180 -23 c0 -38 -2 -40 -32 -43 -27 -3 -35 1 -44 21
-17 38 4 69 44 65 30 -3 32 -5 32 -43z m233 27 c3 -9 -4 -11 -25 -8 l-28 6 28
-12 c39 -17 34 -53 -7 -53 -16 0 -31 6 -34 13 -3 9 4 11 25 7 l28 -6 -27 16
c-27 15 -35 34 -21 49 11 11 56 2 61 -12z m42 -71 c0 -19 -17 -38 -25 -29 -7
7 7 48 16 48 5 0 9 -9 9 -19z m-3690 -131 c0 -5 -6 -10 -12 -10 -9 0 -8 -4 2
-11 11 -8 12 -12 3 -16 -7 -2 -13 -20 -13 -39 0 -19 -4 -34 -10 -34 -5 0 -10
15 -10 34 0 19 -4 37 -10 41 -5 3 -2 14 8 25 17 21 42 27 42 10z m1010 0 c0
-5 -7 -10 -15 -10 -8 0 -15 5 -15 10 0 6 7 10 15 10 8 0 15 -4 15 -10z m740 0
c0 -5 -7 -10 -15 -10 -8 0 -15 5 -15 10 0 6 7 10 15 10 8 0 15 -4 15 -10z
m280 0 c0 -5 -7 -10 -15 -10 -8 0 -15 5 -15 10 0 6 7 10 15 10 8 0 15 -4 15
-10z m360 -50 c0 -47 -3 -60 -15 -60 -12 0 -15 13 -15 60 0 47 3 60 15 60 12
0 15 -13 15 -60z m40 0 c0 -47 -3 -60 -15 -60 -12 0 -15 13 -15 60 0 47 3 60
15 60 12 0 15 -13 15 -60z m660 50 c0 -5 -9 -10 -20 -10 -17 0 -20 -7 -20 -50
0 -27 -4 -50 -10 -50 -5 0 -10 23 -10 50 0 43 -3 50 -20 50 -11 0 -20 5 -20
10 0 6 23 10 50 10 28 0 50 -4 50 -10z m30 -5 c0 -9 9 -15 24 -15 26 0 36 -16
36 -61 0 -19 -5 -29 -15 -29 -10 0 -15 11 -15 35 0 24 -5 35 -15 35 -10 0 -15
-11 -15 -35 0 -19 -4 -35 -10 -35 -6 0 -10 27 -10 60 0 33 4 60 10 60 6 0 10
-7 10 -15z m480 5 c0 -5 -7 -10 -15 -10 -8 0 -15 5 -15 10 0 6 7 10 15 10 8 0
15 -4 15 -10z m-2942 -17 c12 -12 13 -18 4 -21 -14 -4 -16 -38 -2 -47 17 -10
11 -27 -7 -23 -25 5 -40 108 -16 108 2 0 12 -8 21 -17z m300 0 c12 -12 13 -18
4 -21 -14 -4 -16 -52 -2 -52 6 0 10 -5 10 -11 0 -6 -8 -9 -17 -7 -25 5 -40
108 -16 108 2 0 12 -8 21 -17z m330 0 c12 -12 13 -18 4 -21 -14 -4 -16 -38 -2
-47 17 -10 11 -27 -7 -23 -25 5 -40 108 -16 108 2 0 12 -8 21 -17z m960 0 c12
-12 13 -18 4 -21 -14 -4 -16 -38 -2 -47 17 -10 11 -27 -7 -23 -25 5 -40 108
-16 108 2 0 12 -8 21 -17z m550 0 c12 -12 13 -18 4 -21 -14 -4 -16 -38 -2 -47
17 -10 11 -27 -7 -23 -25 5 -40 108 -16 108 2 0 12 -8 21 -17z m758 3 c9 -9
10 -17 4 -21 -14 -9 -13 -48 3 -64 10 -10 7 -12 -13 -9 -21 2 -26 10 -30 44
-9 63 4 81 36 50z m-3496 -15 c0 -5 -7 -11 -15 -15 -9 -3 -15 -18 -15 -36 0
-16 -4 -30 -10 -30 -5 0 -10 20 -10 45 0 41 2 45 25 45 14 0 25 -4 25 -9z m85
-36 c0 -38 -2 -40 -32 -43 -27 -3 -35 1 -44 21 -17 38 4 69 44 65 30 -3 32 -5
32 -43z m143 -2 c2 -34 0 -43 -12 -43 -12 0 -16 10 -16 35 0 19 -4 35 -10 35
-5 0 -10 -16 -10 -35 0 -24 -5 -35 -15 -35 -10 0 -15 11 -15 35 0 19 -4 35
-10 35 -5 0 -10 -16 -10 -35 0 -24 -5 -35 -15 -35 -11 0 -15 12 -15 45 l0 46
63 -3 62 -3 3 -42z m135 35 c4 -10 7 -10 18 0 30 28 79 7 79 -33 0 -40 -49
-61 -79 -32 -11 10 -14 10 -18 0 -3 -7 -18 -13 -34 -13 -37 0 -57 36 -40 69
13 23 66 30 74 9z m185 -35 c2 -26 -1 -43 -7 -43 -6 0 -11 16 -11 35 0 24 -5
35 -15 35 -10 0 -15 -11 -15 -35 0 -24 -5 -35 -15 -35 -11 0 -15 12 -15 46 l0
45 38 -3 c36 -3 37 -4 40 -45z m210 -1 l3 -43 -38 3 c-48 4 -56 30 -16 53 24
14 24 15 6 12 -13 -3 -25 -1 -28 4 -12 19 -35 -5 -35 -37 0 -24 -5 -34 -15
-34 -11 0 -15 12 -15 45 l0 45 68 -3 67 -2 3 -43z m89 31 c3 -8 -6 -11 -24
-10 -22 2 -28 -2 -28 -18 0 -16 6 -20 28 -18 34 2 32 -20 -2 -25 -43 -7 -69
46 -39 76 15 15 60 12 65 -5z m93 -28 c0 -25 -4 -45 -10 -45 -5 0 -10 20 -10
45 0 25 5 45 10 45 6 0 10 -20 10 -45z m94 29 c12 -31 7 -74 -9 -74 -10 0 -15
11 -15 35 0 24 -5 35 -15 35 -10 0 -15 -11 -15 -35 0 -19 -4 -35 -10 -35 -5 0
-10 20 -10 45 0 44 0 45 34 45 22 0 36 -6 40 -16z m106 -32 c0 -55 -12 -72
-51 -72 -41 0 -47 20 -7 21 27 1 29 3 8 6 -29 6 -40 19 -40 49 0 29 19 44 57
44 33 0 33 0 33 -48z m191 27 c16 -30 -3 -69 -34 -69 -29 0 -47 17 -47 45 0
45 60 63 81 24z m137 9 c27 -27 7 -78 -30 -78 -10 0 -18 -7 -18 -15 0 -8 -7
-15 -15 -15 -12 0 -15 13 -15 60 l0 60 33 0 c18 0 38 -5 45 -12z m96 -4 c3 -9
6 -29 6 -45 0 -29 -2 -30 -37 -27 -49 4 -59 38 -16 56 l28 12 -27 -5 c-26 -5
-36 4 -21 18 13 13 61 7 67 -9z m41 -11 l8 -28 10 28 c6 15 17 27 23 27 10 0
10 -8 -1 -39 -21 -60 -34 -81 -50 -81 -18 0 -20 17 -3 22 8 3 7 17 -5 51 -13
38 -13 47 -2 47 7 0 16 -12 20 -27z m85 -18 c0 -25 -4 -45 -10 -45 -5 0 -10
20 -10 45 0 25 5 45 10 45 6 0 10 -20 10 -45z m88 -2 c2 -26 -1 -43 -7 -43 -6
0 -11 16 -11 35 0 24 -5 35 -15 35 -10 0 -15 -11 -15 -35 0 -19 -4 -35 -10
-35 -5 0 -10 21 -10 46 0 45 0 45 33 42 30 -3 32 -6 35 -45z m100 -10 c-3 -52
-5 -58 -26 -61 -13 -2 -31 0 -40 4 -13 6 -9 9 18 14 31 7 32 7 7 9 -35 1 -55
38 -38 70 9 15 21 21 47 21 l35 0 -3 -57z m82 12 c0 -25 -4 -45 -10 -45 -5 0
-10 20 -10 45 0 25 5 45 10 45 6 0 10 -20 10 -45z m94 29 c12 -31 7 -74 -9
-74 -10 0 -15 11 -15 35 0 24 -5 35 -15 35 -10 0 -15 -11 -15 -35 0 -19 -4
-35 -10 -35 -5 0 -10 20 -10 45 0 44 0 45 34 45 22 0 36 -6 40 -16z m86 0 c0
-11 -6 -14 -21 -9 -15 5 -19 4 -15 -4 4 -6 13 -11 21 -11 16 0 26 -23 15 -39
-9 -16 -62 -10 -68 7 -3 9 3 11 22 6 33 -8 34 3 1 16 -24 9 -32 29 -18 43 14
14 63 7 63 -9z m148 -32 l3 -43 -38 3 c-48 4 -56 30 -16 53 22 12 24 15 8 14
-31 -2 -37 0 -30 12 4 5 21 9 38 7 30 -3 32 -6 35 -46z m212 33 c0 -8 4 -15 9
-15 5 0 11 7 15 15 7 19 50 19 65 1 7 -8 11 -27 9 -43 -2 -23 -9 -29 -33 -31
-19 -3 -33 2 -42 14 -12 16 -13 16 -13 1 0 -9 -7 -17 -15 -17 -11 0 -15 11
-15 36 0 45 -24 42 -28 -4 -4 -44 -22 -40 -22 4 0 45 -24 42 -28 -4 -5 -49
-22 -38 -22 13 l0 45 60 0 c47 0 60 -3 60 -15z m188 -32 c2 -26 -1 -43 -7 -43
-6 0 -11 16 -11 35 0 24 -5 35 -15 35 -10 0 -15 -11 -15 -35 0 -24 -5 -35 -15
-35 -11 0 -15 12 -15 46 l0 45 38 -3 c36 -3 37 -4 40 -45z m142 31 c0 -11 -6
-14 -21 -9 -15 5 -19 4 -15 -4 4 -6 13 -11 21 -11 16 0 26 -23 15 -39 -9 -16
-62 -10 -68 7 -3 9 3 11 22 6 33 -8 34 3 1 16 -24 9 -32 29 -18 43 14 14 63 7
63 -9z m380 -3 c15 -30 -4 -71 -33 -71 -29 0 -47 17 -47 45 0 44 60 63 80 26z
m135 -26 c0 -39 -1 -40 -35 -40 -31 0 -35 3 -38 28 -5 46 4 59 40 55 31 -3 33
-5 33 -43z m93 -2 c2 -26 -1 -43 -7 -43 -6 0 -11 16 -11 35 0 24 -5 35 -15 35
-10 0 -15 -11 -15 -35 0 -24 -5 -35 -15 -35 -11 0 -15 12 -15 46 l0 45 38 -3
c36 -3 37 -4 40 -45z m102 2 c0 -25 -4 -45 -10 -45 -5 0 -10 20 -10 45 0 25 5
45 10 45 6 0 10 -20 10 -45z m145 0 c0 -39 -1 -40 -35 -40 -33 0 -35 2 -38 37
-4 49 -32 42 -32 -8 0 -24 -5 -34 -15 -34 -11 0 -15 12 -15 45 l0 45 68 -3 67
-2 0 -40z m-815 -35 c0 -5 -4 -10 -10 -10 -5 0 -10 5 -10 10 0 6 5 10 10 10 6
0 10 -4 10 -10z m-2310 -140 c0 -5 -4 -10 -10 -10 -5 0 -10 5 -10 10 0 6 5 10
10 10 6 0 10 -4 10 -10z m230 -50 l0 -60 -39 0 c-31 0 -41 4 -46 21 -12 36 3
69 30 69 16 0 25 6 25 15 0 8 7 15 15 15 12 0 15 -13 15 -60z m420 46 c0 -9
12 -16 28 -18 24 -3 27 -7 30 -45 4 -50 -15 -59 -20 -10 -2 20 -8 32 -18 32
-10 0 -16 -12 -18 -32 -6 -57 -22 -36 -22 27 0 33 4 60 10 60 6 0 10 -6 10
-14z m440 -1 c0 -9 9 -15 24 -15 26 0 36 -16 36 -61 0 -19 -5 -29 -15 -29 -10
0 -15 11 -15 35 0 24 -5 35 -15 35 -10 0 -15 -11 -15 -35 0 -19 -4 -35 -10
-35 -6 0 -10 27 -10 60 0 33 4 60 10 60 6 0 10 -7 10 -15z m200 0 c0 -9 9 -15
24 -15 26 0 36 -16 36 -61 0 -19 -5 -29 -15 -29 -10 0 -15 11 -15 35 0 24 -5
35 -15 35 -10 0 -15 -11 -15 -35 0 -19 -4 -35 -10 -35 -6 0 -10 27 -10 60 0
33 4 60 10 60 6 0 10 -7 10 -15z m665 -17 c1 -37 11 -44 25 -19 12 24 52 28
69 7 7 -8 11 -27 9 -43 -2 -23 -9 -29 -33 -31 -19 -3 -33 2 -42 14 -11 16 -13
16 -19 1 -4 -12 -18 -17 -45 -17 l-39 0 0 61 0 60 38 -3 c33 -3 37 -6 37 -30z
m165 22 c0 -5 -6 -10 -12 -10 -9 0 -8 -4 2 -11 11 -8 12 -12 3 -16 -7 -2 -13
-20 -13 -39 0 -19 -4 -34 -10 -34 -5 0 -10 15 -10 34 0 19 -4 37 -10 41 -5 3
-2 14 8 25 17 21 42 27 42 10z m660 -1 c0 -5 -10 -9 -22 -7 -17 2 -22 -1 -20
-14 2 -10 -2 -18 -8 -18 -5 0 -10 -16 -10 -35 0 -49 -17 -44 -22 8 -7 58 5 77
47 77 19 0 35 -5 35 -11z m230 1 c0 -5 -4 -10 -10 -10 -5 0 -10 5 -10 10 0 6
5 10 10 10 6 0 10 -4 10 -10z m-2404 -14 c9 -9 10 -17 4 -21 -13 -8 -13 -55 0
-55 6 0 10 -4 10 -10 0 -5 -9 -10 -20 -10 -16 0 -20 7 -20 34 0 19 -4 38 -10
41 -6 4 -5 11 3 20 15 18 16 18 33 1z m640 0 c9 -9 10 -17 4 -21 -14 -9 -13
-48 3 -64 10 -10 7 -12 -13 -9 -21 2 -26 10 -30 44 -9 63 4 81 36 50z m-1838
-18 c27 -27 7 -78 -30 -78 -10 0 -18 -7 -18 -15 0 -8 -7 -15 -15 -15 -12 0
-15 13 -15 60 l0 60 33 0 c18 0 38 -5 45 -12z m72 3 c0 -5 -7 -11 -15 -15 -9
-3 -15 -18 -15 -36 0 -16 -4 -30 -10 -30 -5 0 -10 20 -10 45 0 41 2 45 25 45
14 0 25 -4 25 -9z m85 -36 c0 -38 -2 -40 -32 -43 -27 -3 -35 1 -44 21 -17 38
4 69 44 65 30 -3 32 -5 32 -43z m92 28 c3 -8 -6 -11 -24 -10 -22 2 -28 -2 -28
-18 0 -16 6 -20 28 -18 34 2 32 -20 -2 -25 -43 -7 -69 46 -39 76 15 15 60 12
65 -5z m93 -2 c15 -30 -4 -71 -33 -71 -29 0 -47 17 -47 45 0 44 60 63 80 26z
m82 4 c-2 -5 -13 -9 -25 -7 -19 2 -18 0 6 -13 39 -22 32 -50 -12 -50 -19 0
-36 6 -39 13 -3 9 3 11 24 6 19 -5 25 -4 20 5 -4 6 -13 11 -21 11 -15 0 -24
19 -17 38 5 15 69 12 64 -3z m86 -3 c3 -9 -4 -11 -25 -7 l-28 6 28 -16 c38
-22 32 -49 -11 -53 -24 -2 -32 1 -32 13 0 12 7 14 28 10 l27 -6 -27 16 c-27
15 -35 34 -21 49 11 11 56 2 61 -12z m82 -27 c0 -25 -4 -45 -10 -45 -5 0 -10
20 -10 45 0 25 5 45 10 45 6 0 10 -20 10 -45z m82 30 c-2 -5 -13 -9 -25 -7
-19 2 -18 0 6 -13 39 -22 32 -50 -12 -50 -19 0 -36 6 -39 13 -3 9 3 11 24 6
19 -5 25 -4 20 5 -4 6 -13 11 -21 11 -15 0 -24 19 -17 38 5 15 69 12 64 -3z
m239 -6 c16 -30 -3 -69 -34 -69 -29 0 -47 17 -47 45 0 45 60 63 81 24z m93 5
c12 -31 7 -74 -9 -74 -10 0 -15 11 -15 35 0 24 -5 35 -15 35 -10 0 -15 -11
-15 -35 0 -19 -4 -35 -10 -35 -5 0 -10 20 -10 45 0 44 0 45 34 45 22 0 36 -6
40 -16z m96 -3 c15 -30 -4 -71 -33 -71 -29 0 -47 17 -47 45 0 44 60 63 80 26z
m270 9 c0 -5 -7 -10 -15 -10 -10 0 -15 -11 -15 -35 0 -19 -4 -35 -10 -35 -5 0
-10 20 -10 45 0 41 2 45 25 45 14 0 25 -4 25 -10z m81 -11 c16 -30 -3 -69 -34
-69 -29 0 -47 17 -47 45 0 45 60 63 81 24z m39 -14 c0 -24 5 -35 15 -35 10 0
15 11 15 35 0 24 5 35 15 35 11 0 15 -12 15 -46 l0 -45 -37 3 c-37 3 -38 4
-41 46 -2 25 1 42 7 42 6 0 11 -16 11 -35z m148 -22 c-3 -56 -4 -58 -32 -61
-16 -2 -33 1 -39 7 -8 8 -1 11 24 12 l34 1 -30 7 c-24 5 -31 12 -33 34 -5 45
4 57 43 57 l36 0 -3 -57z m392 38 c15 -30 -4 -71 -33 -71 -29 0 -47 17 -47 45
0 44 60 63 80 26z m134 3 c3 -9 6 -29 6 -45 0 -29 -2 -30 -37 -27 -49 4 -59
38 -16 56 l28 12 -27 -5 c-26 -5 -36 4 -21 18 13 13 61 7 67 -9z m97 -5 c16
-31 -3 -69 -36 -69 -16 0 -25 -6 -25 -15 0 -8 -4 -15 -10 -15 -6 0 -10 27 -10
60 l0 60 35 0 c25 0 37 -6 46 -21z m98 -1 c12 -34 -2 -63 -33 -66 -14 -2 -26
-10 -26 -18 0 -8 -4 -14 -10 -14 -6 0 -10 27 -10 60 l0 60 35 0 c28 0 38 -5
44 -22z m429 10 c7 -7 12 -21 12 -33 0 -12 -5 -26 -12 -33 -7 -7 -21 -12 -33
-12 -12 0 -26 5 -33 12 -7 7 -12 21 -12 33 0 12 5 26 12 33 7 7 21 12 33 12
12 0 26 -5 33 -12z m72 3 c0 -5 -7 -11 -15 -15 -9 -3 -15 -18 -15 -36 0 -16
-4 -30 -10 -30 -5 0 -10 20 -10 45 0 41 2 45 25 45 14 0 25 -4 25 -9z m79 -5
c7 -8 11 -27 9 -43 -2 -23 -8 -29 -35 -31 -27 -3 -35 1 -44 21 -22 49 37 93
70 53z m139 -4 c3 -9 -3 -11 -22 -6 -23 5 -26 3 -26 -21 0 -24 3 -26 26 -21
19 5 25 3 22 -6 -6 -18 -46 -22 -64 -8 -17 15 -18 52 -2 68 16 16 60 12 66 -6z
m90 6 c7 -7 12 -21 12 -33 0 -12 -5 -26 -12 -33 -7 -7 -21 -12 -33 -12 -12 0
-26 5 -33 12 -7 7 -12 21 -12 33 0 12 5 26 12 33 7 7 21 12 33 12 12 0 26 -5
33 -12z m100 -35 c4 -50 -15 -59 -20 -10 -2 20 -8 32 -18 32 -10 0 -16 -12
-18 -32 -5 -50 -22 -39 -22 13 l0 45 38 -3 c36 -3 37 -4 40 -45z m102 2 c0
-33 -4 -45 -15 -45 -11 0 -15 12 -15 45 0 33 4 45 15 45 11 0 15 -12 15 -45z
m60 36 c0 -5 -7 -11 -15 -15 -9 -3 -15 -18 -15 -36 0 -16 -4 -30 -10 -30 -5 0
-10 20 -10 45 0 41 2 45 25 45 14 0 25 -4 25 -9z m134 -13 c10 -40 7 -68 -9
-68 -11 0 -15 11 -15 36 0 45 -24 42 -28 -4 -4 -44 -22 -40 -22 4 0 45 -24 42
-28 -4 -5 -49 -22 -38 -22 13 l0 45 59 0 c52 0 59 -2 65 -22z m36 -23 c0 -25
-4 -45 -10 -45 -5 0 -10 20 -10 45 0 25 5 45 10 45 6 0 10 -20 10 -45z m94 29
c12 -31 7 -74 -9 -74 -10 0 -15 11 -15 35 0 24 -5 35 -15 35 -10 0 -15 -11
-15 -35 0 -19 -4 -35 -10 -35 -5 0 -10 20 -10 45 0 44 0 45 34 45 22 0 36 -6
40 -16z m94 -41 c-3 -56 -4 -58 -32 -61 -16 -2 -33 1 -39 7 -8 8 -1 11 24 12
l34 1 -30 7 c-24 5 -31 12 -33 34 -5 45 4 57 43 57 l36 0 -3 -57z m-1388 -23
c0 -5 -4 -10 -10 -10 -5 0 -10 5 -10 10 0 6 5 10 10 10 6 0 10 -4 10 -10z
m1436 -6 c-3 -9 -6 -20 -6 -25 0 -5 -4 -9 -10 -9 -5 0 -10 11 -10 25 0 16 6
25 16 25 11 0 14 -5 10 -16z m-3016 -134 c0 -5 -4 -10 -10 -10 -5 0 -10 5 -10
10 0 6 5 10 10 10 6 0 10 -4 10 -10z m70 1 c0 -5 -6 -12 -12 -14 -7 -3 -1 -6
13 -6 20 -1 29 -8 34 -28 l7 -28 10 28 c5 15 16 27 23 27 17 0 -22 -110 -42
-117 -19 -8 -30 6 -14 17 12 7 12 14 -1 45 -19 48 -32 49 -36 3 -4 -53 -29
-50 -34 5 -3 23 -1 50 4 60 9 17 48 24 48 8z m250 -51 c0 -33 -4 -60 -10 -60
-6 0 -10 27 -10 60 0 33 4 60 10 60 6 0 10 -27 10 -60z m40 0 c0 -33 -4 -60
-10 -60 -6 0 -10 27 -10 60 0 33 4 60 10 60 6 0 10 -27 10 -60z m90 50 c0 -5
-7 -10 -15 -10 -8 0 -15 5 -15 10 0 6 7 10 15 10 8 0 15 -4 15 -10z m150 0 c0
-5 -6 -10 -12 -10 -10 0 -9 -3 1 -9 9 -6 10 -11 2 -15 -6 -4 -11 -23 -11 -42
0 -19 -4 -34 -10 -34 -5 0 -10 15 -10 33 0 18 -5 38 -12 45 -9 9 -9 12 0 12 7
0 12 7 12 15 0 8 9 15 20 15 11 0 20 -4 20 -10z m470 0 c0 -5 -4 -10 -10 -10
-5 0 -10 5 -10 10 0 6 5 10 10 10 6 0 10 -4 10 -10z m-44 -14 c9 -9 10 -17 4
-21 -13 -8 -13 -55 0 -55 6 0 10 -4 10 -10 0 -5 -9 -10 -20 -10 -16 0 -20 7
-20 34 0 19 -4 38 -10 41 -6 4 -5 11 3 20 15 18 16 18 33 1z m-1899 -26 c3
-11 9 -20 13 -20 4 0 10 9 13 20 3 11 10 20 16 20 15 0 14 -7 -8 -65 -14 -38
-25 -51 -42 -54 -23 -3 -23 -2 -7 15 15 17 15 23 2 53 -17 40 -18 51 -3 51 6
0 13 -9 16 -20z m138 -25 c0 -38 -2 -40 -32 -43 -27 -3 -35 1 -44 21 -17 38 4
69 44 65 30 -3 32 -5 32 -43z m45 10 c0 -24 5 -35 15 -35 10 0 15 11 15 35 0
19 5 35 10 35 6 0 10 -21 10 -46 0 -45 0 -45 -32 -42 -31 3 -33 6 -36 46 -2
25 1 42 7 42 6 0 11 -16 11 -35z m187 18 c3 -8 -6 -11 -24 -10 -22 2 -28 -2
-28 -18 0 -16 6 -20 28 -18 34 2 32 -20 -2 -25 -43 -7 -69 46 -39 76 15 15 60
12 65 -5z m87 1 c3 -9 6 -29 6 -45 0 -29 -2 -30 -37 -27 -49 4 -59 38 -16 56
l28 12 -27 -5 c-26 -5 -36 4 -21 18 13 13 61 7 67 -9z m94 -31 c2 -26 -1 -43
-7 -43 -6 0 -11 16 -11 35 0 24 -5 35 -15 35 -10 0 -15 -11 -15 -35 0 -24 -5
-35 -15 -35 -11 0 -15 12 -15 46 l0 45 38 -3 c36 -3 37 -4 40 -45z m90 20 l10
-28 11 28 c13 33 36 37 25 5 -25 -83 -42 -89 -65 -23 -13 35 -14 45 -4 45 8 0
18 -12 23 -27z m131 13 c6 -7 8 -27 5 -45 -5 -25 -11 -31 -33 -31 -32 0 -51
16 -51 45 0 41 53 62 79 31z m71 5 c0 -5 -7 -11 -15 -15 -9 -3 -15 -18 -15
-36 0 -16 -4 -30 -10 -30 -5 0 -10 20 -10 45 0 41 2 45 25 45 14 0 25 -4 25
-9z m30 -36 c0 -25 -4 -45 -10 -45 -5 0 -10 20 -10 45 0 25 5 45 10 45 6 0 10
-20 10 -45z m278 -2 l3 -43 -35 0 c-20 0 -36 2 -36 4 0 2 -3 11 -6 20 -4 10 4
20 28 31 30 14 30 15 6 10 -16 -3 -28 -2 -28 3 0 16 14 23 40 20 22 -3 25 -8
28 -45z m162 2 c0 -25 -4 -45 -10 -45 -5 0 -10 20 -10 45 0 25 5 45 10 45 6 0
10 -20 10 -45z m94 29 c12 -31 7 -74 -9 -74 -10 0 -15 11 -15 35 0 24 -5 35
-15 35 -10 0 -15 -11 -15 -35 0 -19 -4 -35 -10 -35 -5 0 -10 20 -10 45 0 44 0
45 34 45 22 0 36 -6 40 -16z m144 4 c7 -7 12 -21 12 -33 0 -12 -5 -26 -12 -33
-7 -7 -21 -12 -33 -12 -12 0 -26 5 -33 12 -7 7 -12 21 -12 33 0 12 5 26 12 33
7 7 21 12 33 12 12 0 26 -5 33 -12z m72 3 c0 -5 -7 -11 -15 -15 -9 -3 -15 -18
-15 -36 0 -16 -4 -30 -10 -30 -5 0 -10 20 -10 45 0 41 2 45 25 45 14 0 25 -4
25 -9z m134 -13 c10 -40 7 -68 -9 -68 -11 0 -15 11 -15 36 0 45 -24 42 -28 -4
-4 -44 -22 -40 -22 4 0 45 -24 42 -28 -4 -5 -49 -22 -38 -22 13 l0 45 59 0
c52 0 59 -2 65 -22z m90 6 c3 -9 6 -29 6 -45 0 -29 -2 -30 -37 -27 -49 4 -59
38 -16 56 l28 12 -27 -5 c-26 -5 -36 4 -21 18 13 13 61 7 67 -9z m96 -29 c0
-25 -4 -45 -10 -45 -5 0 -10 20 -10 45 0 25 5 45 10 45 6 0 10 -20 10 -45z
m88 33 c7 -7 12 -21 12 -33 0 -12 -5 -26 -12 -33 -7 -7 -21 -12 -33 -12 -12 0
-26 5 -33 12 -7 7 -12 21 -12 33 0 12 5 26 12 33 7 7 21 12 33 12 12 0 26 -5
33 -12z m100 -35 c4 -50 -15 -59 -20 -10 -2 20 -8 32 -18 32 -10 0 -16 -12
-18 -32 -5 -50 -22 -39 -22 13 l0 45 38 -3 c36 -3 37 -4 40 -45z m42 -33 c0
-5 -4 -10 -10 -10 -5 0 -10 5 -10 10 0 6 5 10 10 10 6 0 10 -4 10 -10z m-2224
-540 l2 -35 -5 33 c-4 28 -8 33 -24 29 -11 -3 -16 -1 -13 4 14 23 39 3 40 -31z
m104 36 c0 -2 -9 -6 -20 -9 -11 -3 -20 -1 -20 4 0 5 9 9 20 9 11 0 20 -2 20
-4z m72 -74 c-3 -8 -7 -10 -11 -4 -3 5 -14 11 -24 13 -16 4 -17 6 -2 24 12 16
14 17 9 3 -4 -11 -1 -18 6 -18 6 0 11 10 10 23 -4 39 2 43 9 7 4 -19 5 -41 3
-48z m-198 19 c-2 -3 -12 3 -22 13 -16 17 -16 18 5 5 12 -7 20 -15 17 -18z
m126 13 c11 -12 10 -18 -3 -32 -12 -12 -20 -13 -28 -5 -8 8 -6 11 6 10 27 -3
30 22 3 32 -15 6 -17 10 -7 10 9 1 22 -6 29 -15z m-125 -42 c-3 -3 -11 0 -18
7 -9 10 -8 11 6 5 10 -3 15 -9 12 -12z m335 -522 c0 -59 0 -60 -28 -60 -33 0
-52 16 -52 45 0 26 18 45 42 45 10 0 18 7 18 15 0 8 5 15 10 15 6 0 10 -27 10
-60z m40 45 c0 -9 9 -15 25 -15 33 0 52 -38 36 -69 -9 -15 -21 -21 -46 -21
l-35 0 0 60 c0 33 4 60 10 60 6 0 10 -7 10 -15z m-332 -72 c-3 -57 -3 -58 -35
-61 -19 -2 -33 1 -33 7 0 6 12 12 28 12 20 1 22 2 7 6 -30 8 -45 23 -45 47 0
30 18 46 52 46 29 0 29 0 26 -57z m92 43 c28 -35 -11 -93 -47 -70 -36 22 -23
84 17 84 10 0 23 -7 30 -14z m102 -12 c15 -33 1 -58 -35 -62 -34 -4 -55 34
-38 67 17 30 58 28 73 -5z m245 -6 l10 -33 7 33 c4 17 14 32 21 32 21 0 -26
-114 -49 -118 -15 -3 -16 -1 -5 16 10 17 10 28 -3 61 -13 32 -13 41 -4 41 7 0
17 -15 23 -32z m131 5 c3 -20 -1 -23 -27 -23 -17 0 -31 -5 -31 -11 0 -7 11 -9
31 -5 22 4 29 2 27 -7 -6 -17 -46 -21 -64 -7 -17 15 -18 52 -2 68 21 21 63 10
66 -15z m-590 -276 c3 -39 -18 -61 -40 -39 -7 7 -5 10 7 9 10 -1 20 4 22 11 3
7 -1 10 -10 7 -7 -3 -20 1 -27 10 -10 12 -10 18 0 30 22 27 45 14 48 -28z m90
36 c-23 -6 -23 -11 4 -33 19 -15 20 -20 9 -34 -14 -17 -41 -22 -41 -7 0 5 7 8
16 7 25 -2 29 24 5 31 -29 8 -28 43 2 42 16 -1 18 -2 5 -6z m75 0 c-28 -5 -30
-19 -3 -26 12 -3 20 -14 20 -26 0 -25 -26 -39 -42 -23 -7 7 -5 10 7 9 26 -3
31 23 6 30 -12 3 -21 13 -21 24 0 14 7 19 28 18 23 -2 24 -2 5 -6z m-143 -558
c11 -13 8 -14 -18 -9 -44 9 -49 -13 -7 -30 19 -8 35 -21 35 -28 0 -35 -56 -51
-80 -23 -10 12 -6 13 24 8 46 -7 50 17 6 34 -28 11 -40 39 -23 56 12 12 50 7
63 -8z m370 -45 c0 -59 0 -60 -28 -60 -33 0 -52 16 -52 45 0 26 18 45 42 45
10 0 18 7 18 15 0 8 5 15 10 15 6 0 10 -27 10 -60z m830 50 c0 -5 -4 -10 -10
-10 -5 0 -10 5 -10 10 0 6 5 10 10 10 6 0 10 -4 10 -10z m230 -36 c0 -27 -4
-43 -10 -39 -5 3 -10 24 -10 46 0 21 5 39 10 39 6 0 10 -21 10 -46z m-274 21
c9 -8 11 -15 5 -15 -15 0 -14 -53 2 -69 10 -10 8 -12 -8 -9 -15 2 -21 14 -25
44 -9 62 -1 76 26 49z m-1062 -21 c3 -9 6 -29 6 -45 0 -26 -3 -29 -34 -29 -49
0 -59 42 -12 51 26 5 19 25 -7 21 -12 -2 -17 1 -13 7 11 17 53 13 60 -5z m42
-9 c3 -14 10 -25 14 -25 4 0 11 11 14 25 4 14 11 25 16 25 13 0 13 -3 -6 -50
-9 -22 -20 -40 -24 -40 -4 0 -15 18 -24 40 -19 47 -19 50 -6 50 5 0 12 -11 16
-25z m134 6 c15 -28 13 -31 -20 -31 -16 0 -30 -5 -30 -11 0 -7 10 -9 25 -6 16
3 24 0 22 -7 -11 -33 -67 -10 -67 28 0 44 50 63 70 27z m235 8 c10 -15 -4 -24
-17 -11 -13 13 -38 -2 -38 -22 0 -22 22 -37 37 -24 15 12 28 5 18 -11 -3 -6
-17 -11 -31 -11 -32 0 -51 38 -35 69 12 22 55 29 66 10z m96 -10 c16 -31 -3
-69 -36 -69 -17 0 -29 8 -36 24 -15 32 4 66 36 66 15 0 29 -9 36 -21z m87 9
c14 -14 16 -78 3 -78 -6 0 -11 17 -13 38 -2 25 -8 37 -18 37 -10 0 -16 -12
-18 -37 -4 -53 -22 -47 -22 7 0 43 1 45 28 45 15 0 33 -5 40 -12z m48 -20 l7
-33 14 33 c20 49 34 38 16 -13 -21 -64 -32 -60 -57 23 -4 12 -3 22 3 22 5 0
13 -15 17 -32z m135 5 c8 -21 5 -23 -28 -23 -30 0 -34 -2 -23 -15 9 -11 17
-12 32 -4 16 9 19 8 16 -3 -3 -7 -17 -14 -31 -16 -35 -4 -55 33 -37 67 15 29
60 25 71 -6z m57 13 c-11 -8 -18 -26 -18 -45 0 -17 -4 -31 -10 -31 -5 0 -10
20 -10 45 0 43 2 45 28 45 24 -1 25 -2 10 -14z m88 2 c5 -8 0 -9 -14 -6 -32 9
-38 -10 -7 -22 17 -7 25 -16 23 -28 -4 -20 -45 -29 -61 -13 -15 15 0 26 17 12
10 -8 16 -9 21 -1 3 5 -5 14 -19 20 -25 9 -34 29 -19 43 11 11 51 8 59 -5z
m82 0 c7 -7 12 -27 12 -46 0 -32 -1 -33 -37 -30 -50 4 -58 34 -14 49 17 6 28
15 25 20 -3 5 -13 5 -25 -1 -10 -6 -19 -7 -19 -2 0 23 38 30 58 10z m102 -33
c0 -25 -4 -45 -10 -45 -5 0 -10 20 -10 45 0 25 5 45 10 45 6 0 10 -20 10 -45z
m90 31 c28 -35 -11 -93 -47 -70 -36 22 -23 84 17 84 10 0 23 -7 30 -14z m98
-33 c2 -24 -1 -43 -7 -43 -5 0 -11 17 -13 38 -2 20 -7 37 -13 37 -5 0 -11 -17
-13 -37 -5 -54 -22 -47 -22 8 0 45 0 45 33 42 30 -3 32 -6 35 -45z m42 -33 c0
-5 -4 -10 -10 -10 -5 0 -10 5 -10 10 0 6 5 10 10 10 6 0 10 -4 10 -10z m-1422
-382 c16 -16 16 -80 0 -96 -7 -7 -27 -12 -45 -12 l-33 0 0 60 0 60 33 0 c18 0
38 -5 45 -12z m359 -80 c-2 -18 -4 -4 -4 32 0 36 2 50 4 33 2 -18 2 -48 0 -65z
m293 31 l0 -60 -37 3 c-37 3 -38 4 -38 43 0 36 3 40 28 43 15 2 27 9 27 18 0
8 5 14 10 14 6 0 10 -27 10 -61z m168 29 c24 -3 27 -8 30 -45 2 -26 -1 -43 -7
-43 -6 0 -11 15 -11 34 0 60 -34 53 -43 -9 -2 -16 -4 -1 -4 35 -1 36 1 57 4
48 2 -9 16 -18 31 -20z m952 22 c0 -5 -4 -10 -10 -10 -5 0 -10 5 -10 10 0 6 5
10 10 10 6 0 10 -4 10 -10z m280 -5 c0 -8 8 -15 18 -15 24 0 42 -19 42 -45 0
-29 -19 -45 -52 -45 -28 0 -28 1 -28 60 0 33 4 60 10 60 6 0 10 -7 10 -15z
m307 -77 c-2 -18 -4 -4 -4 32 0 36 2 50 4 33 2 -18 2 -48 0 -65z m43 82 c0 -5
-4 -10 -10 -10 -5 0 -10 5 -10 10 0 6 5 10 10 10 6 0 10 -4 10 -10z m130 -22
c0 -29 1 -30 18 -15 26 24 39 21 17 -3 -17 -19 -17 -21 0 -40 10 -11 15 -23
11 -27 -4 -4 -16 3 -26 17 l-20 25 0 -22 c0 -13 -4 -23 -10 -23 -6 0 -10 27
-10 60 0 33 4 60 10 60 6 0 10 -14 10 -32z m90 22 c0 -5 -4 -10 -10 -10 -5 0
-10 5 -10 10 0 6 5 10 10 10 6 0 10 -4 10 -10z m340 -22 c13 -25 13 -31 0 -55
-12 -22 -24 -29 -53 -31 l-37 -3 0 61 0 61 37 -3 c29 -2 41 -9 53 -30z m112
15 c37 -33 11 -103 -38 -103 -24 0 -54 33 -54 60 0 26 30 60 52 60 12 0 30 -7
40 -17z m54 -18 c3 -19 10 -35 14 -35 4 0 11 16 14 35 9 48 31 44 43 -7 l9
-43 13 43 c18 65 31 50 14 -18 -9 -34 -20 -59 -26 -57 -6 2 -16 21 -22 43
l-12 39 -12 -42 c-6 -24 -16 -43 -21 -43 -5 0 -14 19 -20 43 -6 23 -13 50 -16
60 -3 9 -1 17 5 17 5 0 13 -16 17 -35z m181 -7 l28 -42 3 42 c5 64 22 50 22
-18 0 -33 -4 -60 -10 -60 -5 0 -22 19 -37 42 l-28 42 -3 -42 c-5 -64 -22 -50
-22 18 0 33 4 60 10 60 5 0 22 -19 37 -42z m95 -10 c3 -50 5 -53 33 -59 27 -6
26 -7 -12 -8 l-43 -1 0 60 c0 74 18 80 22 8z m150 35 c37 -33 11 -103 -38
-103 -24 0 -54 33 -54 60 0 26 30 60 52 60 12 0 30 -7 40 -17z m106 -43 c20
-57 15 -82 -8 -40 -6 11 -18 20 -26 20 -9 0 -18 -9 -21 -20 -3 -11 -10 -20
-15 -20 -6 0 -8 10 -4 23 10 42 36 97 45 97 5 0 18 -27 29 -60z m122 28 c13
-25 13 -31 0 -55 -12 -22 -24 -29 -53 -31 l-37 -3 0 61 0 61 37 -3 c29 -2 41
-9 53 -30z m50 -7 c0 -22 -4 -43 -10 -46 -6 -4 -10 12 -10 39 0 25 5 46 10 46
6 0 10 -18 10 -39z m-3084 14 c9 -8 11 -15 5 -15 -15 0 -14 -53 2 -69 10 -10
8 -12 -8 -9 -15 2 -21 14 -25 44 -9 62 -1 76 26 49z m980 0 c9 -8 11 -15 5
-15 -15 0 -14 -53 2 -69 10 -10 8 -12 -8 -9 -15 2 -21 14 -25 44 -9 62 -1 76
26 49z m-1626 -19 c28 -35 -11 -93 -47 -70 -36 22 -23 84 17 84 10 0 23 -7 30
-14z m40 -5 c0 -28 18 -36 22 -9 5 32 25 33 33 1 l7 -28 10 28 c12 32 33 37
22 5 -15 -51 -24 -68 -34 -68 -5 0 -10 9 -10 19 0 30 -17 34 -24 6 -9 -36 -21
-31 -34 14 -15 47 -15 51 -2 51 6 0 10 -9 10 -19z m178 7 c14 -14 16 -78 3
-78 -6 0 -11 17 -13 38 -2 25 -8 37 -18 37 -10 0 -16 -12 -18 -37 -4 -53 -22
-47 -22 7 0 43 1 45 28 45 15 0 33 -5 40 -12z m141 -10 c12 -31 -2 -62 -28
-66 -28 -4 -51 14 -51 42 0 47 63 66 79 24z m89 -26 l3 -43 -33 3 c-43 4 -51
34 -13 48 31 12 25 31 -7 22 -15 -4 -19 -2 -14 7 5 7 20 11 34 9 24 -3 27 -8
30 -46z m393 21 c8 -21 5 -23 -28 -23 -30 0 -34 -2 -23 -15 9 -11 17 -12 32
-4 16 9 19 8 16 -3 -3 -7 -17 -14 -31 -16 -35 -4 -55 33 -37 67 15 29 60 25
71 -6z m134 16 c10 -15 -4 -24 -17 -11 -13 13 -38 -2 -38 -22 0 -22 22 -37 37
-24 15 12 28 5 18 -11 -3 -6 -17 -11 -31 -11 -32 0 -51 38 -35 69 12 22 55 29
66 10z m94 -11 c12 -31 -2 -62 -28 -66 -28 -4 -51 14 -51 42 0 47 63 66 79 24z
m89 10 c14 -14 16 -78 3 -78 -6 0 -11 17 -13 38 -2 25 -8 37 -18 37 -10 0 -16
-12 -18 -37 -4 -53 -22 -47 -22 7 0 43 1 45 28 45 15 0 33 -5 40 -12z m48 -20
l7 -33 14 33 c20 49 34 38 16 -13 -21 -64 -32 -60 -57 23 -4 12 -3 22 3 22 5
0 13 -15 17 -32z m135 5 c8 -21 5 -23 -28 -23 -30 0 -34 -2 -23 -15 9 -11 17
-12 32 -4 16 9 19 8 16 -3 -3 -7 -17 -14 -31 -16 -35 -4 -55 33 -37 67 15 29
60 25 71 -6z m57 16 c-12 -6 -18 -22 -18 -44 0 -19 -4 -35 -10 -35 -5 0 -10
20 -10 45 0 42 2 45 28 45 23 -1 24 -2 10 -11z m82 0 c0 -6 -7 -9 -15 -6 -8 4
-17 2 -20 -3 -4 -6 6 -15 20 -20 37 -14 30 -45 -9 -45 -16 0 -31 6 -34 13 -3
11 0 12 16 3 14 -7 23 -8 27 -1 3 6 -5 14 -19 20 -25 9 -34 29 -19 43 11 11
53 8 53 -4z m88 -1 c7 -7 12 -27 12 -46 0 -32 -1 -33 -37 -30 -50 4 -58 34
-14 49 17 6 28 15 25 20 -3 5 -13 5 -25 -1 -10 -6 -19 -7 -19 -2 0 23 38 30
58 10z m102 -33 c0 -25 -4 -45 -10 -45 -5 0 -10 20 -10 45 0 25 5 45 10 45 6
0 10 -20 10 -45z m90 31 c28 -35 -11 -93 -47 -70 -36 22 -23 84 17 84 10 0 23
-7 30 -14z m98 -33 c2 -26 -1 -43 -7 -43 -6 0 -11 15 -11 34 0 60 -34 53 -43
-9 -3 -22 -4 -18 -6 16 -1 46 -1 46 32 45 30 -1 32 -3 35 -43z m184 15 l12
-33 14 35 c22 53 25 20 4 -36 -12 -30 -27 -50 -38 -53 -16 -3 -17 -1 -5 13 11
13 12 24 2 55 -12 43 -13 51 -5 51 3 0 10 -15 16 -32z m183 21 c10 -15 -3 -25
-16 -12 -17 17 -39 4 -39 -22 0 -26 22 -39 39 -22 13 13 26 3 16 -12 -8 -15
-48 -14 -63 1 -29 29 -7 78 34 78 13 0 26 -5 29 -11z m75 -34 c0 -25 -4 -45
-10 -45 -5 0 -10 20 -10 45 0 25 5 45 10 45 6 0 10 -20 10 -45z m87 29 c2 -7
-5 -10 -20 -7 -15 3 -26 -1 -30 -10 -8 -22 9 -40 33 -34 14 3 20 1 17 -6 -5
-17 -35 -21 -52 -7 -18 15 -19 52 -3 68 15 15 50 12 55 -4z m133 -29 c0 -25
-4 -45 -10 -45 -5 0 -10 20 -10 45 0 25 5 45 10 45 6 0 10 -20 10 -45z m88 -2
c2 -26 -1 -43 -7 -43 -6 0 -11 15 -11 34 0 60 -34 53 -43 -9 -3 -22 -4 -18 -6
16 -1 46 -1 46 32 45 30 -1 32 -3 35 -43z m102 5 c0 -22 -5 -48 -10 -59 -11
-20 -54 -26 -66 -8 -3 6 1 10 12 9 30 -3 44 -1 44 9 0 4 -11 6 -25 4 -19 -4
-27 0 -36 20 -17 38 2 67 46 65 34 -1 35 -3 35 -40z m1020 -38 c0 -5 -4 -10
-10 -10 -5 0 -10 5 -10 10 0 6 5 10 10 10 6 0 10 -4 10 -10z m-3864 -220 l2
-35 -5 33 c-4 28 -8 33 -24 29 -11 -3 -16 -1 -13 4 14 23 39 3 40 -31z m104
36 c0 -2 -9 -6 -20 -9 -11 -3 -20 -1 -20 4 0 5 9 9 20 9 11 0 20 -2 20 -4z
m63 -3 c-28 -5 -30 -19 -3 -26 12 -3 20 -14 20 -26 0 -25 -26 -39 -42 -23 -8
8 -5 9 11 5 15 -4 21 -1 21 12 0 9 -9 19 -20 22 -11 3 -20 14 -20 24 0 14 7
19 28 18 23 -2 24 -2 5 -6z m-189 -52 c-2 -3 -12 3 -22 13 -16 17 -16 18 5 5
12 -7 20 -15 17 -18z m126 13 c11 -12 10 -18 -3 -32 -12 -12 -20 -13 -28 -5
-8 8 -6 11 6 10 27 -3 30 22 3 32 -15 6 -17 10 -7 10 9 1 22 -6 29 -15z m-125
-42 c-3 -3 -11 0 -18 7 -9 10 -8 11 6 5 10 -3 15 -9 12 -12z m4295 -662 c0
-59 0 -60 -28 -60 -33 0 -52 16 -52 45 0 27 18 45 47 45 14 0 23 6 23 15 0 8
2 15 5 15 3 0 5 -27 5 -60z m-284 18 c5 -8 0 -9 -14 -6 -32 9 -38 -10 -7 -22
30 -11 31 -43 2 -48 -25 -5 -50 6 -42 18 5 8 11 8 19 1 7 -6 16 -8 19 -4 12
11 8 23 -7 23 -22 0 -38 24 -24 38 15 15 45 15 54 0z m94 -7 c15 -28 13 -31
-20 -31 -16 0 -30 -5 -30 -11 0 -7 10 -9 25 -6 16 3 24 0 22 -7 -11 -33 -67
-10 -67 28 0 44 50 63 70 27z m88 7 c14 -14 16 -78 3 -78 -6 0 -11 17 -13 38
-2 25 -8 37 -18 37 -10 0 -16 -12 -18 -37 -4 -53 -22 -47 -22 7 0 43 1 45 28
45 15 0 33 -5 40 -12z"/>
<path d="M2856 6331 c-4 -7 -5 -15 -2 -18 9 -9 19 4 14 18 -4 11 -6 11 -12 0z"/>
<path d="M3610 5745 c0 -18 5 -25 19 -25 20 0 31 17 24 38 -3 6 -13 12 -24 12
-14 0 -19 -7 -19 -25z"/>
<path d="M4078 5758 c-8 -21 2 -38 23 -38 14 0 19 7 19 25 0 18 -5 25 -19 25
-10 0 -21 -6 -23 -12z"/>
<path d="M4750 5745 c0 -18 5 -25 20 -25 15 0 20 7 20 25 0 18 -5 25 -20 25
-15 0 -20 -7 -20 -25z"/>
<path d="M3084 5755 c-4 -9 -2 -21 4 -27 15 -15 44 -1 40 19 -4 23 -36 29 -44
8z"/>
<path d="M3475 5760 c-4 -6 5 -10 20 -10 15 0 24 4 20 10 -3 6 -12 10 -20 10
-8 0 -17 -4 -20 -10z"/>
<path d="M3723 5773 c-20 -7 -15 -23 7 -23 11 0 20 4 20 9 0 13 -12 19 -27 14z"/>
<path d="M3985 5760 c-4 -6 5 -10 20 -10 15 0 24 4 20 10 -3 6 -12 10 -20 10
-8 0 -17 -4 -20 -10z"/>
<path d="M4233 5773 c-17 -6 -16 -50 1 -56 15 -6 36 11 36 29 0 16 -22 32 -37
27z"/>
<path d="M4327 5774 c-4 -4 -7 -18 -7 -31 0 -17 6 -23 21 -23 16 0 20 5 17 27
-3 26 -18 39 -31 27z"/>
<path d="M4510 5745 c0 -18 5 -25 20 -25 15 0 20 7 20 25 0 18 -5 25 -20 25
-15 0 -20 -7 -20 -25z"/>
<path d="M4845 5760 c-4 -6 5 -10 20 -10 15 0 24 4 20 10 -3 6 -12 10 -20 10
-8 0 -17 -4 -20 -10z"/>
<path d="M4974 5755 c-4 -9 -2 -21 4 -27 15 -15 44 -1 40 19 -4 23 -36 29 -44
8z"/>
<path d="M3320 4465 c0 -20 4 -26 18 -23 9 2 17 12 17 23 0 11 -8 21 -17 23
-14 3 -18 -3 -18 -23z"/>
<path d="M4594 4475 c-7 -18 3 -35 22 -35 8 0 14 10 14 25 0 27 -27 35 -36 10z"/>
<path d="M4695 4450 c-3 -5 1 -10 9 -10 9 0 16 5 16 10 0 6 -4 10 -9 10 -6 0
-13 -4 -16 -10z"/>
<path d="M2845 4480 c-3 -5 3 -10 14 -10 12 0 21 5 21 10 0 6 -6 10 -14 10 -8
0 -18 -4 -21 -10z"/>
<path d="M2858 4443 c7 -3 16 -2 19 1 4 3 -2 6 -13 5 -11 0 -14 -3 -6 -6z"/>
<path d="M2940 4450 c0 -5 4 -10 9 -10 6 0 13 5 16 10 3 6 -1 10 -9 10 -9 0
-16 -4 -16 -10z"/>
<path d="M3740 4480 c0 -5 9 -10 21 -10 11 0 17 5 14 10 -3 6 -13 10 -21 10
-8 0 -14 -4 -14 -10z"/>
<path d="M3758 4443 c7 -3 16 -2 19 1 4 3 -2 6 -13 5 -11 0 -14 -3 -6 -6z"/>
<path d="M4104 4475 c-7 -18 3 -35 22 -35 8 0 14 10 14 25 0 27 -27 35 -36 10z"/>
<path d="M4240 4480 c0 -5 9 -10 21 -10 11 0 17 5 14 10 -3 6 -13 10 -21 10
-8 0 -14 -4 -14 -10z"/>
<path d="M4248 4443 c6 -2 18 -2 25 0 6 3 1 5 -13 5 -14 0 -19 -2 -12 -5z"/>
<path d="M5044 4475 c-7 -18 3 -35 22 -35 8 0 14 10 14 25 0 27 -27 35 -36 10z"/>
<path d="M5145 4450 c-3 -5 1 -10 9 -10 9 0 16 5 16 10 0 6 -4 10 -9 10 -6 0
-13 -4 -16 -10z"/>
<path d="M5370 4465 c0 -20 4 -26 18 -23 9 2 17 12 17 23 0 11 -8 21 -17 23
-14 3 -18 -3 -18 -23z"/>
<path d="M5524 4475 c-7 -18 3 -35 22 -35 8 0 14 10 14 25 0 27 -27 35 -36 10z"/>
<path d="M5710 4480 c0 -5 7 -10 15 -10 8 0 15 5 15 10 0 6 -7 10 -15 10 -8 0
-15 -4 -15 -10z"/>
<path d="M5718 4443 c7 -3 16 -2 19 1 4 3 -2 6 -13 5 -11 0 -14 -3 -6 -6z"/>
<path d="M6140 4465 c0 -20 4 -26 18 -23 9 2 17 12 17 23 0 11 -8 21 -17 23
-14 3 -18 -3 -18 -23z"/>
<path d="M2870 4225 c0 -20 4 -26 18 -23 9 2 17 12 17 23 0 11 -8 21 -17 23
-14 3 -18 -3 -18 -23z"/>
<path d="M3150 4225 c0 -27 3 -28 38 -19 39 11 17 43 -30 44 -5 0 -8 -11 -8
-25z"/>
<path d="M3240 4225 c0 -20 4 -26 18 -23 9 2 17 12 17 23 0 11 -8 21 -17 23
-14 3 -18 -3 -18 -23z"/>
<path d="M3545 4210 c-3 -5 1 -10 9 -10 9 0 16 5 16 10 0 6 -4 10 -9 10 -6 0
-13 -4 -16 -10z"/>
<path d="M3914 4235 c-7 -18 3 -35 22 -35 8 0 14 10 14 25 0 27 -27 35 -36 10z"/>
<path d="M4114 4235 c-7 -18 3 -35 22 -35 8 0 14 10 14 25 0 27 -27 35 -36 10z"/>
<path d="M4260 4225 c0 -28 24 -34 34 -9 8 20 -1 34 -20 34 -8 0 -14 -10 -14
-25z"/>
<path d="M4355 4210 c-3 -5 1 -10 9 -10 9 0 16 5 16 10 0 6 -4 10 -9 10 -6 0
-13 -4 -16 -10z"/>
<path d="M4660 4225 c0 -20 4 -26 18 -23 9 2 17 12 17 23 0 11 -8 21 -17 23
-14 3 -18 -3 -18 -23z"/>
<path d="M5075 4210 c-3 -5 1 -10 9 -10 9 0 16 5 16 10 0 6 -4 10 -9 10 -6 0
-13 -4 -16 -10z"/>
<path d="M5380 4240 c0 -5 9 -10 21 -10 11 0 17 5 14 10 -3 6 -13 10 -21 10
-8 0 -14 -4 -14 -10z"/>
<path d="M5388 4203 c6 -2 18 -2 25 0 6 3 1 5 -13 5 -14 0 -19 -2 -12 -5z"/>
<path d="M5995 4240 c-3 -5 3 -10 14 -10 12 0 21 5 21 10 0 6 -6 10 -14 10 -8
0 -18 -4 -21 -10z"/>
<path d="M6008 4203 c7 -3 16 -2 19 1 4 3 -2 6 -13 5 -11 0 -14 -3 -6 -6z"/>
<path d="M6130 4240 c0 -5 9 -10 21 -10 11 0 17 5 14 10 -3 6 -13 10 -21 10
-8 0 -14 -4 -14 -10z"/>
<path d="M6148 4203 c7 -3 16 -2 19 1 4 3 -2 6 -13 5 -11 0 -14 -3 -6 -6z"/>
<path d="M6470 4240 c0 -5 9 -10 21 -10 11 0 17 5 14 10 -3 6 -13 10 -21 10
-8 0 -14 -4 -14 -10z"/>
<path d="M6488 4203 c7 -3 16 -2 19 1 4 3 -2 6 -13 5 -11 0 -14 -3 -6 -6z"/>
<path d="M3564 3995 c-7 -18 3 -35 22 -35 8 0 14 10 14 25 0 27 -27 35 -36 10z"/>
<path d="M5300 4024 c0 -9 7 -14 17 -12 25 5 28 28 4 28 -12 0 -21 -6 -21 -16z"/>
<path d="M5400 4000 c0 -5 9 -10 21 -10 11 0 17 5 14 10 -3 6 -13 10 -21 10
-8 0 -14 -4 -14 -10z"/>
<path d="M5300 3975 c0 -8 9 -15 20 -15 11 0 20 7 20 15 0 8 -9 15 -20 15 -11
0 -20 -7 -20 -15z"/>
<path d="M5408 3963 c6 -2 18 -2 25 0 6 3 1 5 -13 5 -14 0 -19 -2 -12 -5z"/>
<path d="M2760 3985 c0 -28 24 -34 34 -9 8 20 -1 34 -20 34 -8 0 -14 -10 -14
-25z"/>
<path d="M2910 3985 c0 -20 4 -26 18 -23 9 2 17 12 17 23 0 11 -8 21 -17 23
-14 3 -18 -3 -18 -23z"/>
<path d="M3095 4000 c-3 -5 3 -10 14 -10 12 0 21 5 21 10 0 6 -6 10 -14 10 -8
0 -18 -4 -21 -10z"/>
<path d="M3108 3963 c7 -3 16 -2 19 1 4 3 -2 6 -13 5 -11 0 -14 -3 -6 -6z"/>
<path d="M3664 3995 c-7 -18 3 -35 22 -35 8 0 14 10 14 25 0 27 -27 35 -36 10z"/>
<path d="M3855 4000 c-3 -5 3 -10 14 -10 12 0 21 5 21 10 0 6 -6 10 -14 10 -8
0 -18 -4 -21 -10z"/>
<path d="M3868 3963 c7 -3 16 -2 19 1 4 3 -2 6 -13 5 -11 0 -14 -3 -6 -6z"/>
<path d="M4204 3995 c-7 -18 3 -35 22 -35 8 0 14 10 14 25 0 27 -27 35 -36 10z"/>
<path d="M4394 3996 c-7 -19 3 -36 22 -36 10 0 14 8 12 22 -4 26 -26 36 -34
14z"/>
<path d="M4785 4000 c-3 -5 3 -10 14 -10 12 0 21 5 21 10 0 6 -6 10 -14 10 -8
0 -18 -4 -21 -10z"/>
<path d="M4798 3963 c7 -3 16 -2 19 1 4 3 -2 6 -13 5 -11 0 -14 -3 -6 -6z"/>
<path d="M4925 3970 c-3 -5 1 -10 9 -10 9 0 16 5 16 10 0 6 -4 10 -9 10 -6 0
-13 -4 -16 -10z"/>
<path d="M5016 4001 c-9 -14 4 -41 20 -41 8 0 14 10 14 25 0 25 -23 35 -34 16z"/>
<path d="M5114 3995 c-7 -18 3 -35 22 -35 8 0 14 10 14 25 0 27 -27 35 -36 10z"/>
<path d="M5550 3985 c0 -20 4 -26 18 -23 9 2 17 12 17 23 0 11 -8 21 -17 23
-14 3 -18 -3 -18 -23z"/>
<path d="M5700 4000 c0 -5 9 -10 21 -10 11 0 17 5 14 10 -3 6 -13 10 -21 10
-8 0 -14 -4 -14 -10z"/>
<path d="M5708 3963 c6 -2 18 -2 25 0 6 3 1 5 -13 5 -14 0 -19 -2 -12 -5z"/>
<path d="M5930 3985 c0 -20 4 -26 18 -23 9 2 17 12 17 23 0 11 -8 21 -17 23
-14 3 -18 -3 -18 -23z"/>
<path d="M6544 3996 c-7 -19 3 -36 22 -36 10 0 14 8 12 22 -4 26 -26 36 -34
14z"/>
<path d="M2840 3745 c0 -20 4 -26 18 -23 9 2 17 12 17 23 0 11 -8 21 -17 23
-14 3 -18 -3 -18 -23z"/>
<path d="M3165 3730 c-3 -5 1 -10 9 -10 9 0 16 5 16 10 0 6 -4 10 -9 10 -6 0
-13 -4 -16 -10z"/>
<path d="M3480 3760 c0 -5 7 -10 15 -10 8 0 15 5 15 10 0 6 -7 10 -15 10 -8 0
-15 -4 -15 -10z"/>
<path d="M3488 3723 c7 -3 16 -2 19 1 4 3 -2 6 -13 5 -11 0 -14 -3 -6 -6z"/>
<path d="M3865 3730 c-3 -5 1 -10 9 -10 9 0 16 5 16 10 0 6 -4 10 -9 10 -6 0
-13 -4 -16 -10z"/>
<path d="M4260 3745 c0 -20 4 -26 18 -23 9 2 17 12 17 23 0 11 -8 21 -17 23
-14 3 -18 -3 -18 -23z"/>
<path d="M4555 3730 c-3 -5 1 -10 9 -10 9 0 16 5 16 10 0 6 -4 10 -9 10 -6 0
-13 -4 -16 -10z"/>
<path d="M4740 3745 c0 -20 4 -26 18 -23 9 2 17 12 17 23 0 11 -8 21 -17 23
-14 3 -18 -3 -18 -23z"/>
<path d="M2960 2585 c0 -18 5 -25 20 -25 15 0 20 7 20 25 0 18 -5 25 -20 25
-15 0 -20 -7 -20 -25z"/>
<path d="M3064 2595 c-4 -9 -2 -21 4 -27 15 -15 44 -1 40 19 -4 23 -36 29 -44
8z"/>
<path d="M2677 2603 c-15 -15 -7 -43 13 -43 15 0 20 7 20 25 0 24 -18 34 -33
18z"/>
<path d="M2770 2585 c0 -18 5 -25 20 -25 15 0 20 7 20 25 0 18 -5 25 -20 25
-15 0 -20 -7 -20 -25z"/>
<path d="M2864 2595 c-4 -9 -2 -21 4 -27 15 -15 44 -1 40 19 -4 23 -36 29 -44
8z"/>
<path d="M3240 2600 c0 -5 9 -10 20 -10 11 0 20 5 20 10 0 6 -9 10 -20 10 -11
0 -20 -4 -20 -10z"/>
<path d="M2664 2349 c-10 -17 13 -36 27 -22 12 12 4 33 -11 33 -5 0 -12 -5
-16 -11z"/>
<path d="M3040 1745 c0 -18 5 -25 20 -25 15 0 20 7 20 25 0 18 -5 25 -20 25
-15 0 -20 -7 -20 -25z"/>
<path d="M2777 1734 c-4 -4 -4 -10 -1 -15 6 -10 34 0 34 12 0 10 -24 12 -33 3z"/>
<path d="M2950 1760 c0 -5 9 -10 20 -10 11 0 20 5 20 10 0 6 -9 10 -20 10 -11
0 -20 -4 -20 -10z"/>
<path d="M3274 1755 c-4 -9 -2 -21 4 -27 15 -15 44 -1 40 19 -4 23 -36 29 -44
8z"/>
<path d="M3545 1760 c-4 -6 5 -10 20 -10 15 0 24 4 20 10 -3 6 -12 10 -20 10
-8 0 -17 -4 -20 -10z"/>
<path d="M3787 1734 c-4 -4 -4 -10 -1 -15 6 -10 34 0 34 12 0 10 -24 12 -33 3z"/>
<path d="M3970 1745 c0 -18 5 -25 20 -25 15 0 20 7 20 25 0 18 -5 25 -20 25
-15 0 -20 -7 -20 -25z"/>
<path d="M2680 1275 c0 -48 2 -50 29 -35 39 20 32 80 -9 80 -17 0 -20 -7 -20
-45z"/>
<path d="M3328 1278 c-8 -21 2 -38 23 -38 14 0 19 7 19 25 0 18 -5 25 -19 25
-10 0 -21 -6 -23 -12z"/>
<path d="M4790 1265 c0 -18 5 -25 20 -25 15 0 20 7 20 25 0 18 -5 25 -20 25
-15 0 -20 -7 -20 -25z"/>
<path d="M5630 1281 c0 -46 6 -52 38 -40 19 7 23 15 20 41 -2 28 -8 34 -30 36
-26 3 -28 1 -28 -37z"/>
<path d="M5745 1301 c-11 -36 3 -63 33 -59 24 3 27 8 27 38 0 30 -3 35 -27 38
-19 2 -28 -2 -33 -17z"/>
<path d="M6225 1301 c-11 -36 3 -63 33 -59 24 3 27 8 27 38 0 30 -3 35 -27 38
-19 2 -28 -2 -33 -17z"/>
<path d="M6357 1291 c-3 -14 0 -21 9 -21 16 0 18 9 5 28 -6 10 -10 9 -14 -7z"/>
<path d="M6450 1281 c0 -46 6 -52 38 -40 19 7 23 15 20 41 -2 28 -8 34 -30 36
-26 3 -28 1 -28 -37z"/>
<path d="M2788 1278 c-8 -21 2 -38 23 -38 14 0 19 7 19 25 0 18 -5 25 -19 25
-10 0 -21 -6 -23 -12z"/>
<path d="M3153 1293 c-17 -6 -16 -50 1 -56 15 -6 36 11 36 29 0 16 -22 32 -37
27z"/>
<path d="M3235 1250 c-3 -5 3 -10 14 -10 12 0 21 5 21 10 0 6 -6 10 -14 10 -8
0 -18 -4 -21 -10z"/>
<path d="M3625 1280 c-4 -6 5 -10 20 -10 15 0 24 4 20 10 -3 6 -12 10 -20 10
-8 0 -17 -4 -20 -10z"/>
<path d="M3863 1293 c-17 -6 -16 -50 1 -56 15 -6 36 11 36 29 0 16 -22 32 -37
27z"/>
<path d="M4125 1280 c-4 -6 5 -10 20 -10 15 0 24 4 20 10 -3 6 -12 10 -20 10
-8 0 -17 -4 -20 -10z"/>
<path d="M4367 1254 c-4 -4 -4 -10 -1 -15 6 -10 34 0 34 12 0 10 -24 12 -33 3z"/>
<path d="M4548 1278 c-8 -21 2 -38 23 -38 14 0 19 7 19 25 0 18 -5 25 -19 25
-10 0 -21 -6 -23 -12z"/>
<path d="M5483 1274 c-3 -8 1 -22 9 -30 13 -13 16 -13 27 0 7 9 11 23 7 31 -7
20 -35 19 -43 -1z"/>
<path d="M6920 285 c0 -18 5 -25 19 -25 20 0 31 17 24 38 -3 6 -13 12 -24 12
-14 0 -19 -7 -19 -25z"/>
<path d="M6740 300 c0 -5 9 -10 20 -10 11 0 20 5 20 10 0 6 -9 10 -20 10 -11
0 -20 -4 -20 -10z"/>
</g>
</svg>
