<?xml version="1.0" standalone="no"?>
<!DOCTYPE svg PUBLIC "-//W3C//DTD SVG 20010904//EN"
 "http://www.w3.org/TR/2001/REC-SVG-20010904/DTD/svg10.dtd">
<svg version="1.0" xmlns="http://www.w3.org/2000/svg"
 width="959.000000pt" height="638.000000pt" viewBox="0 0 959.000000 638.000000"
 preserveAspectRatio="xMidYMid meet">

<g transform="translate(0.000000,638.000000) scale(0.100000,-0.100000)"
fill="#000000" stroke="none">
<path d="M0 3190 l0 -3190 4795 0 4795 0 0 3190 0 3190 -4795 0 -4795 0 0
-3190z m7189 3156 c8 -10 10 -772 9 -2891 -3 -2728 -4 -2878 -20 -2889 -13 -8
-23 -8 -35 0 -17 11 -18 161 -21 2889 -1 2119 1 2881 9 2891 6 8 19 14 29 14
10 0 23 -6 29 -14z m-4519 -340 c0 -9 12 -16 28 -18 24 -3 27 -7 30 -45 2 -26
-1 -43 -7 -43 -6 0 -11 16 -11 36 0 28 -3 35 -17 32 -12 -2 -19 -14 -21 -36
-6 -56 -22 -35 -22 28 0 33 4 60 10 60 6 0 10 -6 10 -14z m190 -46 c0 -33 -4
-60 -10 -60 -6 0 -10 27 -10 60 0 33 4 60 10 60 6 0 10 -27 10 -60z m40 0 c0
-33 -4 -60 -10 -60 -6 0 -10 27 -10 60 0 33 4 60 10 60 6 0 10 -27 10 -60z
m-82 18 c21 -21 13 -38 -18 -38 -16 0 -30 -5 -30 -11 0 -7 10 -9 25 -6 16 3
24 0 22 -7 -2 -6 -17 -11 -33 -11 -24 0 -30 4 -32 28 -2 16 -1 35 2 43 7 17
48 18 64 2z m174 -14 c15 -33 1 -58 -35 -62 -34 -4 -55 34 -38 67 17 30 58 28
73 -5z m-284 -277 c3 -39 -18 -61 -40 -39 -7 7 -5 10 7 9 10 -1 20 4 22 11 3
7 -1 10 -10 7 -7 -3 -20 1 -27 10 -10 12 -10 18 0 30 22 27 45 14 48 -28z m90
36 c-23 -6 -23 -11 4 -33 19 -15 20 -20 9 -34 -14 -17 -41 -22 -41 -7 0 5 7 8
16 7 25 -2 29 24 5 31 -29 8 -28 43 2 42 16 -1 18 -2 5 -6z m84 -71 c-3 -8 -7
-10 -11 -4 -3 5 -14 11 -23 13 -16 4 -15 7 5 39 l22 35 5 -35 c4 -19 4 -41 2
-48z m-202 -497 c0 -20 5 -25 25 -25 20 0 25 5 25 25 0 14 5 25 10 25 6 0 10
-27 10 -60 0 -33 -4 -60 -10 -60 -5 0 -10 14 -10 30 0 25 -4 30 -25 30 -21 0
-25 -5 -25 -30 0 -16 -4 -30 -10 -30 -6 0 -10 27 -10 60 0 33 4 60 10 60 6 0
10 -11 10 -25z m210 -35 c0 -33 -4 -60 -10 -60 -6 0 -10 27 -10 60 0 33 4 60
10 60 6 0 10 -27 10 -60z m27 -32 c-2 -18 -4 -4 -4 32 0 36 2 50 4 33 2 -18 2
-48 0 -65z m243 77 c10 -12 10 -21 1 -41 -9 -20 -9 -30 0 -40 7 -8 9 -18 5
-22 -4 -4 -17 5 -28 21 -21 29 -38 28 -38 -4 0 -10 -4 -19 -10 -19 -6 0 -10
27 -10 60 l0 60 34 0 c18 0 39 -7 46 -15z m230 5 c0 -5 -2 -10 -4 -10 -3 0 -8
5 -11 10 -3 6 -1 10 4 10 6 0 11 -4 11 -10z m130 -35 c0 -25 -4 -45 -10 -45
-5 0 -10 20 -10 45 0 25 5 45 10 45 6 0 10 -20 10 -45z m-682 3 c21 -21 13
-38 -18 -38 -16 0 -30 -4 -30 -9 0 -13 28 -22 35 -10 4 5 11 7 16 3 15 -9 0
-24 -25 -24 -28 0 -46 18 -46 45 0 25 18 45 40 45 9 0 21 -5 28 -12z m172 -2
c28 -35 -11 -93 -47 -70 -36 22 -23 84 17 84 10 0 23 -7 30 -14z m244 -2 c11
-28 7 -34 -24 -34 -16 0 -30 -4 -30 -10 0 -11 13 -14 44 -10 11 1 15 -3 12 -9
-9 -15 -49 -14 -64 1 -28 28 -7 78 34 78 12 0 25 -7 28 -16z m106 -26 c0 -22
-5 -48 -10 -59 -11 -20 -54 -26 -66 -8 -3 6 1 10 12 9 30 -3 44 -1 44 9 0 4
-11 6 -25 4 -19 -4 -27 0 -36 20 -17 38 2 67 46 65 34 -1 35 -3 35 -40z m27
-25 c-2 -16 -4 -5 -4 22 0 28 2 40 4 28 2 -13 2 -35 0 -50z m89 55 c5 -8 0 -9
-14 -6 -32 9 -38 -10 -7 -22 17 -7 25 -16 23 -28 -4 -20 -45 -29 -61 -13 -15
15 0 26 17 12 10 -8 16 -9 21 -1 3 5 -5 14 -19 20 -25 9 -34 29 -19 43 11 11
51 8 59 -5z m44 -68 c0 -5 -4 -10 -10 -10 -5 0 -10 5 -10 10 0 6 5 10 10 10 6
0 10 -4 10 -10z m-840 -190 c0 -33 -4 -60 -10 -60 -6 0 -10 27 -10 60 0 33 4
60 10 60 6 0 10 -27 10 -60z m27 28 c-3 -7 -5 -2 -5 12 0 14 2 19 5 13 2 -7 2
-19 0 -25z m693 22 c0 -5 -2 -10 -4 -10 -3 0 -8 5 -11 10 -3 6 -1 10 4 10 6 0
11 -4 11 -10z m350 -50 c0 -33 -4 -60 -10 -60 -6 0 -10 27 -10 60 0 33 4 60
10 60 6 0 10 -27 10 -60z m340 50 c0 -5 -4 -10 -10 -10 -5 0 -10 5 -10 10 0 6
5 10 10 10 6 0 10 -4 10 -10z m510 -50 c0 -33 -4 -60 -10 -60 -6 0 -10 27 -10
60 0 33 4 60 10 60 6 0 10 -27 10 -60z m410 46 c0 -8 10 -16 23 -18 18 -2 23
-10 25 -45 2 -24 -1 -43 -7 -43 -5 0 -11 16 -13 35 -4 48 -22 49 -26 3 -5 -61
-22 -44 -22 22 0 33 4 60 10 60 6 0 10 -6 10 -14z m177 -78 c-2 -18 -4 -4 -4
32 0 36 2 50 4 33 2 -18 2 -48 0 -65z m313 82 c0 -5 -2 -10 -4 -10 -3 0 -8 5
-11 10 -3 6 -1 10 4 10 6 0 11 -4 11 -10z m100 -5 c0 -9 9 -15 24 -15 13 0 27
-7 30 -16 10 -25 7 -74 -4 -74 -5 0 -10 16 -10 35 0 28 -4 35 -20 35 -16 0
-20 -7 -20 -35 0 -19 -4 -35 -10 -35 -6 0 -10 27 -10 60 0 33 4 60 10 60 6 0
10 -7 10 -15z m670 -45 c0 -33 -4 -60 -10 -60 -6 0 -10 27 -10 60 0 33 4 60
10 60 6 0 10 -27 10 -60z m-2754 35 c9 -8 11 -15 5 -15 -15 0 -14 -53 1 -68 9
-9 8 -12 -5 -12 -16 0 -25 20 -28 65 -3 48 3 55 27 30z m703 -19 c-12 -13 -12
-56 1 -56 6 0 10 -4 10 -10 0 -5 -7 -10 -15 -10 -10 0 -15 10 -15 34 0 19 -4
38 -10 41 -6 4 -5 11 2 19 9 9 16 10 24 2 8 -7 9 -15 3 -20z m247 19 c9 -8 11
-15 5 -15 -15 0 -14 -53 2 -69 10 -10 8 -12 -8 -9 -15 2 -21 14 -25 44 -9 62
-1 76 26 49z m1090 0 c9 -8 11 -15 5 -15 -15 0 -14 -53 2 -69 10 -10 8 -12 -8
-9 -15 2 -21 14 -25 44 -9 62 -1 76 26 49z m-2708 -52 c2 -26 -1 -43 -7 -43
-6 0 -11 18 -11 41 0 52 -24 48 -28 -4 -4 -48 -20 -48 -24 1 -2 20 -7 37 -13
37 -5 0 -11 -17 -13 -37 -4 -53 -22 -47 -22 7 l0 45 58 -2 57 -3 3 -42z m95
15 l14 -33 7 33 c4 17 12 32 17 32 12 0 12 -1 -12 -65 -12 -31 -27 -55 -35
-55 -11 0 -12 4 -2 19 9 14 8 27 -5 60 -9 22 -12 41 -7 41 5 0 16 -15 23 -32z
m127 18 c28 -35 -11 -93 -47 -70 -36 22 -23 84 17 84 10 0 23 -7 30 -14z m52
-23 c2 -21 8 -38 13 -38 6 0 11 17 13 38 5 53 22 46 22 -9 0 -45 0 -45 -32
-42 -31 3 -33 6 -36 46 -2 23 1 42 7 42 5 0 11 -17 13 -37z m106 26 c-12 -6
-18 -22 -18 -44 0 -19 -4 -35 -10 -35 -5 0 -10 20 -10 45 0 42 2 45 28 45 23
-1 24 -2 10 -11z m88 -14 c3 -14 10 -25 14 -25 4 0 11 11 14 25 4 14 11 25 16
25 13 0 13 -3 -6 -50 -9 -22 -20 -40 -24 -40 -4 0 -15 18 -24 40 -19 47 -19
50 -6 50 5 0 12 -11 16 -25z m81 -42 c-2 -16 -4 -5 -4 22 0 28 2 40 4 28 2
-13 2 -35 0 -50z m61 53 c-11 -8 -18 -26 -18 -45 0 -17 -4 -31 -10 -31 -5 0
-10 20 -10 45 0 43 2 45 28 45 24 -1 25 -2 10 -14z m125 -54 c14 -3 17 4 17
32 0 20 5 36 10 36 6 0 10 -21 10 -46 0 -45 0 -45 -32 -42 -32 3 -33 5 -35 48
-1 41 -1 42 5 10 5 -22 14 -36 25 -38z m125 20 l3 -43 -33 3 c-43 4 -51 34
-13 48 31 12 25 31 -7 22 -15 -4 -19 -2 -14 7 5 7 20 11 34 9 24 -3 27 -8 30
-46z m170 0 l3 -43 -33 3 c-43 4 -51 34 -13 48 14 5 23 15 20 20 -5 8 -11 8
-20 0 -8 -6 -16 -7 -19 -2 -9 14 6 23 34 20 22 -3 25 -8 28 -46z m88 36 c5 -8
0 -9 -14 -6 -32 9 -38 -10 -7 -22 17 -7 25 -16 23 -28 -4 -20 -45 -29 -61 -13
-15 15 0 26 17 12 10 -8 16 -9 21 -1 3 5 -5 14 -19 20 -25 9 -34 29 -19 43 11
11 51 8 59 -5z m80 0 c5 -8 0 -9 -14 -6 -32 9 -38 -10 -7 -22 30 -11 31 -43 2
-48 -25 -5 -50 6 -42 18 5 8 11 8 19 1 7 -6 16 -8 19 -4 12 11 8 23 -7 23 -22
0 -38 24 -24 38 15 15 45 15 54 0z m44 -33 c0 -25 -4 -45 -10 -45 -5 0 -10 20
-10 45 0 25 5 45 10 45 6 0 10 -20 10 -45z m76 33 c5 -8 2 -9 -9 -5 -9 3 -19
2 -23 -4 -3 -6 3 -13 14 -16 26 -6 35 -28 17 -43 -18 -15 -47 -9 -53 10 -5 13
-3 13 12 1 12 -10 20 -11 28 -3 8 8 4 14 -15 21 -26 10 -35 30 -20 44 10 11
41 8 49 -5z m152 -36 l3 -43 -33 3 c-43 4 -51 34 -13 48 31 12 25 31 -7 22
-15 -4 -19 -2 -14 7 5 7 20 11 34 9 24 -3 27 -8 30 -46z m89 -2 l1 -45 -7 38
c-4 20 -11 40 -14 43 -13 13 -27 -9 -27 -42 0 -19 -4 -34 -10 -34 -5 0 -10 21
-10 46 0 45 0 45 33 42 31 -3 32 -5 34 -48z m328 39 c10 -15 -4 -24 -17 -11
-13 13 -38 -2 -38 -22 0 -22 22 -37 37 -24 15 12 28 5 18 -11 -3 -6 -17 -11
-31 -11 -32 0 -51 38 -35 69 12 22 55 29 66 10z m89 -5 c3 -9 6 -29 6 -45 0
-26 -3 -29 -34 -29 -49 0 -59 42 -12 51 26 5 19 25 -7 21 -12 -2 -17 1 -13 7
11 17 53 13 60 -5z m94 -31 c2 -24 -1 -43 -7 -43 -5 0 -11 17 -13 38 -2 20 -7
37 -13 37 -5 0 -11 -17 -13 -37 -5 -54 -22 -47 -22 8 0 45 0 45 33 42 30 -3
32 -6 35 -45z m232 28 c15 -28 13 -31 -20 -31 -16 0 -30 -5 -30 -11 0 -7 10
-9 25 -6 16 3 24 0 22 -7 -11 -33 -67 -10 -67 28 0 44 50 63 70 27z m135 -26
c0 -37 -2 -40 -27 -40 -20 1 -28 -4 -28 -17 0 -10 -4 -18 -10 -18 -6 0 -10 27
-10 61 l0 60 38 -3 c36 -3 37 -4 37 -43z m90 18 l7 -28 10 28 c5 15 13 27 18
27 5 0 13 -12 18 -27 l10 -28 7 28 c4 15 11 27 16 27 12 0 11 -5 -3 -52 -12
-42 -29 -45 -39 -7 l-6 24 -11 -27 c-6 -16 -16 -28 -21 -28 -5 0 -12 12 -15
28 -4 15 -9 35 -12 45 -3 9 -1 17 4 17 6 0 13 -12 17 -27z m122 -40 c-2 -16
-4 -5 -4 22 0 28 2 40 4 28 2 -13 2 -35 0 -50z m301 10 c-3 -57 -3 -58 -35
-61 -20 -2 -33 1 -33 8 0 7 8 9 19 5 11 -3 22 -1 26 5 3 5 -2 10 -12 10 -25 0
-43 19 -43 45 0 29 19 45 52 45 29 0 29 0 26 -57z m92 38 c15 -28 13 -31 -20
-31 -16 0 -30 -5 -30 -11 0 -7 10 -9 25 -6 16 3 24 0 22 -7 -11 -33 -67 -10
-67 28 0 44 50 63 70 27z m88 7 c14 -14 16 -78 3 -78 -6 0 -11 17 -13 38 -2
25 -8 37 -18 37 -10 0 -16 -12 -18 -37 -4 -53 -22 -47 -22 7 0 43 1 45 28 45
15 0 33 -5 40 -12z m103 -15 c8 -21 5 -23 -28 -23 -30 0 -34 -2 -23 -15 9 -11
17 -12 32 -4 16 9 19 8 16 -3 -3 -7 -17 -14 -31 -16 -35 -4 -55 33 -37 67 15
29 60 25 71 -6z m57 16 c-12 -6 -18 -22 -18 -44 0 -19 -4 -35 -10 -35 -5 0
-10 20 -10 45 0 42 2 45 28 45 23 -1 24 -2 10 -11z m90 -37 l3 -43 -33 3 c-43
4 -51 34 -13 48 31 12 25 31 -7 22 -15 -4 -19 -2 -14 7 5 7 20 11 34 9 24 -3
27 -8 30 -46z m-1715 -52 c-3 -11 -10 -20 -15 -20 -6 0 -7 7 -4 16 3 9 6 20 6
25 0 6 4 8 9 5 5 -3 7 -15 4 -26z m-1493 -120 c0 -5 -4 -10 -10 -10 -5 0 -10
5 -10 10 0 6 5 10 10 10 6 0 10 -4 10 -10z m410 -50 c0 -33 -4 -60 -10 -60 -6
0 -10 27 -10 60 0 33 4 60 10 60 6 0 10 -27 10 -60z m340 2 l0 -59 -35 -1
c-28 -1 -38 3 -46 22 -16 34 5 70 37 63 18 -3 24 0 24 14 0 11 5 19 10 19 6 0
10 -26 10 -58z m280 -2 c0 -33 -4 -60 -10 -60 -6 0 -10 27 -10 60 0 33 4 60
10 60 6 0 10 -27 10 -60z m555 50 c-3 -5 -13 -10 -21 -10 -10 0 -14 -13 -14
-50 0 -27 -4 -50 -10 -50 -5 0 -10 23 -10 50 0 37 -4 50 -14 50 -8 0 -18 5
-21 10 -4 6 13 10 45 10 32 0 49 -4 45 -10z m345 -10 c0 -11 -4 -20 -10 -20
-5 0 -10 9 -10 20 0 11 5 20 10 20 6 0 10 -9 10 -20z m40 -40 c0 -33 -4 -60
-10 -60 -6 0 -10 27 -10 60 0 33 4 60 10 60 6 0 10 -27 10 -60z m320 40 c0
-11 -4 -20 -10 -20 -5 0 -10 9 -10 20 0 11 5 20 10 20 6 0 10 -9 10 -20z m300
10 c0 -5 -6 -10 -12 -10 -9 0 -8 -4 2 -10 10 -6 11 -10 3 -10 -8 0 -13 -15
-13 -40 0 -22 -4 -40 -9 -40 -14 0 -18 81 -6 103 11 18 35 24 35 7z m30 0 c0
-5 -2 -10 -4 -10 -3 0 -8 5 -11 10 -3 6 -1 10 4 10 6 0 11 -4 11 -10z m200
-48 l0 -59 -35 -1 c-28 -1 -38 3 -46 22 -16 34 5 70 37 63 18 -3 24 0 24 14 0
11 5 19 10 19 6 0 10 -26 10 -58z m760 13 c0 -25 -4 -45 -10 -45 -5 0 -10 20
-10 45 0 25 5 45 10 45 6 0 10 -20 10 -45z m-3034 20 c9 -8 11 -15 5 -15 -15
0 -14 -53 2 -69 10 -10 8 -12 -8 -9 -15 2 -21 14 -25 44 -9 62 -1 76 26 49z
m293 -19 c-12 -13 -12 -56 1 -56 6 0 10 -4 10 -10 0 -5 -7 -10 -15 -10 -10 0
-15 10 -15 34 0 19 -4 38 -10 41 -6 4 -5 11 2 19 9 9 16 10 24 2 8 -7 9 -15 3
-20z m1540 0 c-12 -13 -12 -56 1 -56 6 0 10 -4 10 -10 0 -5 -7 -10 -15 -10
-10 0 -15 10 -15 34 0 19 -4 38 -10 41 -6 4 -5 11 2 19 9 9 16 10 24 2 8 -7 9
-15 3 -20z m720 0 c-12 -13 -12 -56 1 -56 6 0 10 -4 10 -10 0 -5 -7 -10 -15
-10 -10 0 -15 10 -15 34 0 19 -4 38 -10 41 -6 4 -5 11 2 19 9 9 16 10 24 2 8
-7 9 -15 3 -20z m-3390 -48 c-1 -35 -3 -55 -6 -45 -3 10 -14 17 -27 17 -28 0
-46 18 -46 45 0 29 19 45 52 45 28 0 28 0 27 -62z m41 29 c0 -38 6 -48 26 -40
8 3 14 19 14 39 0 19 5 34 10 34 6 0 10 -20 10 -43 0 -43 -1 -44 -32 -45 -18
0 -36 5 -40 11 -11 18 -10 77 2 77 6 0 10 -15 10 -33z m144 17 c11 -28 7 -34
-24 -34 -16 0 -30 -4 -30 -10 0 -11 13 -14 44 -10 11 1 15 -3 12 -9 -9 -15
-49 -14 -64 1 -28 28 -7 78 34 78 12 0 25 -7 28 -16z m64 5 c-12 -6 -18 -22
-18 -44 0 -19 -4 -35 -10 -35 -5 0 -10 20 -10 45 0 42 2 45 28 45 23 -1 24 -2
10 -11z m42 -34 c0 -25 -4 -45 -10 -45 -5 0 -10 20 -10 45 0 25 5 45 10 45 6
0 10 -20 10 -45z m84 29 c11 -28 7 -34 -24 -34 -16 0 -30 -4 -30 -10 0 -11 13
-14 44 -10 11 1 15 -3 12 -9 -9 -15 -49 -14 -64 1 -28 28 -7 78 34 78 12 0 25
-7 28 -16z m86 5 c0 -6 -7 -9 -15 -6 -8 4 -17 2 -20 -3 -4 -6 6 -15 20 -20 37
-14 30 -45 -9 -45 -16 0 -31 6 -34 13 -3 11 0 12 16 3 14 -7 23 -8 27 -1 3 6
-5 14 -19 20 -25 9 -34 29 -19 43 11 11 53 8 53 -4z m108 0 c-12 -6 -18 -22
-18 -44 0 -19 -4 -35 -10 -35 -5 0 -10 20 -10 45 0 42 2 45 28 45 23 -1 24 -2
10 -11z m86 -5 c11 -28 7 -34 -24 -34 -16 0 -30 -4 -30 -10 0 -11 13 -14 44
-10 11 1 15 -3 12 -9 -9 -15 -49 -14 -64 1 -28 28 -7 78 34 78 12 0 25 -7 28
-16z m124 4 c7 -7 12 -27 12 -46 0 -32 -1 -33 -37 -30 -50 4 -58 34 -14 49 17
6 28 15 25 20 -3 5 -13 5 -25 -1 -10 -6 -19 -7 -19 -2 0 23 38 30 58 10z m150
0 c21 -21 13 -38 -18 -38 -16 0 -30 -4 -30 -9 0 -13 28 -22 35 -10 4 5 11 7
16 3 15 -9 0 -24 -25 -24 -28 0 -46 18 -46 45 0 25 18 45 40 45 9 0 21 -5 28
-12z m303 -9 c16 -31 -3 -69 -36 -69 -17 0 -29 8 -36 24 -15 32 4 66 36 66 15
0 29 -9 36 -21z m180 0 c16 -31 -3 -69 -36 -69 -17 0 -29 8 -36 24 -15 32 4
66 36 66 15 0 29 -9 36 -21z m87 -27 l3 -43 -33 3 c-43 4 -51 34 -13 48 14 5
23 15 20 20 -5 8 -11 8 -20 0 -8 -6 -16 -7 -19 -2 -9 14 6 23 34 20 22 -3 25
-8 28 -46z m90 36 c14 -14 16 -78 3 -78 -6 0 -11 17 -13 38 -2 25 -8 37 -18
37 -10 0 -16 -12 -18 -37 -4 -53 -22 -47 -22 7 0 43 1 45 28 45 15 0 33 -5 40
-12z m88 0 c5 -8 0 -9 -14 -6 -32 9 -38 -10 -7 -22 30 -11 31 -43 2 -48 -25
-5 -50 6 -42 18 5 8 11 8 19 1 7 -6 16 -8 19 -4 12 11 8 23 -7 23 -22 0 -38
24 -24 38 15 15 45 15 54 0z m230 -20 l7 -33 14 33 c22 54 34 36 12 -20 -26
-67 -27 -68 -47 -68 -16 1 -16 2 1 14 16 12 16 17 2 56 -18 50 -18 50 -6 50 5
0 13 -15 17 -32z m132 20 c27 -27 7 -78 -30 -78 -10 0 -18 -7 -18 -15 0 -8 -4
-15 -10 -15 -6 0 -10 27 -10 60 0 59 0 60 28 60 15 0 33 -5 40 -12z m103 -15
c8 -21 5 -23 -28 -23 -30 0 -34 -2 -23 -15 9 -11 17 -12 32 -4 16 9 19 8 16
-3 -3 -7 -17 -14 -31 -16 -35 -4 -55 33 -37 67 15 29 60 25 71 -6z m209 13
c28 -35 -11 -93 -47 -70 -36 22 -23 84 17 84 10 0 23 -7 30 -14z m88 2 c7 -7
12 -27 12 -46 0 -32 -1 -33 -37 -30 -50 4 -58 34 -14 49 17 6 28 15 25 20 -3
5 -13 5 -25 -1 -10 -6 -19 -7 -19 -2 0 23 38 30 58 10z m100 -35 c2 -26 -1
-43 -7 -43 -6 0 -11 15 -11 34 0 60 -34 53 -43 -9 -3 -22 -4 -18 -6 16 -1 46
-1 46 32 45 30 -1 32 -3 35 -43z m233 26 c16 -31 -3 -69 -36 -69 -17 0 -29 8
-36 24 -15 32 4 66 36 66 15 0 29 -9 36 -21z m136 -46 c-2 -16 -4 -5 -4 22 0
28 2 40 4 28 2 -13 2 -35 0 -50z m91 55 c14 -14 16 -78 3 -78 -6 0 -11 17 -13
38 -2 25 -8 37 -18 37 -10 0 -16 -12 -18 -37 -4 -53 -22 -47 -22 7 0 43 1 45
28 45 15 0 33 -5 40 -12z m242 -2 c28 -35 -11 -93 -47 -70 -36 22 -23 84 17
84 10 0 23 -7 30 -14z m63 -54 c14 -3 17 4 17 32 0 20 5 36 10 36 6 0 10 -21
10 -46 0 -45 0 -45 -32 -42 -32 3 -33 5 -35 48 -1 41 -1 42 5 10 5 -22 14 -36
25 -38z m275 21 c2 -26 -1 -43 -7 -43 -6 0 -11 18 -11 41 0 52 -24 48 -28 -4
-4 -48 -20 -48 -24 1 -2 20 -7 37 -13 37 -5 0 -11 -17 -13 -37 -4 -53 -22 -47
-22 7 l0 45 58 -2 57 -3 3 -42z m92 33 c28 -35 -11 -93 -47 -70 -36 22 -23 84
17 84 10 0 23 -7 30 -14z m68 3 c-12 -6 -18 -22 -18 -44 0 -19 -4 -35 -10 -35
-5 0 -10 20 -10 45 0 42 2 45 28 45 23 -1 24 -2 10 -11z m80 -1 c21 -21 13
-38 -18 -38 -16 0 -30 -4 -30 -9 0 -13 28 -22 35 -10 4 5 11 7 16 3 15 -9 0
-24 -25 -24 -28 0 -46 18 -46 45 0 25 18 45 40 45 9 0 21 -5 28 -12z m-2098
-68 c0 -5 -4 -10 -10 -10 -5 0 -10 5 -10 10 0 6 5 10 10 10 6 0 10 -4 10 -10z
m2150 0 c0 -5 -4 -10 -10 -10 -5 0 -10 5 -10 10 0 6 5 10 10 10 6 0 10 -4 10
-10z m-3872 -384 c-13 -9 -18 -27 -18 -60 0 -25 -4 -46 -10 -46 -5 0 -10 23
-10 50 0 37 -4 50 -14 50 -8 0 -18 5 -21 10 -4 6 12 10 42 10 42 -1 46 -2 31
-14z m362 -6 c0 -11 -4 -20 -10 -20 -5 0 -10 9 -10 20 0 11 5 20 10 20 6 0 10
-9 10 -20z m40 -40 c0 -33 -4 -60 -10 -60 -6 0 -10 27 -10 60 0 33 4 60 10 60
6 0 10 -27 10 -60z m470 40 c0 -11 -4 -20 -10 -20 -5 0 -10 9 -10 20 0 11 5
20 10 20 6 0 10 -9 10 -20z m650 10 c0 -5 -4 -10 -10 -10 -5 0 -10 5 -10 10 0
6 5 10 10 10 6 0 10 -4 10 -10z m570 -50 c0 -59 0 -60 -28 -60 -33 0 -52 16
-52 45 0 27 18 45 47 45 14 0 23 6 23 15 0 8 2 15 5 15 3 0 5 -27 5 -60z m40
50 c0 -5 -2 -10 -4 -10 -3 0 -8 5 -11 10 -3 6 -1 10 4 10 6 0 11 -4 11 -10z
m800 -5 c-10 -12 -10 -15 1 -16 10 0 11 -2 2 -6 -8 -2 -13 -22 -13 -44 0 -54
-17 -49 -22 7 -4 50 5 74 29 74 13 0 13 -3 3 -15z m-2104 -10 c9 -8 11 -15 5
-15 -15 0 -14 -53 1 -68 9 -9 8 -12 -5 -12 -16 0 -25 20 -28 65 -3 48 3 55 27
30z m230 0 c9 -8 11 -15 5 -15 -15 0 -14 -53 2 -69 10 -10 8 -12 -8 -9 -15 2
-21 14 -25 44 -9 62 -1 76 26 49z m420 0 c9 -8 11 -15 5 -15 -15 0 -14 -53 2
-69 10 -10 8 -12 -8 -9 -15 2 -21 14 -25 44 -9 62 -1 76 26 49z m370 0 c9 -8
11 -15 5 -15 -15 0 -14 -53 1 -68 9 -9 8 -12 -5 -12 -16 0 -25 20 -28 65 -3
48 3 55 27 30z m973 -19 c-12 -13 -12 -56 1 -56 6 0 10 -4 10 -10 0 -5 -7 -10
-15 -10 -10 0 -15 10 -15 34 0 19 -4 38 -10 41 -6 4 -5 11 2 19 9 9 16 10 24
2 8 -7 9 -15 3 -20z m-2776 -18 l14 -33 7 33 c4 17 12 32 17 32 12 0 12 -1
-12 -65 -12 -31 -27 -55 -35 -55 -11 0 -12 4 -2 19 9 14 8 27 -5 60 -9 22 -12
41 -7 41 5 0 16 -15 23 -32z m135 20 c27 -27 7 -78 -30 -78 -10 0 -18 -7 -18
-15 0 -8 -4 -15 -10 -15 -6 0 -10 27 -10 60 0 59 0 60 28 60 15 0 33 -5 40
-12z m96 -4 c11 -28 7 -34 -24 -34 -16 0 -30 -4 -30 -10 0 -11 13 -14 44 -10
11 1 15 -3 12 -9 -9 -15 -49 -14 -64 1 -28 28 -7 78 34 78 12 0 25 -7 28 -16z
m215 -6 c12 -31 -2 -62 -28 -66 -28 -4 -51 14 -51 42 0 47 63 66 79 24z m99
-35 c-3 -57 -3 -58 -35 -61 -20 -2 -33 1 -33 8 0 7 8 9 19 5 11 -3 22 -1 26 5
3 5 -2 10 -12 10 -25 0 -43 19 -43 45 0 29 19 45 52 45 29 0 29 0 26 -57z m92
43 c28 -35 -11 -93 -47 -70 -36 22 -23 84 17 84 10 0 23 -7 30 -14z m63 -54
c14 -3 17 4 17 32 0 20 5 36 10 36 6 0 10 -21 10 -46 0 -45 0 -45 -32 -42 -32
3 -33 5 -35 48 -1 41 -1 42 5 10 5 -22 14 -36 25 -38z m255 56 c7 -7 12 -27
12 -46 0 -32 -1 -33 -37 -30 -50 4 -58 34 -14 49 17 6 28 15 25 20 -3 5 -13 5
-25 -1 -10 -6 -19 -7 -19 -2 0 23 38 30 58 10z m200 -36 l3 -43 -33 3 c-43 4
-51 34 -13 48 31 12 25 31 -7 22 -15 -4 -19 -2 -14 7 5 7 20 11 34 9 24 -3 27
-8 30 -46z m89 -2 l1 -45 -7 38 c-4 20 -11 40 -14 43 -13 13 -27 -9 -27 -42 0
-19 -4 -34 -10 -34 -5 0 -10 21 -10 46 0 45 0 45 33 42 31 -3 32 -5 34 -48z
m45 18 l12 -33 14 35 c22 53 25 20 4 -36 -12 -30 -27 -50 -38 -53 -16 -3 -17
-1 -5 13 11 13 12 24 2 55 -12 43 -13 51 -5 51 3 0 10 -15 16 -32z m188 -13
c0 -25 -4 -45 -10 -45 -5 0 -10 20 -10 45 0 25 5 45 10 45 6 0 10 -20 10 -45z
m138 -2 c2 -24 -1 -43 -7 -43 -5 0 -11 16 -13 35 -2 20 -7 35 -13 35 -5 0 -11
-15 -13 -35 -4 -46 -20 -45 -24 3 -2 20 -7 37 -13 37 -5 0 -11 -17 -13 -37 -4
-53 -22 -47 -22 7 l0 45 58 -2 57 -3 3 -42z m92 28 c15 -28 13 -31 -20 -31
-16 0 -30 -5 -30 -11 0 -7 10 -9 25 -6 16 3 24 0 22 -7 -11 -33 -67 -10 -67
28 0 44 50 63 70 27z m199 -3 c12 -31 -2 -62 -28 -66 -28 -4 -51 14 -51 42 0
47 63 66 79 24z m178 -45 c-2 -16 -4 -5 -4 22 0 28 2 40 4 28 2 -13 2 -35 0
-50z m89 55 c5 -8 0 -9 -14 -6 -32 9 -38 -10 -7 -22 17 -7 25 -16 23 -28 -4
-20 -45 -29 -61 -13 -15 15 0 26 17 12 10 -8 16 -9 21 -1 3 5 -5 14 -19 20
-25 9 -34 29 -19 43 11 11 51 8 59 -5z m89 1 c10 -15 -3 -25 -16 -12 -17 17
-39 4 -39 -22 0 -26 22 -39 39 -22 13 13 26 3 16 -12 -8 -15 -48 -14 -63 1
-29 29 -7 78 34 78 13 0 26 -5 29 -11z m94 -11 c12 -31 -2 -62 -28 -66 -28 -4
-51 14 -51 42 0 47 63 66 79 24z m88 -28 l1 -45 -7 38 c-4 20 -11 40 -14 43
-13 13 -27 -9 -27 -42 0 -19 -4 -34 -10 -34 -5 0 -10 21 -10 46 0 45 0 45 33
42 31 -3 32 -5 34 -48z m101 3 c2 -26 -1 -43 -7 -43 -6 0 -11 15 -11 34 0 60
-34 53 -43 -9 -3 -22 -4 -18 -6 16 -1 46 -1 46 32 45 30 -1 32 -3 35 -43z m93
20 c8 -21 5 -23 -28 -23 -30 0 -34 -2 -23 -15 9 -11 17 -12 32 -4 16 9 19 8
16 -3 -3 -7 -17 -14 -31 -16 -35 -4 -55 33 -37 67 15 29 60 25 71 -6z m89 12
c11 -13 8 -14 -19 -9 -29 6 -31 4 -31 -21 0 -25 2 -27 31 -21 27 5 30 4 19 -9
-25 -30 -70 -11 -70 30 0 41 45 60 70 30z m218 1 c-11 -8 -18 -26 -18 -45 0
-17 -4 -31 -10 -31 -5 0 -10 20 -10 45 0 43 2 45 28 45 24 -1 25 -2 10 -14z
m93 -7 c16 -31 -3 -69 -36 -69 -17 0 -29 8 -36 24 -15 32 4 66 36 66 15 0 29
-9 36 -21z m135 -29 l2 -45 -7 39 c-7 45 -28 59 -35 24 -3 -13 -7 -32 -9 -43
-3 -11 -5 -3 -6 17 -1 35 -15 57 -28 44 -3 -3 -9 -23 -13 -43 l-8 -38 -1 47
-1 48 53 -3 52 -2 1 -45z m97 18 l14 -33 7 33 c4 17 12 32 17 32 12 0 12 -1
-12 -65 -12 -31 -27 -55 -35 -55 -11 0 -12 4 -2 19 9 14 8 27 -5 60 -9 22 -12
41 -7 41 5 0 16 -15 23 -32z m136 10 c12 -31 -2 -62 -28 -66 -28 -4 -51 14
-51 42 0 47 63 66 79 24z m41 -12 c0 -60 34 -53 43 9 3 21 4 16 6 -18 l1 -48
-32 3 c-31 3 -33 6 -36 46 -2 25 1 42 7 42 6 0 11 -15 11 -34z m108 20 c-11
-8 -18 -26 -18 -45 0 -17 -4 -31 -10 -31 -5 0 -10 20 -10 45 0 43 2 45 28 45
24 -1 25 -2 10 -14z m-3092 -221 c9 -8 11 -15 5 -15 -15 0 -14 -53 2 -69 10
-10 8 -12 -8 -9 -15 2 -21 14 -25 44 -9 62 -1 76 26 49z m-518 -17 c7 -7 12
-27 12 -46 0 -32 -1 -33 -37 -30 -50 4 -58 34 -14 49 17 6 28 15 25 20 -3 5
-13 5 -25 -1 -10 -6 -19 -7 -19 -2 0 23 38 30 58 10z m97 1 c10 -15 -3 -25
-16 -12 -17 17 -39 4 -39 -22 0 -26 22 -39 39 -22 13 13 26 3 16 -12 -8 -15
-48 -14 -63 1 -29 29 -7 78 34 78 13 0 26 -5 29 -11z m90 0 c10 -15 -3 -25
-16 -12 -17 17 -39 4 -39 -22 0 -26 22 -39 39 -22 13 13 26 3 16 -12 -8 -15
-48 -14 -63 1 -29 29 -7 78 34 78 13 0 26 -5 29 -11z m94 -11 c12 -31 -2 -62
-28 -66 -28 -4 -51 14 -51 42 0 47 63 66 79 24z m41 -12 c0 -60 34 -53 43 9 3
21 4 16 6 -18 l1 -48 -32 3 c-31 3 -33 6 -36 46 -2 25 1 42 7 42 6 0 11 -15
11 -34z m138 22 c14 -14 16 -78 3 -78 -6 0 -11 17 -13 38 -2 25 -8 37 -18 37
-10 0 -16 -12 -18 -37 -4 -53 -22 -47 -22 7 0 43 1 45 28 45 15 0 33 -5 40
-12z m112 -68 c0 -5 -4 -10 -10 -10 -5 0 -10 5 -10 10 0 6 5 10 10 10 6 0 10
-4 10 -10z m-584 -220 l2 -35 -5 33 c-4 28 -8 33 -24 29 -11 -3 -16 -1 -13 4
14 23 39 3 40 -31z m104 36 c0 -2 -9 -6 -20 -9 -11 -3 -20 -1 -20 4 0 5 9 9
20 9 11 0 20 -2 20 -4z m72 -74 c-3 -8 -7 -10 -11 -4 -3 5 -14 11 -24 13 -16
4 -17 6 -2 24 12 16 14 17 9 3 -4 -11 -1 -18 6 -18 6 0 11 10 10 23 -4 39 2
43 9 7 4 -19 5 -41 3 -48z m-198 19 c-2 -3 -12 3 -22 13 -16 17 -16 18 5 5 12
-7 20 -15 17 -18z m126 13 c11 -12 10 -18 -3 -32 -12 -12 -20 -13 -28 -5 -8 8
-6 11 6 10 27 -3 30 22 3 32 -15 6 -17 10 -7 10 9 1 22 -6 29 -15z m-125 -42
c-3 -3 -11 0 -18 7 -9 10 -8 11 6 5 10 -3 15 -9 12 -12z m-15 -522 c0 -33 -4
-60 -10 -60 -6 0 -10 27 -10 60 0 33 4 60 10 60 6 0 10 -27 10 -60z m90 16
c28 -35 -11 -93 -47 -70 -36 22 -23 84 17 84 10 0 23 -7 30 -14z m98 -33 l3
-43 -35 0 c-20 0 -36 2 -36 4 0 2 -3 11 -6 20 -4 10 4 20 28 31 31 14 31 15 6
11 -16 -2 -28 0 -28 4 0 14 15 21 40 18 22 -3 25 -8 28 -45z m90 0 c2 -24 -1
-43 -7 -43 -5 0 -11 17 -13 38 -2 20 -7 37 -13 37 -5 0 -11 -17 -13 -37 -5
-54 -22 -47 -22 8 0 45 0 45 33 42 30 -3 32 -6 35 -45z m-240 -256 c3 -39 -18
-61 -40 -39 -7 7 -5 10 7 9 10 -1 20 4 22 11 3 7 -1 10 -10 7 -7 -3 -20 1 -27
10 -10 12 -10 18 0 30 22 27 45 14 48 -28z m90 36 c-23 -6 -23 -11 4 -33 19
-15 20 -20 9 -34 -14 -17 -41 -22 -41 -7 0 5 7 8 16 7 25 -2 29 24 5 31 -29 8
-28 43 2 42 16 -1 18 -2 5 -6z m84 -71 c-3 -8 -7 -10 -11 -4 -3 5 -14 11 -23
13 -16 4 -15 7 5 39 l22 35 5 -35 c4 -19 4 -41 2 -48z m-144 -484 c7 -7 12
-16 12 -22 0 -6 -5 -5 -12 2 -33 33 -78 -1 -63 -48 7 -22 44 -27 63 -8 7 7 12
8 12 2 0 -17 -23 -34 -46 -34 -24 0 -54 34 -54 60 0 45 59 77 88 48z m52 -48
c0 -33 -4 -60 -10 -60 -6 0 -10 27 -10 60 0 33 4 60 10 60 6 0 10 -27 10 -60z
m40 50 c0 -5 -4 -10 -10 -10 -5 0 -10 5 -10 10 0 6 5 10 10 10 6 0 10 -4 10
-10z m130 -22 c0 -29 1 -30 18 -15 26 23 39 21 18 -2 -17 -18 -17 -21 -1 -45
21 -32 2 -35 -19 -4 l-16 22 0 -22 c0 -12 -4 -22 -10 -22 -6 0 -10 27 -10 60
0 33 4 60 10 60 6 0 10 -14 10 -32z m420 17 c0 -9 9 -15 24 -15 13 0 27 -7 30
-16 10 -25 7 -74 -4 -74 -5 0 -10 16 -10 35 0 28 -4 35 -20 35 -16 0 -20 -7
-20 -35 0 -19 -4 -35 -10 -35 -6 0 -10 27 -10 60 0 33 4 60 10 60 6 0 10 -7
10 -15z m290 -45 c0 -59 0 -60 -28 -60 -33 0 -52 16 -52 45 0 27 18 45 47 45
14 0 23 6 23 15 0 8 2 15 5 15 3 0 5 -27 5 -60z m220 50 c0 -5 -4 -10 -10 -10
-5 0 -10 5 -10 10 0 6 5 10 10 10 6 0 10 -4 10 -10z m250 -51 l0 -60 -37 3
c-37 3 -38 4 -38 43 0 36 3 40 28 43 15 2 27 9 27 18 0 8 5 14 10 14 6 0 10
-27 10 -61z m330 51 c0 -5 -2 -10 -4 -10 -3 0 -8 5 -11 10 -3 6 -1 10 4 10 6
0 11 -4 11 -10z m280 -5 c0 -8 8 -15 18 -15 24 0 42 -19 42 -45 0 -29 -19 -45
-52 -45 -28 0 -28 1 -28 60 0 33 4 60 10 60 6 0 10 -7 10 -15z m190 -45 c0
-33 -4 -60 -10 -60 -6 0 -10 27 -10 60 0 33 4 60 10 60 6 0 10 -27 10 -60z
m-1604 35 c9 -8 11 -15 5 -15 -15 0 -14 -53 2 -69 10 -10 8 -12 -8 -9 -15 2
-21 14 -25 44 -9 62 -1 76 26 49z m1090 0 c9 -8 11 -15 5 -15 -15 0 -14 -53 1
-68 9 -9 8 -12 -5 -12 -16 0 -25 20 -28 65 -3 48 3 55 27 30z m-1596 -50 c0
-25 -4 -45 -10 -45 -5 0 -10 20 -10 45 0 25 5 45 10 45 6 0 10 -20 10 -45z
m85 34 c10 -15 -4 -24 -17 -11 -13 13 -38 -2 -38 -22 0 -22 22 -37 37 -24 15
12 28 5 18 -11 -3 -6 -17 -11 -31 -11 -32 0 -51 38 -35 69 12 22 55 29 66 10z
m226 -10 c16 -31 -3 -69 -36 -69 -17 0 -29 8 -36 24 -15 32 4 66 36 66 15 0
29 -9 36 -21z m97 -26 c2 -26 -1 -43 -7 -43 -6 0 -11 15 -11 34 0 60 -34 53
-43 -9 -3 -22 -4 -18 -6 16 -1 46 -1 46 32 45 30 -1 32 -3 35 -43z m293 20 c8
-21 5 -23 -28 -23 -30 0 -34 -2 -23 -15 9 -11 17 -12 32 -4 16 9 19 8 16 -3
-3 -7 -17 -14 -31 -16 -35 -4 -55 33 -37 67 15 29 60 25 71 -6z m233 11 c11
-28 7 -34 -24 -34 -16 0 -30 -4 -30 -10 0 -11 13 -14 44 -10 11 1 15 -3 12 -9
-9 -15 -49 -14 -64 1 -28 28 -7 78 34 78 12 0 25 -7 28 -16z m82 4 c5 -8 2 -9
-9 -5 -9 3 -19 2 -23 -4 -3 -6 3 -13 14 -16 26 -6 35 -28 17 -43 -18 -15 -47
-9 -53 10 -5 13 -3 13 12 1 12 -10 20 -11 28 -3 8 8 4 14 -15 21 -26 10 -35
30 -20 44 10 11 41 8 49 -5z m44 -33 c0 -25 -4 -45 -10 -45 -5 0 -10 20 -10
45 0 25 5 45 10 45 6 0 10 -20 10 -45z m58 34 c-12 -6 -18 -22 -18 -44 0 -19
-4 -35 -10 -35 -5 0 -10 20 -10 45 0 42 2 45 28 45 23 -1 24 -2 10 -11z m93
-16 c8 -21 5 -23 -28 -23 -30 0 -34 -2 -23 -15 9 -11 17 -12 32 -4 16 9 19 8
16 -3 -3 -7 -17 -14 -31 -16 -35 -4 -55 33 -37 67 15 29 60 25 71 -6z m238 5
c12 -31 -2 -62 -28 -66 -28 -4 -51 14 -51 42 0 47 63 66 79 24z m89 10 c27
-27 7 -78 -30 -78 -10 0 -18 -7 -18 -15 0 -8 -4 -15 -10 -15 -6 0 -10 27 -10
60 0 59 0 60 28 60 15 0 33 -5 40 -12z m99 -55 c-2 -16 -4 -5 -4 22 0 28 2 40
4 28 2 -13 2 -35 0 -50z m93 53 c28 -35 -11 -93 -47 -70 -36 22 -23 84 17 84
10 0 23 -7 30 -14z m98 -33 c2 -24 -1 -43 -7 -43 -5 0 -11 17 -13 38 -2 20 -7
37 -13 37 -5 0 -11 -17 -13 -37 -5 -54 -22 -47 -22 8 0 45 0 45 33 42 30 -3
32 -6 35 -45z m243 20 c8 -21 5 -23 -28 -23 -30 0 -34 -2 -23 -15 9 -11 17
-12 32 -4 16 9 19 8 16 -3 -3 -7 -17 -14 -31 -16 -35 -4 -55 33 -37 67 15 29
60 25 71 -6z m130 6 c16 -31 -3 -69 -36 -69 -17 0 -29 8 -36 24 -15 32 4 66
36 66 15 0 29 -9 36 -21z m39 -10 c0 -11 5 -17 10 -14 6 3 10 15 10 26 0 10 7
19 15 19 8 0 15 -9 15 -19 0 -28 18 -36 22 -9 2 12 8 23 15 25 8 3 8 -7 -1
-38 -16 -54 -32 -60 -42 -17 l-7 33 -10 -32 c-12 -41 -22 -42 -36 -2 -14 40
-14 62 -1 54 6 -3 10 -15 10 -26z m130 21 c0 -5 -4 -10 -10 -10 -5 0 -10 5
-10 10 0 6 5 10 10 10 6 0 10 -4 10 -10z m0 -70 c0 -5 -4 -10 -10 -10 -5 0
-10 5 -10 10 0 6 5 10 10 10 6 0 10 -4 10 -10z m-2494 -1180 l2 -35 -5 33 c-4
28 -8 33 -24 29 -11 -3 -16 -1 -13 4 14 23 39 3 40 -31z m104 36 c0 -2 -9 -6
-20 -9 -11 -3 -20 -1 -20 4 0 5 9 9 20 9 11 0 20 -2 20 -4z m72 -74 c-3 -8 -7
-10 -11 -4 -3 5 -14 11 -24 13 -16 4 -17 6 -2 24 12 16 14 17 9 3 -4 -11 -1
-18 6 -18 6 0 11 10 10 23 -4 39 2 43 9 7 4 -19 5 -41 3 -48z m-198 19 c-2 -3
-12 3 -22 13 -16 17 -16 18 5 5 12 -7 20 -15 17 -18z m126 13 c11 -12 10 -18
-3 -32 -12 -12 -20 -13 -28 -5 -8 8 -6 11 6 10 27 -3 30 22 3 32 -15 6 -17 10
-7 10 9 1 22 -6 29 -15z m-125 -42 c-3 -3 -11 0 -18 7 -9 10 -8 11 6 5 10 -3
15 -9 12 -12z m3753 -514 c17 -17 17 -319 0 -336 -17 -17 -3899 -17 -3916 0
-8 8 -12 60 -12 168 0 108 4 160 12 168 17 17 3899 17 3916 0z m542 -148 c0
-59 0 -60 -28 -60 -33 0 -52 16 -52 45 0 27 18 45 47 45 14 0 23 6 23 15 0 8
2 15 5 15 3 0 5 -27 5 -60z m-284 18 c5 -8 0 -9 -14 -6 -32 9 -38 -10 -7 -22
30 -11 31 -43 2 -48 -25 -5 -50 6 -42 18 5 8 11 8 19 1 7 -6 16 -8 19 -4 12
11 8 23 -7 23 -22 0 -38 24 -24 38 15 15 45 15 54 0z m94 -7 c15 -28 13 -31
-20 -31 -16 0 -30 -5 -30 -11 0 -7 10 -9 25 -6 16 3 24 0 22 -7 -11 -33 -67
-10 -67 28 0 44 50 63 70 27z m88 7 c14 -14 16 -78 3 -78 -6 0 -11 17 -13 38
-2 25 -8 37 -18 37 -10 0 -16 -12 -18 -37 -4 -53 -22 -47 -22 7 0 43 1 45 28
45 15 0 33 -5 40 -12z"/>
<path d="M2770 5960 c0 -5 9 -10 21 -10 11 0 17 5 14 10 -3 6 -13 10 -21 10
-8 0 -14 -4 -14 -10z"/>
<path d="M2934 5955 c-4 -9 -2 -21 4 -27 15 -15 44 -1 40 19 -4 23 -36 29 -44
8z"/>
<path d="M2664 5709 c-10 -17 13 -36 27 -22 12 12 4 33 -11 33 -5 0 -12 -5
-16 -11z"/>
<path d="M2856 5691 c-4 -7 -5 -15 -2 -18 9 -9 19 4 14 18 -4 11 -6 11 -12 0z"/>
<path d="M3100 5139 c0 -15 5 -20 22 -17 34 5 37 38 4 38 -20 0 -26 -5 -26
-21z"/>
<path d="M2790 5120 c0 -5 9 -10 20 -10 11 0 20 5 20 10 0 6 -9 10 -20 10 -11
0 -20 -4 -20 -10z"/>
<path d="M2960 5105 c0 -18 5 -25 20 -25 15 0 20 7 20 25 0 18 -5 25 -20 25
-15 0 -20 -7 -20 -25z"/>
<path d="M3213 5133 c-20 -7 -15 -23 7 -23 11 0 20 4 20 9 0 13 -12 19 -27 14z"/>
<path d="M3293 5114 c-3 -8 1 -22 9 -30 13 -13 16 -13 27 0 7 9 11 23 7 31 -7
20 -35 19 -43 -1z"/>
<path d="M3020 4865 c0 -18 5 -25 20 -25 15 0 20 7 20 25 0 18 -5 25 -20 25
-15 0 -20 -7 -20 -25z"/>
<path d="M3655 4850 c-3 -5 3 -10 14 -10 12 0 21 5 21 10 0 6 -6 10 -14 10 -8
0 -18 -4 -21 -10z"/>
<path d="M3830 4851 c0 -18 18 -21 30 -6 10 13 9 15 -9 15 -11 0 -21 -4 -21
-9z"/>
<path d="M4265 4850 c-3 -5 3 -10 14 -10 12 0 21 5 21 10 0 6 -6 10 -14 10 -8
0 -18 -4 -21 -10z"/>
<path d="M4777 4854 c-4 -4 -4 -10 -1 -15 6 -10 34 0 34 12 0 10 -24 12 -33 3z"/>
<path d="M5100 4880 c0 -5 9 -10 20 -10 11 0 20 5 20 10 0 6 -9 10 -20 10 -11
0 -20 -4 -20 -10z"/>
<path d="M5243 4893 c-17 -6 -17 -38 0 -52 15 -12 37 3 37 25 0 16 -22 32 -37
27z"/>
<path d="M5740 4865 c0 -18 5 -25 20 -25 15 0 20 7 20 25 0 18 -5 25 -20 25
-15 0 -20 -7 -20 -25z"/>
<path d="M5840 4880 c0 -5 9 -10 20 -10 11 0 20 5 20 10 0 6 -9 10 -20 10 -11
0 -20 -4 -20 -10z"/>
<path d="M6025 4880 c-4 -6 5 -10 20 -10 15 0 24 4 20 10 -3 6 -12 10 -20 10
-8 0 -17 -4 -20 -10z"/>
<path d="M6175 4850 c-3 -5 3 -10 14 -10 12 0 21 5 21 10 0 6 -6 10 -14 10 -8
0 -18 -4 -21 -10z"/>
<path d="M3704 4635 c-4 -9 -2 -21 4 -27 15 -15 44 -1 40 19 -4 23 -36 29 -44
8z"/>
<path d="M5774 4635 c-4 -9 -2 -21 4 -27 15 -15 44 -1 40 19 -4 23 -36 29 -44
8z"/>
<path d="M2670 4625 c0 -18 5 -25 19 -25 20 0 31 17 24 38 -3 6 -13 12 -24 12
-14 0 -19 -7 -19 -25z"/>
<path d="M2873 4653 c-20 -7 -15 -23 7 -23 11 0 20 4 20 9 0 13 -12 19 -27 14z"/>
<path d="M3063 4653 c-20 -7 -15 -23 7 -23 11 0 20 4 20 9 0 13 -12 19 -27 14z"/>
<path d="M3343 4653 c-20 -7 -15 -23 7 -23 11 0 20 4 20 9 0 13 -12 19 -27 14z"/>
<path d="M3467 4614 c-4 -4 -4 -10 -1 -15 6 -10 34 0 34 12 0 10 -24 12 -33 3z"/>
<path d="M3610 4640 c0 -5 9 -10 20 -10 11 0 20 5 20 10 0 6 -9 10 -20 10 -11
0 -20 -4 -20 -10z"/>
<path d="M3904 4635 c-4 -9 -2 -21 4 -27 15 -15 44 -1 40 19 -4 23 -36 29 -44
8z"/>
<path d="M4084 4635 c-4 -9 -2 -21 4 -27 15 -15 44 -1 40 19 -4 23 -36 29 -44
8z"/>
<path d="M4180 4611 c0 -18 18 -21 30 -6 10 13 9 15 -9 15 -11 0 -21 -4 -21
-9z"/>
<path d="M4727 4654 c-4 -4 -7 -18 -7 -31 0 -17 6 -23 21 -23 16 0 20 5 17 27
-3 26 -18 39 -31 27z"/>
<path d="M4815 4640 c-4 -6 5 -10 20 -10 15 0 24 4 20 10 -3 6 -12 10 -20 10
-8 0 -17 -4 -20 -10z"/>
<path d="M5028 4638 c-8 -21 2 -38 23 -38 14 0 19 7 19 25 0 18 -5 25 -19 25
-10 0 -21 -6 -23 -12z"/>
<path d="M5127 4614 c-4 -4 -4 -10 -1 -15 6 -10 34 0 34 12 0 10 -24 12 -33 3z"/>
<path d="M5444 4635 c-4 -9 -2 -21 4 -27 15 -15 44 -1 40 19 -4 23 -36 29 -44
8z"/>
<path d="M5918 4638 c-8 -21 2 -38 23 -38 14 0 19 7 19 25 0 18 -5 25 -19 25
-10 0 -21 -6 -23 -12z"/>
<path d="M6350 4625 c0 -18 5 -25 20 -25 15 0 20 7 20 25 0 18 -5 25 -20 25
-15 0 -20 -7 -20 -25z"/>
<path d="M6500 4640 c0 -5 9 -10 20 -10 11 0 20 5 20 10 0 6 -9 10 -20 10 -11
0 -20 -4 -20 -10z"/>
<path d="M4760 4145 c0 -18 5 -25 19 -25 20 0 31 17 24 38 -3 6 -13 12 -24 12
-14 0 -19 -7 -19 -25z"/>
<path d="M2867 4174 c-4 -4 -7 -18 -7 -31 0 -17 6 -23 21 -23 16 0 20 5 17 27
-3 26 -18 39 -31 27z"/>
<path d="M2963 4173 c-20 -7 -15 -23 7 -23 11 0 20 4 20 9 0 13 -12 19 -27 14z"/>
<path d="M3173 4173 c-17 -6 -16 -50 1 -56 15 -6 36 11 36 29 0 16 -22 32 -37
27z"/>
<path d="M3260 4145 c0 -18 5 -25 20 -25 15 0 20 7 20 25 0 18 -5 25 -20 25
-15 0 -20 -7 -20 -25z"/>
<path d="M3358 4158 c-8 -21 2 -38 23 -38 14 0 19 7 19 25 0 18 -5 25 -19 25
-10 0 -21 -6 -23 -12z"/>
<path d="M3687 4134 c-4 -4 -4 -10 -1 -15 6 -10 34 0 34 12 0 10 -24 12 -33 3z"/>
<path d="M3875 4130 c-3 -5 3 -10 14 -10 12 0 21 5 21 10 0 6 -6 10 -14 10 -8
0 -18 -4 -21 -10z"/>
<path d="M4430 4160 c0 -5 9 -10 20 -10 11 0 20 5 20 10 0 6 -9 10 -20 10 -11
0 -20 -4 -20 -10z"/>
<path d="M4633 4173 c-17 -6 -16 -50 1 -56 15 -6 36 11 36 29 0 16 -22 32 -37
27z"/>
<path d="M5083 4173 c-17 -6 -16 -50 1 -56 15 -6 36 11 36 29 0 16 -22 32 -37
27z"/>
<path d="M5355 4160 c-4 -6 5 -10 20 -10 15 0 24 4 20 10 -3 6 -12 10 -20 10
-8 0 -17 -4 -20 -10z"/>
<path d="M5754 4155 c-4 -9 -2 -21 4 -27 15 -15 44 -1 40 19 -4 23 -36 29 -44
8z"/>
<path d="M6133 4173 c-17 -6 -16 -50 1 -56 15 -6 36 11 36 29 0 16 -22 32 -37
27z"/>
<path d="M2677 3894 c-4 -4 -4 -10 -1 -15 6 -10 34 0 34 12 0 10 -24 12 -33 3z"/>
<path d="M2953 3933 c-17 -6 -16 -50 1 -56 15 -6 36 11 36 29 0 16 -22 32 -37
27z"/>
<path d="M2710 3065 c0 -18 5 -25 20 -25 15 0 20 7 20 25 0 18 -5 25 -20 25
-15 0 -20 -7 -20 -25z"/>
<path d="M2805 3050 c-3 -5 3 -10 14 -10 12 0 21 5 21 10 0 6 -6 10 -14 10 -8
0 -18 -4 -21 -10z"/>
<path d="M2664 2829 c-10 -17 13 -36 27 -22 12 12 4 33 -11 33 -5 0 -12 -5
-16 -11z"/>
<path d="M2856 2811 c-4 -7 -5 -15 -2 -18 9 -9 19 4 14 18 -4 11 -6 11 -12 0z"/>
<path d="M3610 2225 c0 -18 5 -25 19 -25 20 0 31 17 24 38 -3 6 -13 12 -24 12
-14 0 -19 -7 -19 -25z"/>
<path d="M4078 2238 c-8 -21 2 -38 23 -38 14 0 19 7 19 25 0 18 -5 25 -19 25
-10 0 -21 -6 -23 -12z"/>
<path d="M4750 2225 c0 -18 5 -25 20 -25 15 0 20 7 20 25 0 18 -5 25 -20 25
-15 0 -20 -7 -20 -25z"/>
<path d="M3084 2235 c-4 -9 -2 -21 4 -27 15 -15 44 -1 40 19 -4 23 -36 29 -44
8z"/>
<path d="M3475 2240 c-4 -6 5 -10 20 -10 15 0 24 4 20 10 -3 6 -12 10 -20 10
-8 0 -17 -4 -20 -10z"/>
<path d="M3723 2253 c-20 -7 -15 -23 7 -23 11 0 20 4 20 9 0 13 -12 19 -27 14z"/>
<path d="M3985 2240 c-4 -6 5 -10 20 -10 15 0 24 4 20 10 -3 6 -12 10 -20 10
-8 0 -17 -4 -20 -10z"/>
<path d="M4233 2253 c-17 -6 -16 -50 1 -56 15 -6 36 11 36 29 0 16 -22 32 -37
27z"/>
<path d="M4327 2254 c-4 -4 -7 -18 -7 -31 0 -17 6 -23 21 -23 16 0 20 5 17 27
-3 26 -18 39 -31 27z"/>
<path d="M4510 2225 c0 -18 5 -25 20 -25 15 0 20 7 20 25 0 18 -5 25 -20 25
-15 0 -20 -7 -20 -25z"/>
<path d="M4845 2240 c-4 -6 5 -10 20 -10 15 0 24 4 20 10 -3 6 -12 10 -20 10
-8 0 -17 -4 -20 -10z"/>
<path d="M4974 2235 c-4 -9 -2 -21 4 -27 15 -15 44 -1 40 19 -4 23 -36 29 -44
8z"/>
<path d="M2536 434 c-23 -23 -23 -285 0 -308 14 -14 204 -16 1944 -16 1740 0
1930 2 1944 16 13 12 16 41 16 154 0 113 -3 142 -16 154 -14 14 -204 16 -1944
16 -1740 0 -1930 -2 -1944 -16z"/>
<path d="M6920 285 c0 -18 5 -25 19 -25 20 0 31 17 24 38 -3 6 -13 12 -24 12
-14 0 -19 -7 -19 -25z"/>
<path d="M6740 300 c0 -5 9 -10 20 -10 11 0 20 5 20 10 0 6 -9 10 -20 10 -11
0 -20 -4 -20 -10z"/>
</g>
</svg>
