<?xml version="1.0" standalone="no"?>
<!DOCTYPE svg PUBLIC "-//W3C//DTD SVG 20010904//EN"
 "http://www.w3.org/TR/2001/REC-SVG-20010904/DTD/svg10.dtd">
<svg version="1.0" xmlns="http://www.w3.org/2000/svg"
 width="959.000000pt" height="638.000000pt" viewBox="0 0 959.000000 638.000000"
 preserveAspectRatio="xMidYMid meet">

<g transform="translate(0.000000,638.000000) scale(0.100000,-0.100000)"
fill="#000000" stroke="none">
<path d="M0 3190 l0 -3190 4795 0 4795 0 0 3190 0 3190 -4795 0 -4795 0 0
-3190z m7189 3156 c8 -10 10 -772 9 -2891 -3 -2728 -4 -2878 -20 -2889 -13 -8
-23 -8 -35 0 -17 11 -18 161 -21 2889 -1 2119 1 2881 9 2891 6 8 19 14 29 14
10 0 23 -6 29 -14z m-4169 -56 c0 -5 -4 -10 -10 -10 -5 0 -10 5 -10 10 0 6 5
10 10 10 6 0 10 -4 10 -10z m410 -50 c0 -33 -4 -60 -10 -60 -6 0 -10 27 -10
60 0 33 4 60 10 60 6 0 10 -27 10 -60z m340 2 l0 -59 -35 -1 c-28 -1 -38 3
-46 22 -16 34 5 70 37 63 18 -3 24 0 24 14 0 11 5 19 10 19 6 0 10 -26 10 -58z
m280 -2 c0 -33 -4 -60 -10 -60 -6 0 -10 27 -10 60 0 33 4 60 10 60 6 0 10 -27
10 -60z m555 50 c-3 -5 -13 -10 -21 -10 -10 0 -14 -13 -14 -50 0 -27 -4 -50
-10 -50 -5 0 -10 23 -10 50 0 37 -4 50 -14 50 -8 0 -18 5 -21 10 -4 6 13 10
45 10 32 0 49 -4 45 -10z m345 -10 c0 -11 -4 -20 -10 -20 -5 0 -10 9 -10 20 0
11 5 20 10 20 6 0 10 -9 10 -20z m40 -40 c0 -33 -4 -60 -10 -60 -6 0 -10 27
-10 60 0 33 4 60 10 60 6 0 10 -27 10 -60z m320 40 c0 -11 -4 -20 -10 -20 -5
0 -10 9 -10 20 0 11 5 20 10 20 6 0 10 -9 10 -20z m300 10 c0 -5 -6 -10 -12
-10 -9 0 -8 -4 2 -10 10 -6 11 -10 3 -10 -8 0 -13 -15 -13 -40 0 -22 -4 -40
-9 -40 -14 0 -18 81 -6 103 11 18 35 24 35 7z m30 0 c0 -5 -2 -10 -4 -10 -3 0
-8 5 -11 10 -3 6 -1 10 4 10 6 0 11 -4 11 -10z m200 -48 l0 -59 -35 -1 c-28
-1 -38 3 -46 22 -16 34 5 70 37 63 18 -3 24 0 24 14 0 11 5 19 10 19 6 0 10
-26 10 -58z m760 13 c0 -25 -4 -45 -10 -45 -5 0 -10 20 -10 45 0 25 5 45 10
45 6 0 10 -20 10 -45z m-3034 20 c9 -8 11 -15 5 -15 -15 0 -14 -53 2 -69 10
-10 8 -12 -8 -9 -15 2 -21 14 -25 44 -9 62 -1 76 26 49z m293 -19 c-12 -13
-12 -56 1 -56 6 0 10 -4 10 -10 0 -5 -7 -10 -15 -10 -10 0 -15 10 -15 34 0 19
-4 38 -10 41 -6 4 -5 11 2 19 9 9 16 10 24 2 8 -7 9 -15 3 -20z m1540 0 c-12
-13 -12 -56 1 -56 6 0 10 -4 10 -10 0 -5 -7 -10 -15 -10 -10 0 -15 10 -15 34
0 19 -4 38 -10 41 -6 4 -5 11 2 19 9 9 16 10 24 2 8 -7 9 -15 3 -20z m720 0
c-12 -13 -12 -56 1 -56 6 0 10 -4 10 -10 0 -5 -7 -10 -15 -10 -10 0 -15 10
-15 34 0 19 -4 38 -10 41 -6 4 -5 11 2 19 9 9 16 10 24 2 8 -7 9 -15 3 -20z
m-3390 -48 c-1 -35 -3 -55 -6 -45 -3 10 -14 17 -27 17 -28 0 -46 18 -46 45 0
29 19 45 52 45 28 0 28 0 27 -62z m41 29 c0 -38 6 -48 26 -40 8 3 14 19 14 39
0 19 5 34 10 34 6 0 10 -20 10 -43 0 -43 -1 -44 -32 -45 -18 0 -36 5 -40 11
-11 18 -10 77 2 77 6 0 10 -15 10 -33z m144 17 c11 -28 7 -34 -24 -34 -16 0
-30 -4 -30 -10 0 -11 13 -14 44 -10 11 1 15 -3 12 -9 -9 -15 -49 -14 -64 1
-28 28 -7 78 34 78 12 0 25 -7 28 -16z m64 5 c-12 -6 -18 -22 -18 -44 0 -19
-4 -35 -10 -35 -5 0 -10 20 -10 45 0 42 2 45 28 45 23 -1 24 -2 10 -11z m42
-34 c0 -25 -4 -45 -10 -45 -5 0 -10 20 -10 45 0 25 5 45 10 45 6 0 10 -20 10
-45z m84 29 c11 -28 7 -34 -24 -34 -16 0 -30 -4 -30 -10 0 -11 13 -14 44 -10
11 1 15 -3 12 -9 -9 -15 -49 -14 -64 1 -28 28 -7 78 34 78 12 0 25 -7 28 -16z
m86 5 c0 -6 -7 -9 -15 -6 -8 4 -17 2 -20 -3 -4 -6 6 -15 20 -20 37 -14 30 -45
-9 -45 -16 0 -31 6 -34 13 -3 11 0 12 16 3 14 -7 23 -8 27 -1 3 6 -5 14 -19
20 -25 9 -34 29 -19 43 11 11 53 8 53 -4z m108 0 c-12 -6 -18 -22 -18 -44 0
-19 -4 -35 -10 -35 -5 0 -10 20 -10 45 0 42 2 45 28 45 23 -1 24 -2 10 -11z
m86 -5 c11 -28 7 -34 -24 -34 -16 0 -30 -4 -30 -10 0 -11 13 -14 44 -10 11 1
15 -3 12 -9 -9 -15 -49 -14 -64 1 -28 28 -7 78 34 78 12 0 25 -7 28 -16z m124
4 c7 -7 12 -27 12 -46 0 -32 -1 -33 -37 -30 -50 4 -58 34 -14 49 17 6 28 15
25 20 -3 5 -13 5 -25 -1 -10 -6 -19 -7 -19 -2 0 23 38 30 58 10z m150 0 c21
-21 13 -38 -18 -38 -16 0 -30 -4 -30 -9 0 -13 28 -22 35 -10 4 5 11 7 16 3 15
-9 0 -24 -25 -24 -28 0 -46 18 -46 45 0 25 18 45 40 45 9 0 21 -5 28 -12z
m303 -9 c16 -31 -3 -69 -36 -69 -17 0 -29 8 -36 24 -15 32 4 66 36 66 15 0 29
-9 36 -21z m180 0 c16 -31 -3 -69 -36 -69 -17 0 -29 8 -36 24 -15 32 4 66 36
66 15 0 29 -9 36 -21z m87 -27 l3 -43 -33 3 c-43 4 -51 34 -13 48 14 5 23 15
20 20 -5 8 -11 8 -20 0 -8 -6 -16 -7 -19 -2 -9 14 6 23 34 20 22 -3 25 -8 28
-46z m90 36 c14 -14 16 -78 3 -78 -6 0 -11 17 -13 38 -2 25 -8 37 -18 37 -10
0 -16 -12 -18 -37 -4 -53 -22 -47 -22 7 0 43 1 45 28 45 15 0 33 -5 40 -12z
m88 0 c5 -8 0 -9 -14 -6 -32 9 -38 -10 -7 -22 30 -11 31 -43 2 -48 -25 -5 -50
6 -42 18 5 8 11 8 19 1 7 -6 16 -8 19 -4 12 11 8 23 -7 23 -22 0 -38 24 -24
38 15 15 45 15 54 0z m230 -20 l7 -33 14 33 c22 54 34 36 12 -20 -26 -67 -27
-68 -47 -68 -16 1 -16 2 1 14 16 12 16 17 2 56 -18 50 -18 50 -6 50 5 0 13
-15 17 -32z m132 20 c27 -27 7 -78 -30 -78 -10 0 -18 -7 -18 -15 0 -8 -4 -15
-10 -15 -6 0 -10 27 -10 60 0 59 0 60 28 60 15 0 33 -5 40 -12z m103 -15 c8
-21 5 -23 -28 -23 -30 0 -34 -2 -23 -15 9 -11 17 -12 32 -4 16 9 19 8 16 -3
-3 -7 -17 -14 -31 -16 -35 -4 -55 33 -37 67 15 29 60 25 71 -6z m209 13 c28
-35 -11 -93 -47 -70 -36 22 -23 84 17 84 10 0 23 -7 30 -14z m88 2 c7 -7 12
-27 12 -46 0 -32 -1 -33 -37 -30 -50 4 -58 34 -14 49 17 6 28 15 25 20 -3 5
-13 5 -25 -1 -10 -6 -19 -7 -19 -2 0 23 38 30 58 10z m100 -35 c2 -26 -1 -43
-7 -43 -6 0 -11 15 -11 34 0 60 -34 53 -43 -9 -3 -22 -4 -18 -6 16 -1 46 -1
46 32 45 30 -1 32 -3 35 -43z m233 26 c16 -31 -3 -69 -36 -69 -17 0 -29 8 -36
24 -15 32 4 66 36 66 15 0 29 -9 36 -21z m136 -46 c-2 -16 -4 -5 -4 22 0 28 2
40 4 28 2 -13 2 -35 0 -50z m91 55 c14 -14 16 -78 3 -78 -6 0 -11 17 -13 38
-2 25 -8 37 -18 37 -10 0 -16 -12 -18 -37 -4 -53 -22 -47 -22 7 0 43 1 45 28
45 15 0 33 -5 40 -12z m242 -2 c28 -35 -11 -93 -47 -70 -36 22 -23 84 17 84
10 0 23 -7 30 -14z m63 -54 c14 -3 17 4 17 32 0 20 5 36 10 36 6 0 10 -21 10
-46 0 -45 0 -45 -32 -42 -32 3 -33 5 -35 48 -1 41 -1 42 5 10 5 -22 14 -36 25
-38z m275 21 c2 -26 -1 -43 -7 -43 -6 0 -11 18 -11 41 0 52 -24 48 -28 -4 -4
-48 -20 -48 -24 1 -2 20 -7 37 -13 37 -5 0 -11 -17 -13 -37 -4 -53 -22 -47
-22 7 l0 45 58 -2 57 -3 3 -42z m92 33 c28 -35 -11 -93 -47 -70 -36 22 -23 84
17 84 10 0 23 -7 30 -14z m68 3 c-12 -6 -18 -22 -18 -44 0 -19 -4 -35 -10 -35
-5 0 -10 20 -10 45 0 42 2 45 28 45 23 -1 24 -2 10 -11z m80 -1 c21 -21 13
-38 -18 -38 -16 0 -30 -4 -30 -9 0 -13 28 -22 35 -10 4 5 11 7 16 3 15 -9 0
-24 -25 -24 -28 0 -46 18 -46 45 0 25 18 45 40 45 9 0 21 -5 28 -12z m-2098
-68 c0 -5 -4 -10 -10 -10 -5 0 -10 5 -10 10 0 6 5 10 10 10 6 0 10 -4 10 -10z
m2150 0 c0 -5 -4 -10 -10 -10 -5 0 -10 5 -10 10 0 6 5 10 10 10 6 0 10 -4 10
-10z m-3872 -384 c-13 -9 -18 -27 -18 -60 0 -25 -4 -46 -10 -46 -5 0 -10 23
-10 50 0 37 -4 50 -14 50 -8 0 -18 5 -21 10 -4 6 12 10 42 10 42 -1 46 -2 31
-14z m362 -6 c0 -11 -4 -20 -10 -20 -5 0 -10 9 -10 20 0 11 5 20 10 20 6 0 10
-9 10 -20z m40 -40 c0 -33 -4 -60 -10 -60 -6 0 -10 27 -10 60 0 33 4 60 10 60
6 0 10 -27 10 -60z m470 40 c0 -11 -4 -20 -10 -20 -5 0 -10 9 -10 20 0 11 5
20 10 20 6 0 10 -9 10 -20z m650 10 c0 -5 -4 -10 -10 -10 -5 0 -10 5 -10 10 0
6 5 10 10 10 6 0 10 -4 10 -10z m570 -50 c0 -59 0 -60 -28 -60 -33 0 -52 16
-52 45 0 27 18 45 47 45 14 0 23 6 23 15 0 8 2 15 5 15 3 0 5 -27 5 -60z m40
50 c0 -5 -2 -10 -4 -10 -3 0 -8 5 -11 10 -3 6 -1 10 4 10 6 0 11 -4 11 -10z
m800 -5 c-10 -12 -10 -15 1 -16 10 0 11 -2 2 -6 -8 -2 -13 -22 -13 -44 0 -54
-17 -49 -22 7 -4 50 5 74 29 74 13 0 13 -3 3 -15z m-2104 -10 c9 -8 11 -15 5
-15 -15 0 -14 -53 1 -68 9 -9 8 -12 -5 -12 -16 0 -25 20 -28 65 -3 48 3 55 27
30z m230 0 c9 -8 11 -15 5 -15 -15 0 -14 -53 2 -69 10 -10 8 -12 -8 -9 -15 2
-21 14 -25 44 -9 62 -1 76 26 49z m420 0 c9 -8 11 -15 5 -15 -15 0 -14 -53 2
-69 10 -10 8 -12 -8 -9 -15 2 -21 14 -25 44 -9 62 -1 76 26 49z m370 0 c9 -8
11 -15 5 -15 -15 0 -14 -53 1 -68 9 -9 8 -12 -5 -12 -16 0 -25 20 -28 65 -3
48 3 55 27 30z m973 -19 c-12 -13 -12 -56 1 -56 6 0 10 -4 10 -10 0 -5 -7 -10
-15 -10 -10 0 -15 10 -15 34 0 19 -4 38 -10 41 -6 4 -5 11 2 19 9 9 16 10 24
2 8 -7 9 -15 3 -20z m-2776 -18 l14 -33 7 33 c4 17 12 32 17 32 12 0 12 -1
-12 -65 -12 -31 -27 -55 -35 -55 -11 0 -12 4 -2 19 9 14 8 27 -5 60 -9 22 -12
41 -7 41 5 0 16 -15 23 -32z m135 20 c27 -27 7 -78 -30 -78 -10 0 -18 -7 -18
-15 0 -8 -4 -15 -10 -15 -6 0 -10 27 -10 60 0 59 0 60 28 60 15 0 33 -5 40
-12z m96 -4 c11 -28 7 -34 -24 -34 -16 0 -30 -4 -30 -10 0 -11 13 -14 44 -10
11 1 15 -3 12 -9 -9 -15 -49 -14 -64 1 -28 28 -7 78 34 78 12 0 25 -7 28 -16z
m215 -6 c12 -31 -2 -62 -28 -66 -28 -4 -51 14 -51 42 0 47 63 66 79 24z m99
-35 c-3 -57 -3 -58 -35 -61 -20 -2 -33 1 -33 8 0 7 8 9 19 5 11 -3 22 -1 26 5
3 5 -2 10 -12 10 -25 0 -43 19 -43 45 0 29 19 45 52 45 29 0 29 0 26 -57z m92
43 c28 -35 -11 -93 -47 -70 -36 22 -23 84 17 84 10 0 23 -7 30 -14z m63 -54
c14 -3 17 4 17 32 0 20 5 36 10 36 6 0 10 -21 10 -46 0 -45 0 -45 -32 -42 -32
3 -33 5 -35 48 -1 41 -1 42 5 10 5 -22 14 -36 25 -38z m255 56 c7 -7 12 -27
12 -46 0 -32 -1 -33 -37 -30 -50 4 -58 34 -14 49 17 6 28 15 25 20 -3 5 -13 5
-25 -1 -10 -6 -19 -7 -19 -2 0 23 38 30 58 10z m200 -36 l3 -43 -33 3 c-43 4
-51 34 -13 48 31 12 25 31 -7 22 -15 -4 -19 -2 -14 7 5 7 20 11 34 9 24 -3 27
-8 30 -46z m89 -2 l1 -45 -7 38 c-4 20 -11 40 -14 43 -13 13 -27 -9 -27 -42 0
-19 -4 -34 -10 -34 -5 0 -10 21 -10 46 0 45 0 45 33 42 31 -3 32 -5 34 -48z
m45 18 l12 -33 14 35 c22 53 25 20 4 -36 -12 -30 -27 -50 -38 -53 -16 -3 -17
-1 -5 13 11 13 12 24 2 55 -12 43 -13 51 -5 51 3 0 10 -15 16 -32z m188 -13
c0 -25 -4 -45 -10 -45 -5 0 -10 20 -10 45 0 25 5 45 10 45 6 0 10 -20 10 -45z
m138 -2 c2 -24 -1 -43 -7 -43 -5 0 -11 16 -13 35 -2 20 -7 35 -13 35 -5 0 -11
-15 -13 -35 -4 -46 -20 -45 -24 3 -2 20 -7 37 -13 37 -5 0 -11 -17 -13 -37 -4
-53 -22 -47 -22 7 l0 45 58 -2 57 -3 3 -42z m92 28 c15 -28 13 -31 -20 -31
-16 0 -30 -5 -30 -11 0 -7 10 -9 25 -6 16 3 24 0 22 -7 -11 -33 -67 -10 -67
28 0 44 50 63 70 27z m199 -3 c12 -31 -2 -62 -28 -66 -28 -4 -51 14 -51 42 0
47 63 66 79 24z m178 -45 c-2 -16 -4 -5 -4 22 0 28 2 40 4 28 2 -13 2 -35 0
-50z m89 55 c5 -8 0 -9 -14 -6 -32 9 -38 -10 -7 -22 17 -7 25 -16 23 -28 -4
-20 -45 -29 -61 -13 -15 15 0 26 17 12 10 -8 16 -9 21 -1 3 5 -5 14 -19 20
-25 9 -34 29 -19 43 11 11 51 8 59 -5z m89 1 c10 -15 -3 -25 -16 -12 -17 17
-39 4 -39 -22 0 -26 22 -39 39 -22 13 13 26 3 16 -12 -8 -15 -48 -14 -63 1
-29 29 -7 78 34 78 13 0 26 -5 29 -11z m94 -11 c12 -31 -2 -62 -28 -66 -28 -4
-51 14 -51 42 0 47 63 66 79 24z m88 -28 l1 -45 -7 38 c-4 20 -11 40 -14 43
-13 13 -27 -9 -27 -42 0 -19 -4 -34 -10 -34 -5 0 -10 21 -10 46 0 45 0 45 33
42 31 -3 32 -5 34 -48z m101 3 c2 -26 -1 -43 -7 -43 -6 0 -11 15 -11 34 0 60
-34 53 -43 -9 -3 -22 -4 -18 -6 16 -1 46 -1 46 32 45 30 -1 32 -3 35 -43z m93
20 c8 -21 5 -23 -28 -23 -30 0 -34 -2 -23 -15 9 -11 17 -12 32 -4 16 9 19 8
16 -3 -3 -7 -17 -14 -31 -16 -35 -4 -55 33 -37 67 15 29 60 25 71 -6z m89 12
c11 -13 8 -14 -19 -9 -29 6 -31 4 -31 -21 0 -25 2 -27 31 -21 27 5 30 4 19 -9
-25 -30 -70 -11 -70 30 0 41 45 60 70 30z m218 1 c-11 -8 -18 -26 -18 -45 0
-17 -4 -31 -10 -31 -5 0 -10 20 -10 45 0 43 2 45 28 45 24 -1 25 -2 10 -14z
m93 -7 c16 -31 -3 -69 -36 -69 -17 0 -29 8 -36 24 -15 32 4 66 36 66 15 0 29
-9 36 -21z m135 -29 l2 -45 -7 39 c-7 45 -28 59 -35 24 -3 -13 -7 -32 -9 -43
-3 -11 -5 -3 -6 17 -1 35 -15 57 -28 44 -3 -3 -9 -23 -13 -43 l-8 -38 -1 47
-1 48 53 -3 52 -2 1 -45z m97 18 l14 -33 7 33 c4 17 12 32 17 32 12 0 12 -1
-12 -65 -12 -31 -27 -55 -35 -55 -11 0 -12 4 -2 19 9 14 8 27 -5 60 -9 22 -12
41 -7 41 5 0 16 -15 23 -32z m136 10 c12 -31 -2 -62 -28 -66 -28 -4 -51 14
-51 42 0 47 63 66 79 24z m41 -12 c0 -60 34 -53 43 9 3 21 4 16 6 -18 l1 -48
-32 3 c-31 3 -33 6 -36 46 -2 25 1 42 7 42 6 0 11 -15 11 -34z m108 20 c-11
-8 -18 -26 -18 -45 0 -17 -4 -31 -10 -31 -5 0 -10 20 -10 45 0 43 2 45 28 45
24 -1 25 -2 10 -14z m-3092 -221 c9 -8 11 -15 5 -15 -15 0 -14 -53 2 -69 10
-10 8 -12 -8 -9 -15 2 -21 14 -25 44 -9 62 -1 76 26 49z m-518 -17 c7 -7 12
-27 12 -46 0 -32 -1 -33 -37 -30 -50 4 -58 34 -14 49 17 6 28 15 25 20 -3 5
-13 5 -25 -1 -10 -6 -19 -7 -19 -2 0 23 38 30 58 10z m97 1 c10 -15 -3 -25
-16 -12 -17 17 -39 4 -39 -22 0 -26 22 -39 39 -22 13 13 26 3 16 -12 -8 -15
-48 -14 -63 1 -29 29 -7 78 34 78 13 0 26 -5 29 -11z m90 0 c10 -15 -3 -25
-16 -12 -17 17 -39 4 -39 -22 0 -26 22 -39 39 -22 13 13 26 3 16 -12 -8 -15
-48 -14 -63 1 -29 29 -7 78 34 78 13 0 26 -5 29 -11z m94 -11 c12 -31 -2 -62
-28 -66 -28 -4 -51 14 -51 42 0 47 63 66 79 24z m41 -12 c0 -60 34 -53 43 9 3
21 4 16 6 -18 l1 -48 -32 3 c-31 3 -33 6 -36 46 -2 25 1 42 7 42 6 0 11 -15
11 -34z m138 22 c14 -14 16 -78 3 -78 -6 0 -11 17 -13 38 -2 25 -8 37 -18 37
-10 0 -16 -12 -18 -37 -4 -53 -22 -47 -22 7 0 43 1 45 28 45 15 0 33 -5 40
-12z m112 -68 c0 -5 -4 -10 -10 -10 -5 0 -10 5 -10 10 0 6 5 10 10 10 6 0 10
-4 10 -10z m-584 -220 l2 -35 -5 33 c-4 28 -8 33 -24 29 -11 -3 -16 -1 -13 4
14 23 39 3 40 -31z m104 36 c0 -2 -9 -6 -20 -9 -11 -3 -20 -1 -20 4 0 5 9 9
20 9 11 0 20 -2 20 -4z m72 -74 c-3 -8 -7 -10 -11 -4 -3 5 -14 11 -24 13 -16
4 -17 6 -2 24 12 16 14 17 9 3 -4 -11 -1 -18 6 -18 6 0 11 10 10 23 -4 39 2
43 9 7 4 -19 5 -41 3 -48z m-198 19 c-2 -3 -12 3 -22 13 -16 17 -16 18 5 5 12
-7 20 -15 17 -18z m126 13 c11 -12 10 -18 -3 -32 -12 -12 -20 -13 -28 -5 -8 8
-6 11 6 10 27 -3 30 22 3 32 -15 6 -17 10 -7 10 9 1 22 -6 29 -15z m-125 -42
c-3 -3 -11 0 -18 7 -9 10 -8 11 6 5 10 -3 15 -9 12 -12z m-15 -522 c0 -33 -4
-60 -10 -60 -6 0 -10 27 -10 60 0 33 4 60 10 60 6 0 10 -27 10 -60z m90 16
c28 -35 -11 -93 -47 -70 -36 22 -23 84 17 84 10 0 23 -7 30 -14z m98 -33 l3
-43 -35 0 c-20 0 -36 2 -36 4 0 2 -3 11 -6 20 -4 10 4 20 28 31 31 14 31 15 6
11 -16 -2 -28 0 -28 4 0 14 15 21 40 18 22 -3 25 -8 28 -45z m90 0 c2 -24 -1
-43 -7 -43 -5 0 -11 17 -13 38 -2 20 -7 37 -13 37 -5 0 -11 -17 -13 -37 -5
-54 -22 -47 -22 8 0 45 0 45 33 42 30 -3 32 -6 35 -45z m-240 -256 c3 -39 -18
-61 -40 -39 -7 7 -5 10 7 9 10 -1 20 4 22 11 3 7 -1 10 -10 7 -7 -3 -20 1 -27
10 -10 12 -10 18 0 30 22 27 45 14 48 -28z m90 36 c-23 -6 -23 -11 4 -33 19
-15 20 -20 9 -34 -14 -17 -41 -22 -41 -7 0 5 7 8 16 7 25 -2 29 24 5 31 -29 8
-28 43 2 42 16 -1 18 -2 5 -6z m84 -71 c-3 -8 -7 -10 -11 -4 -3 5 -14 11 -23
13 -16 4 -15 7 5 39 l22 35 5 -35 c4 -19 4 -41 2 -48z m-144 -484 c7 -7 12
-16 12 -22 0 -6 -5 -5 -12 2 -19 19 -56 14 -63 -8 -15 -47 30 -81 63 -48 7 7
12 8 12 2 0 -17 -23 -34 -46 -34 -24 0 -54 34 -54 60 0 45 59 77 88 48z m52
-48 c0 -33 -4 -60 -10 -60 -6 0 -10 27 -10 60 0 33 4 60 10 60 6 0 10 -27 10
-60z m40 50 c0 -5 -4 -10 -10 -10 -5 0 -10 5 -10 10 0 6 5 10 10 10 6 0 10 -4
10 -10z m130 -22 c0 -29 1 -30 18 -15 26 23 39 21 18 -2 -17 -18 -17 -21 -1
-45 21 -32 2 -35 -19 -4 l-16 22 0 -22 c0 -12 -4 -22 -10 -22 -6 0 -10 27 -10
60 0 33 4 60 10 60 6 0 10 -14 10 -32z m420 17 c0 -9 9 -15 24 -15 13 0 27 -7
30 -16 10 -25 7 -74 -4 -74 -5 0 -10 16 -10 35 0 28 -4 35 -20 35 -16 0 -20
-7 -20 -35 0 -19 -4 -35 -10 -35 -6 0 -10 27 -10 60 0 33 4 60 10 60 6 0 10
-7 10 -15z m290 -45 c0 -59 0 -60 -28 -60 -33 0 -52 16 -52 45 0 27 18 45 47
45 14 0 23 6 23 15 0 8 2 15 5 15 3 0 5 -27 5 -60z m220 50 c0 -5 -4 -10 -10
-10 -5 0 -10 5 -10 10 0 6 5 10 10 10 6 0 10 -4 10 -10z m250 -51 l0 -60 -37
3 c-37 3 -38 4 -38 43 0 36 3 40 28 43 15 2 27 9 27 18 0 8 5 14 10 14 6 0 10
-27 10 -61z m330 51 c0 -5 -2 -10 -4 -10 -3 0 -8 5 -11 10 -3 6 -1 10 4 10 6
0 11 -4 11 -10z m280 -5 c0 -8 8 -15 18 -15 24 0 42 -19 42 -45 0 -29 -19 -45
-52 -45 -28 0 -28 1 -28 60 0 33 4 60 10 60 6 0 10 -7 10 -15z m190 -45 c0
-33 -4 -60 -10 -60 -6 0 -10 27 -10 60 0 33 4 60 10 60 6 0 10 -27 10 -60z
m-1604 35 c9 -8 11 -15 5 -15 -15 0 -14 -53 2 -69 10 -10 8 -12 -8 -9 -15 2
-21 14 -25 44 -9 62 -1 76 26 49z m1090 0 c9 -8 11 -15 5 -15 -15 0 -14 -53 1
-68 9 -9 8 -12 -5 -12 -16 0 -25 20 -28 65 -3 48 3 55 27 30z m-1596 -50 c0
-25 -4 -45 -10 -45 -5 0 -10 20 -10 45 0 25 5 45 10 45 6 0 10 -20 10 -45z
m85 34 c10 -15 -4 -24 -17 -11 -13 13 -38 -2 -38 -22 0 -22 22 -37 37 -24 15
12 28 5 18 -11 -3 -6 -17 -11 -31 -11 -32 0 -51 38 -35 69 12 22 55 29 66 10z
m226 -10 c16 -31 -3 -69 -36 -69 -17 0 -29 8 -36 24 -15 32 4 66 36 66 15 0
29 -9 36 -21z m97 -26 c2 -26 -1 -43 -7 -43 -6 0 -11 15 -11 34 0 60 -34 53
-43 -9 -3 -22 -4 -18 -6 16 -1 46 -1 46 32 45 30 -1 32 -3 35 -43z m293 20 c8
-21 5 -23 -28 -23 -30 0 -34 -2 -23 -15 9 -11 17 -12 32 -4 16 9 19 8 16 -3
-3 -7 -17 -14 -31 -16 -35 -4 -55 33 -37 67 15 29 60 25 71 -6z m233 11 c11
-28 7 -34 -24 -34 -16 0 -30 -4 -30 -10 0 -11 13 -14 44 -10 11 1 15 -3 12 -9
-9 -15 -49 -14 -64 1 -28 28 -7 78 34 78 12 0 25 -7 28 -16z m82 4 c5 -8 2 -9
-9 -5 -9 3 -19 2 -23 -4 -3 -6 3 -13 14 -16 26 -6 35 -28 17 -43 -18 -15 -47
-9 -53 10 -5 13 -3 13 12 1 12 -10 20 -11 28 -3 8 8 4 14 -15 21 -26 10 -35
30 -20 44 10 11 41 8 49 -5z m44 -33 c0 -25 -4 -45 -10 -45 -5 0 -10 20 -10
45 0 25 5 45 10 45 6 0 10 -20 10 -45z m58 34 c-12 -6 -18 -22 -18 -44 0 -19
-4 -35 -10 -35 -5 0 -10 20 -10 45 0 42 2 45 28 45 23 -1 24 -2 10 -11z m93
-16 c8 -21 5 -23 -28 -23 -30 0 -34 -2 -23 -15 9 -11 17 -12 32 -4 16 9 19 8
16 -3 -3 -7 -17 -14 -31 -16 -35 -4 -55 33 -37 67 15 29 60 25 71 -6z m238 5
c12 -31 -2 -62 -28 -66 -28 -4 -51 14 -51 42 0 47 63 66 79 24z m89 10 c27
-27 7 -78 -30 -78 -10 0 -18 -7 -18 -15 0 -8 -4 -15 -10 -15 -6 0 -10 27 -10
60 0 59 0 60 28 60 15 0 33 -5 40 -12z m99 -55 c-2 -16 -4 -5 -4 22 0 28 2 40
4 28 2 -13 2 -35 0 -50z m93 53 c28 -35 -11 -93 -47 -70 -36 22 -23 84 17 84
10 0 23 -7 30 -14z m98 -33 c2 -24 -1 -43 -7 -43 -5 0 -11 17 -13 38 -2 20 -7
37 -13 37 -5 0 -11 -17 -13 -37 -5 -54 -22 -47 -22 8 0 45 0 45 33 42 30 -3
32 -6 35 -45z m243 20 c8 -21 5 -23 -28 -23 -30 0 -34 -2 -23 -15 9 -11 17
-12 32 -4 16 9 19 8 16 -3 -3 -7 -17 -14 -31 -16 -35 -4 -55 33 -37 67 15 29
60 25 71 -6z m130 6 c16 -31 -3 -69 -36 -69 -17 0 -29 8 -36 24 -15 32 4 66
36 66 15 0 29 -9 36 -21z m39 -10 c0 -11 5 -17 10 -14 6 3 10 15 10 26 0 10 7
19 15 19 8 0 15 -9 15 -19 0 -28 18 -36 22 -9 2 12 8 23 15 25 8 3 8 -7 -1
-38 -16 -54 -32 -60 -42 -17 l-7 33 -10 -32 c-12 -41 -22 -42 -36 -2 -14 40
-14 62 -1 54 6 -3 10 -15 10 -26z m130 21 c0 -5 -4 -10 -10 -10 -5 0 -10 5
-10 10 0 6 5 10 10 10 6 0 10 -4 10 -10z m0 -70 c0 -5 -4 -10 -10 -10 -5 0
-10 5 -10 10 0 6 5 10 10 10 6 0 10 -4 10 -10z m-2415 -567 l25 -38 0 38 c0
26 4 37 15 37 12 0 15 -13 15 -60 0 -72 -16 -79 -52 -22 l-23 37 -3 -37 c-2
-25 -8 -38 -18 -38 -11 0 -14 14 -14 60 0 72 16 79 55 23z m185 23 c0 -9 12
-16 28 -18 24 -3 27 -7 27 -43 0 -39 -1 -40 -37 -43 l-38 -3 0 60 c0 34 4 61
10 61 6 0 10 -6 10 -14z m280 -18 c0 -29 1 -30 18 -15 27 25 50 22 27 -3 -17
-18 -17 -21 -1 -45 19 -29 3 -35 -26 -8 -17 15 -18 15 -18 0 0 -10 -4 -17 -10
-17 -6 0 -10 27 -10 60 0 33 4 60 10 60 6 0 10 -14 10 -32z m198 -1 c3 -24 -2
-30 -27 -40 -19 -7 -31 -18 -31 -29 0 -10 -7 -18 -15 -18 -12 0 -15 13 -15 61
l0 60 43 -3 c38 -3 42 -6 45 -31z m552 -27 c0 -33 -4 -60 -10 -60 -6 0 -10 27
-10 60 0 33 4 60 10 60 6 0 10 -27 10 -60z m90 10 c0 -47 2 -50 25 -50 14 0
25 -4 25 -10 0 -5 -18 -10 -40 -10 l-40 0 0 60 c0 47 3 60 15 60 11 0 15 -12
15 -50z m370 5 c0 -33 -4 -45 -15 -45 -11 0 -15 12 -15 45 0 33 4 45 15 45 11
0 15 -12 15 -45z m140 35 c0 -5 -11 -10 -25 -10 -16 0 -25 -6 -25 -15 0 -9 10
-15 26 -15 14 0 23 -4 19 -10 -3 -5 -15 -10 -26 -10 -14 0 -19 -7 -19 -25 0
-16 -6 -25 -15 -25 -12 0 -15 13 -15 60 l0 60 40 0 c22 0 40 -4 40 -10z m40 0
c0 -5 -7 -10 -15 -10 -8 0 -15 5 -15 10 0 6 7 10 15 10 8 0 15 -4 15 -10z
m280 0 c0 -5 -4 -10 -10 -10 -5 0 -10 5 -10 10 0 6 5 10 10 10 6 0 10 -4 10
-10z m360 -50 c0 -33 -4 -60 -10 -60 -6 0 -10 27 -10 60 0 33 4 60 10 60 6 0
10 -27 10 -60z m40 0 c0 -33 -4 -60 -10 -60 -6 0 -10 27 -10 60 0 33 4 60 10
60 6 0 10 -27 10 -60z m470 50 c0 -5 -7 -10 -15 -10 -8 0 -15 5 -15 10 0 6 7
10 15 10 8 0 15 -4 15 -10z m658 -2 c7 -7 12 -28 12 -48 0 -20 -5 -41 -12 -48
-17 -17 -58 -15 -65 3 -7 21 6 33 17 16 9 -15 40 -8 40 8 0 6 -7 8 -15 4 -17
-6 -55 23 -55 42 0 18 22 35 45 35 12 0 26 -5 33 -12z m100 0 c17 -17 15 -83
-2 -98 -43 -35 -90 23 -67 83 11 29 47 37 69 15z m-1720 -15 c12 -12 13 -18 4
-21 -14 -4 -16 -38 -2 -47 17 -10 11 -27 -7 -23 -25 5 -40 108 -16 108 2 0 12
-8 21 -17z m320 0 c12 -12 13 -18 4 -21 -14 -4 -16 -52 -2 -52 6 0 10 -5 10
-11 0 -6 -8 -9 -17 -7 -25 5 -40 108 -16 108 2 0 12 -8 21 -17z m550 0 c12
-12 13 -18 4 -21 -14 -4 -16 -52 -2 -52 6 0 10 -5 10 -11 0 -6 -8 -9 -17 -7
-25 5 -40 108 -16 108 2 0 12 -8 21 -17z m518 3 c9 -9 10 -17 4 -21 -14 -9
-13 -48 3 -64 10 -10 7 -12 -13 -9 -21 2 -26 10 -30 44 -9 63 4 81 36 50z
m-3336 -42 c0 -45 24 -42 28 4 5 49 22 38 22 -13 0 -44 0 -45 -34 -45 -37 0
-46 12 -46 61 0 19 5 29 15 29 11 0 15 -11 15 -36z m238 -12 l3 -43 -38 3
c-51 4 -57 32 -11 54 29 13 30 14 6 9 -21 -4 -28 -2 -28 10 0 12 8 15 33 13
30 -3 32 -6 35 -46z m90 1 c2 -26 -1 -43 -7 -43 -6 0 -11 16 -11 35 0 24 -5
35 -15 35 -10 0 -15 -11 -15 -35 0 -19 -4 -35 -10 -35 -5 0 -10 21 -10 46 0
45 0 45 33 42 30 -3 32 -6 35 -45z m332 28 c15 -30 -4 -71 -33 -71 -29 0 -47
17 -47 45 0 44 60 63 80 26z m70 9 c0 -5 -7 -10 -15 -10 -10 0 -15 -11 -15
-35 0 -19 -4 -35 -10 -35 -5 0 -10 20 -10 45 0 41 2 45 25 45 14 0 25 -4 25
-10z m72 -5 c-2 -5 -13 -9 -25 -7 -21 2 -21 2 3 -12 23 -14 26 -13 38 10 11
20 20 25 45 22 30 -3 32 -5 32 -43 0 -37 -2 -40 -30 -43 -18 -2 -33 2 -41 12
-11 15 -12 15 -18 1 -7 -20 -67 -17 -74 3 -3 9 3 11 24 6 19 -5 25 -4 20 5 -4
6 -13 11 -21 11 -15 0 -24 19 -17 38 5 15 69 12 64 -3z m186 -32 c2 -26 -1
-43 -7 -43 -6 0 -11 16 -11 35 0 24 -5 35 -15 35 -10 0 -15 -11 -15 -35 0 -24
-5 -35 -15 -35 -11 0 -15 12 -15 46 l0 45 38 -3 c36 -3 37 -4 40 -45z m90 0
l3 -43 -35 0 c-20 0 -36 2 -36 4 0 2 -3 11 -6 20 -4 10 4 20 28 31 30 14 30
15 6 10 -16 -3 -28 -2 -28 3 0 16 14 23 40 20 22 -3 25 -8 28 -45z m271 25
c14 -38 -2 -63 -40 -63 -30 0 -34 3 -37 28 -5 43 4 57 38 57 23 0 33 -6 39
-22z m89 -26 l3 -43 -38 3 c-51 4 -57 32 -11 54 29 13 30 14 6 9 -21 -4 -28
-2 -28 10 0 12 8 15 33 13 30 -3 32 -6 35 -46z m90 1 c2 -26 -1 -43 -7 -43 -6
0 -11 16 -11 35 0 24 -5 35 -15 35 -10 0 -15 -11 -15 -35 0 -19 -4 -35 -10
-35 -5 0 -10 21 -10 46 0 45 0 45 33 42 30 -3 32 -6 35 -45z m232 2 c0 -33 -4
-45 -15 -45 -11 0 -15 12 -15 45 0 33 4 45 15 45 11 0 15 -12 15 -45z m60 36
c0 -5 -7 -11 -15 -15 -9 -3 -15 -18 -15 -36 0 -16 -4 -30 -10 -30 -5 0 -10 20
-10 45 0 41 2 45 25 45 14 0 25 -4 25 -9z m78 -9 c3 -9 -4 -11 -25 -8 l-28 6
28 -12 c39 -17 34 -53 -7 -53 -16 0 -31 6 -34 13 -3 9 4 11 25 7 l28 -6 -27
16 c-27 15 -35 34 -21 49 11 11 56 2 61 -12z m142 -27 c0 -25 -4 -45 -10 -45
-5 0 -10 20 -10 45 0 25 5 45 10 45 6 0 10 -20 10 -45z m88 -2 c2 -26 -1 -43
-7 -43 -6 0 -11 16 -11 35 0 24 -5 35 -15 35 -10 0 -15 -11 -15 -35 0 -19 -4
-35 -10 -35 -5 0 -10 21 -10 46 0 45 0 45 33 42 30 -3 32 -6 35 -45z m90 29
c3 -9 -4 -11 -25 -8 l-28 6 28 -12 c39 -17 34 -53 -7 -53 -16 0 -31 6 -34 13
-3 9 4 11 25 7 l28 -6 -27 16 c-27 15 -35 34 -21 49 11 11 56 2 61 -12z m146
2 c3 -9 6 -29 6 -45 0 -29 -2 -30 -37 -27 -49 4 -59 38 -16 56 l28 12 -27 -5
c-26 -5 -36 4 -21 18 13 13 61 7 67 -9z m214 -31 c2 -26 -1 -43 -7 -43 -6 0
-11 16 -11 35 0 24 -5 35 -15 35 -10 0 -15 -11 -15 -35 0 -19 -4 -35 -10 -35
-5 0 -10 16 -10 35 0 24 -5 35 -15 35 -10 0 -15 -11 -15 -35 0 -19 -4 -35 -10
-35 -5 0 -10 20 -10 45 l0 46 58 -3 57 -3 3 -42z m91 33 c6 -7 8 -27 5 -45 -5
-25 -11 -31 -33 -31 -32 0 -51 16 -51 45 0 41 53 62 79 31z m99 -33 c4 -50
-15 -59 -20 -10 -2 20 -8 32 -18 32 -10 0 -16 -12 -18 -32 -5 -50 -22 -39 -22
13 l0 45 38 -3 c36 -3 37 -4 40 -45z m142 2 c0 -25 -4 -45 -10 -45 -5 0 -10
20 -10 45 0 25 5 45 10 45 6 0 10 -20 10 -45z m88 -2 c2 -26 -1 -43 -7 -43 -6
0 -11 16 -11 35 0 24 -5 35 -15 35 -10 0 -15 -11 -15 -35 0 -19 -4 -35 -10
-35 -5 0 -10 21 -10 46 0 45 0 45 33 42 30 -3 32 -6 35 -45z m92 11 c0 -45 24
-42 28 4 5 49 22 38 22 -13 0 -44 0 -45 -34 -45 -37 0 -46 12 -46 61 0 19 5
29 15 29 11 0 15 -11 15 -36z m145 -9 c0 -36 -3 -40 -27 -43 -16 -2 -28 -9
-28 -18 0 -8 -4 -14 -10 -14 -6 0 -10 27 -10 61 l0 60 38 -3 c36 -3 37 -4 37
-43z m193 33 c7 -7 12 -21 12 -33 0 -12 -5 -26 -12 -33 -7 -7 -21 -12 -33 -12
-12 0 -26 5 -33 12 -7 7 -12 21 -12 33 0 12 5 26 12 33 7 7 21 12 33 12 12 0
26 -5 33 -12z m-1848 -68 c0 -5 -7 -10 -15 -10 -8 0 -15 5 -15 10 0 6 7 10 15
10 8 0 15 -4 15 -10z m-1640 -190 l0 -60 -39 0 c-31 0 -41 4 -46 21 -12 36 3
69 30 69 16 0 25 6 25 15 0 8 7 15 15 15 12 0 15 -13 15 -60z m580 -1 l0 -60
-37 3 c-37 3 -38 4 -38 43 0 36 3 40 28 43 15 2 27 9 27 18 0 8 5 14 10 14 6
0 10 -27 10 -61z m575 40 c5 -14 0 -31 -14 -50 -21 -29 -21 -29 -1 -29 11 0
20 -4 20 -10 0 -5 -18 -10 -40 -10 -38 0 -52 12 -30 25 5 3 19 19 30 35 19 27
20 31 5 36 -10 4 -21 1 -25 -7 -11 -17 -24 -5 -17 16 10 24 64 20 72 -6z m97
-26 c3 -27 3 -54 0 -60 -5 -15 -32 -17 -32 -3 0 6 -11 10 -25 10 -31 0 -31 10
0 60 34 54 52 52 57 -7z m478 32 c0 -9 9 -15 24 -15 26 0 36 -16 36 -61 0 -19
-5 -29 -15 -29 -10 0 -15 11 -15 35 0 24 -5 35 -15 35 -10 0 -15 -11 -15 -35
0 -19 -4 -35 -10 -35 -6 0 -10 27 -10 60 0 33 4 60 10 60 6 0 10 -7 10 -15z
m1030 5 c0 -5 -7 -10 -15 -10 -8 0 -15 5 -15 10 0 6 7 10 15 10 8 0 15 -4 15
-10z m120 0 c0 -5 -4 -10 -10 -10 -5 0 -10 5 -10 10 0 6 5 10 10 10 6 0 10 -4
10 -10z m290 0 c0 -5 -7 -10 -15 -10 -8 0 -15 5 -15 10 0 6 7 10 15 10 8 0 15
-4 15 -10z m390 0 c0 -5 -6 -10 -12 -10 -10 0 -9 -3 1 -9 9 -6 10 -11 2 -15
-6 -4 -11 -23 -11 -42 0 -22 -5 -34 -14 -34 -17 0 -27 76 -14 103 9 18 48 24
48 7z m-2644 -14 c9 -9 10 -17 4 -21 -13 -8 -13 -55 0 -55 6 0 10 -4 10 -10 0
-5 -9 -10 -20 -10 -16 0 -20 7 -20 34 0 19 -4 38 -10 41 -6 4 -5 11 3 20 15
18 16 18 33 1z m770 0 c9 -9 10 -17 4 -21 -14 -9 -13 -48 3 -64 10 -10 7 -12
-13 -9 -21 2 -26 10 -30 44 -9 63 4 81 36 50z m282 -3 c12 -12 13 -18 4 -21
-14 -4 -16 -52 -2 -52 6 0 10 -5 10 -11 0 -6 -8 -9 -17 -7 -25 5 -40 108 -16
108 2 0 12 -8 21 -17z m738 3 c9 -9 10 -17 4 -21 -13 -8 -13 -55 0 -55 6 0 10
-4 10 -10 0 -5 -9 -10 -20 -10 -16 0 -20 7 -20 34 0 19 -4 38 -10 41 -6 4 -5
11 3 20 15 18 16 18 33 1z m412 -3 c12 -12 13 -18 4 -21 -14 -4 -16 -52 -2
-52 6 0 10 -5 10 -11 0 -6 -8 -9 -17 -7 -25 5 -40 108 -16 108 2 0 12 -8 21
-17z m-3030 -51 l3 -43 -38 3 c-48 4 -56 30 -16 53 22 12 24 15 8 14 -31 -2
-37 0 -30 12 4 5 21 9 38 7 30 -3 32 -6 35 -46z m38 22 l7 -27 14 27 c7 14 18
26 23 26 13 0 13 0 -11 -64 -16 -40 -27 -56 -40 -56 -21 0 -26 16 -6 23 9 3 8
14 -4 50 -13 38 -14 47 -3 47 8 0 17 -12 20 -26z m132 8 c3 -9 -4 -11 -25 -7
l-28 6 28 -16 c38 -22 32 -49 -11 -53 -24 -2 -32 1 -32 13 0 12 7 14 28 10
l27 -6 -27 16 c-27 15 -35 34 -21 49 11 11 56 2 61 -12z m130 -29 l3 -43 -35
0 c-20 0 -36 2 -36 4 0 2 -3 11 -6 20 -4 10 4 20 28 31 30 14 30 15 6 10 -16
-3 -28 -2 -28 3 0 16 14 23 40 20 22 -3 25 -8 28 -45z m96 31 c12 -31 7 -74
-9 -74 -10 0 -15 11 -15 35 0 24 -5 35 -15 35 -10 0 -15 -11 -15 -35 0 -19 -4
-35 -10 -35 -5 0 -10 20 -10 45 0 44 0 45 34 45 22 0 36 -6 40 -16z m186 -19
c0 -24 5 -35 15 -35 10 0 15 11 15 35 0 19 5 35 10 35 6 0 10 -21 10 -46 0
-45 0 -45 -32 -42 -31 3 -33 6 -36 46 -2 25 1 42 7 42 6 0 11 -16 11 -35z
m149 13 c12 -34 -2 -63 -33 -66 -14 -2 -26 -10 -26 -18 0 -8 -4 -14 -10 -14
-6 0 -10 27 -10 60 l0 60 35 0 c28 0 38 -5 44 -22z m196 -23 c0 -38 -2 -40
-32 -43 -27 -3 -35 1 -44 21 -17 38 4 69 44 65 30 -3 32 -5 32 -43z m429 23
c10 -40 7 -68 -9 -68 -11 0 -15 11 -15 36 0 45 -24 42 -28 -4 -4 -44 -22 -40
-22 4 0 45 -24 42 -28 -4 -5 -49 -22 -38 -22 13 l0 45 59 0 c52 0 59 -2 65
-22z m95 0 c14 -38 -2 -63 -40 -63 -30 0 -34 3 -37 28 -5 43 4 57 38 57 23 0
33 -6 39 -22z m89 -25 c2 -26 -1 -43 -7 -43 -6 0 -11 16 -11 35 0 24 -5 35
-15 35 -10 0 -15 -11 -15 -35 0 -19 -4 -35 -10 -35 -5 0 -10 21 -10 46 0 45 0
45 33 42 30 -3 32 -6 35 -45z m242 31 c0 -11 -6 -14 -21 -9 -15 5 -19 4 -15
-4 4 -6 13 -11 21 -11 16 0 26 -23 15 -39 -9 -16 -62 -10 -68 7 -3 9 3 11 22
6 33 -8 34 3 1 16 -24 9 -32 29 -18 43 14 14 63 7 63 -9z m195 -29 c0 -38 -2
-40 -32 -43 -27 -3 -35 1 -44 21 -17 38 4 69 44 65 30 -3 32 -5 32 -43z m147
21 c12 -23 15 -23 43 -10 l30 14 -28 -5 c-21 -4 -28 -2 -25 7 3 7 18 13 34 13
27 0 29 -3 32 -42 3 -43 3 -43 -31 -43 -24 0 -37 6 -42 18 -6 16 -7 16 -16 0
-6 -10 -21 -18 -34 -18 -16 0 -25 -6 -25 -15 0 -8 -4 -15 -10 -15 -6 0 -10 27
-10 60 l0 60 35 0 c26 0 37 -6 47 -24z m125 4 c3 -11 9 -20 13 -20 4 0 10 9
13 20 3 11 10 20 16 20 15 0 14 -7 -8 -65 -14 -38 -25 -51 -42 -54 -23 -3 -23
-2 -7 15 15 17 15 23 2 53 -17 40 -18 51 -3 51 6 0 13 -9 16 -20z m221 -27 l3
-43 -35 0 c-20 0 -36 2 -36 4 0 2 -3 11 -6 20 -4 10 4 20 28 31 30 14 30 15 6
10 -16 -3 -28 -2 -28 3 0 16 14 23 40 20 22 -3 25 -8 28 -45z m96 31 c12 -31
7 -74 -9 -74 -10 0 -15 11 -15 35 0 24 -5 35 -15 35 -10 0 -15 -11 -15 -35 0
-19 -4 -35 -10 -35 -5 0 -10 20 -10 45 0 44 0 45 34 45 22 0 36 -6 40 -16z
m96 -29 c0 -25 -4 -45 -10 -45 -5 0 -10 20 -10 45 0 25 5 45 10 45 6 0 10 -20
10 -45z m94 29 c5 -13 1 -14 -24 -9 -27 6 -30 4 -30 -20 0 -24 3 -26 30 -20
25 5 29 4 24 -9 -4 -10 -18 -16 -35 -16 -37 0 -57 36 -40 69 14 25 66 29 75 5z
m36 -29 c0 -25 -4 -45 -10 -45 -5 0 -10 20 -10 45 0 25 5 45 10 45 6 0 10 -20
10 -45z m95 0 c0 -36 -3 -40 -27 -43 -16 -2 -28 -9 -28 -18 0 -8 -4 -14 -10
-14 -6 0 -10 27 -10 61 l0 60 38 -3 c36 -3 37 -4 37 -43z m93 -3 l3 -43 -38 3
c-48 4 -56 30 -16 53 22 12 24 15 8 14 -31 -2 -37 0 -30 12 4 5 21 9 38 7 30
-3 32 -6 35 -46z m92 3 c0 -25 -4 -45 -10 -45 -5 0 -10 20 -10 45 0 25 5 45
10 45 6 0 10 -20 10 -45z m95 0 c0 -38 -2 -40 -32 -43 -27 -3 -35 1 -44 21
-17 38 4 69 44 65 30 -3 32 -5 32 -43z m93 -2 c2 -26 -1 -43 -7 -43 -6 0 -11
16 -11 35 0 24 -5 35 -15 35 -10 0 -15 -11 -15 -35 0 -24 -5 -35 -15 -35 -11
0 -15 12 -15 46 l0 45 38 -3 c36 -3 37 -4 40 -45z m143 26 c16 -30 -3 -69 -34
-69 -29 0 -47 17 -47 45 0 45 60 63 81 24z m-1065 -65 c-3 -9 -6 -20 -6 -25 0
-5 -4 -9 -10 -9 -5 0 -10 11 -10 25 0 16 6 25 16 25 11 0 14 -5 10 -16z
m-2486 -134 c0 -5 -7 -10 -15 -10 -8 0 -15 5 -15 10 0 6 7 10 15 10 8 0 15 -4
15 -10z m360 -50 c0 -33 -4 -60 -10 -60 -6 0 -10 27 -10 60 0 33 4 60 10 60 6
0 10 -27 10 -60z m40 0 c0 -33 -4 -60 -10 -60 -6 0 -10 27 -10 60 0 33 4 60
10 60 6 0 10 -27 10 -60z m680 50 c0 -5 -7 -10 -15 -10 -8 0 -15 5 -15 10 0 6
7 10 15 10 8 0 15 -4 15 -10z m90 -4 c0 -9 12 -16 28 -18 24 -3 27 -7 30 -45
4 -50 -15 -59 -20 -10 -2 20 -8 32 -18 32 -10 0 -16 -12 -18 -32 -6 -57 -22
-36 -22 27 0 33 4 60 10 60 6 0 10 -6 10 -14z m340 -46 l0 -60 -33 0 c-38 0
-57 15 -57 45 0 26 18 45 42 45 10 0 18 7 18 15 0 8 7 15 15 15 12 0 15 -13
15 -60z m40 50 c0 -5 -7 -10 -15 -10 -8 0 -15 5 -15 10 0 6 7 10 15 10 8 0 15
-4 15 -10z m730 -5 c0 -9 9 -15 24 -15 16 0 26 -7 30 -22 10 -40 7 -68 -9 -68
-10 0 -15 11 -15 35 0 24 -5 35 -15 35 -10 0 -15 -11 -15 -35 0 -19 -4 -35
-10 -35 -6 0 -10 27 -10 60 0 33 4 60 10 60 6 0 10 -7 10 -15z m633 4 c-6 -6
-9 -18 -6 -25 3 -8 0 -14 -6 -14 -6 0 -11 -16 -11 -35 0 -49 -17 -44 -22 8 -6
51 6 77 34 77 16 0 19 -3 11 -11z m-2687 -13 c9 -9 10 -17 4 -21 -13 -8 -13
-52 0 -60 6 -3 10 1 10 10 0 9 15 23 33 31 29 14 30 15 5 9 -21 -4 -28 -2 -28
10 0 12 8 15 33 13 30 -3 32 -6 35 -46 l3 -42 -63 2 -63 3 -5 41 c-9 63 4 81
36 50z m550 0 c9 -9 10 -17 4 -21 -13 -8 -13 -52 0 -60 6 -3 10 -1 10 5 0 6
10 8 26 4 19 -5 25 -4 20 5 -4 6 -13 11 -21 11 -16 0 -26 23 -15 39 8 15 62
11 58 -4 -2 -5 -12 -9 -23 -7 -15 2 -13 -2 8 -13 17 -10 27 -23 25 -33 -3 -14
-15 -17 -63 -17 l-60 0 -5 41 c-9 63 4 81 36 50z m350 0 c9 -9 10 -17 4 -21
-13 -8 -13 -55 0 -55 6 0 10 -4 10 -10 0 -5 -9 -10 -20 -10 -16 0 -20 7 -20
34 0 19 -4 38 -10 41 -6 4 -10 -10 -10 -34 0 -30 -4 -41 -15 -41 -11 0 -15 12
-15 45 0 41 2 45 25 45 14 0 25 5 25 10 0 14 9 12 26 -4z m930 0 c9 -9 10 -17
4 -21 -14 -9 -13 -48 3 -64 10 -10 7 -12 -13 -9 -21 2 -26 10 -30 44 -9 63 4
81 36 50z m1550 0 c9 -9 10 -17 4 -21 -14 -9 -13 -48 3 -64 10 -10 7 -12 -13
-9 -21 2 -26 10 -30 44 -9 63 4 81 36 50z m-3606 -51 c0 -33 -4 -45 -15 -45
-11 0 -15 12 -15 45 0 33 4 45 15 45 11 0 15 -12 15 -45z m88 -2 c4 -50 -15
-59 -20 -10 -2 20 -8 32 -18 32 -10 0 -16 -12 -18 -32 -5 -50 -22 -39 -22 13
l0 45 38 -3 c36 -3 37 -4 40 -45z m84 32 c-2 -5 -13 -9 -25 -7 -19 2 -18 0 6
-13 39 -22 32 -50 -12 -50 -19 0 -36 6 -39 13 -3 9 3 11 24 6 19 -5 25 -4 20
5 -4 6 -13 11 -21 11 -15 0 -24 19 -17 38 5 15 69 12 64 -3z m366 -32 c2 -34
0 -43 -12 -43 -12 0 -16 10 -16 35 0 19 -4 35 -10 35 -5 0 -10 -16 -10 -35 0
-24 -5 -35 -15 -35 -10 0 -15 11 -15 35 0 19 -4 35 -10 35 -5 0 -10 -16 -10
-35 0 -24 -5 -35 -15 -35 -11 0 -15 12 -15 45 l0 46 63 -3 62 -3 3 -42z m87 2
c0 -39 -1 -40 -35 -40 -31 0 -35 3 -38 28 -5 46 4 59 40 55 31 -3 33 -5 33
-43z m93 -2 c2 -26 -1 -43 -7 -43 -6 0 -11 16 -11 35 0 24 -5 35 -15 35 -10 0
-15 -11 -15 -35 0 -19 -4 -35 -10 -35 -5 0 -10 21 -10 46 0 45 0 45 33 42 30
-3 32 -6 35 -45z m229 20 l7 -28 6 24 c8 33 28 38 39 10 l8 -24 7 23 c8 24 26
30 26 8 0 -27 -22 -76 -35 -76 -8 0 -16 10 -18 23 l-4 22 -8 -22 c-11 -35 -33
-27 -44 15 -13 46 -13 52 -1 52 5 0 13 -12 17 -27z m417 11 c3 -9 6 -29 6 -45
0 -29 -2 -30 -37 -27 -49 4 -59 38 -16 56 l28 12 -27 -5 c-26 -5 -36 4 -21 18
13 13 61 7 67 -9z m186 -29 c0 -25 -4 -45 -10 -45 -5 0 -10 20 -10 45 0 25 5
45 10 45 6 0 10 -20 10 -45z m80 29 c0 -11 -6 -14 -21 -9 -15 5 -19 4 -15 -4
4 -6 13 -11 21 -11 16 0 26 -23 15 -39 -9 -16 -62 -10 -68 7 -3 9 3 11 22 6
33 -8 34 3 1 16 -24 9 -32 29 -18 43 14 14 63 7 63 -9z m93 4 c4 -10 7 -10 18
0 30 28 79 7 79 -33 0 -40 -49 -61 -79 -32 -11 10 -14 10 -18 0 -3 -7 -18 -13
-34 -13 -37 0 -57 36 -40 69 13 23 66 30 74 9z m137 -24 c0 -45 24 -42 28 4 5
49 22 38 22 -13 0 -44 0 -45 -34 -45 -37 0 -46 12 -46 61 0 19 5 29 15 29 11
0 15 -11 15 -36z m138 -11 c2 -26 -1 -43 -7 -43 -6 0 -11 16 -11 35 0 24 -5
35 -15 35 -10 0 -15 -11 -15 -35 0 -19 -4 -35 -10 -35 -5 0 -10 21 -10 46 0
45 0 45 33 42 30 -3 32 -6 35 -45z m240 29 c3 -9 -3 -11 -22 -6 -23 5 -26 3
-26 -21 0 -24 3 -26 26 -21 19 5 25 3 22 -6 -6 -18 -46 -22 -64 -8 -17 15 -18
52 -2 68 16 16 60 12 66 -6z m186 2 c3 -9 6 -29 6 -45 0 -29 -2 -30 -37 -27
-49 4 -59 38 -16 56 l28 12 -27 -5 c-26 -5 -36 4 -21 18 13 13 61 7 67 -9z
m94 -31 c4 -50 -15 -59 -20 -10 -2 20 -8 32 -18 32 -10 0 -16 -12 -18 -32 -5
-50 -22 -39 -22 13 l0 45 38 -3 c36 -3 37 -4 40 -45z m102 3 c0 -65 -7 -76
-46 -76 -40 0 -46 19 -6 21 20 1 22 2 7 6 -30 8 -45 23 -45 47 0 31 19 46 57
46 32 0 33 -1 33 -44z m90 25 c15 -30 -4 -71 -33 -71 -29 0 -47 17 -47 45 0
44 60 63 80 26z m139 -3 c14 -38 -2 -63 -40 -63 -30 0 -34 3 -37 28 -5 43 4
57 38 57 23 0 33 -6 39 -22z m200 0 c12 -34 -2 -63 -33 -66 -14 -2 -26 -10
-26 -18 0 -8 -4 -14 -10 -14 -6 0 -10 27 -10 60 l0 60 35 0 c28 0 38 -5 44
-22z m89 -26 l3 -43 -38 3 c-51 4 -57 32 -11 54 29 13 30 14 6 9 -21 -4 -28
-2 -28 10 0 12 8 15 33 13 30 -3 32 -6 35 -46z m39 28 c3 -11 9 -20 13 -20 4
0 10 9 13 20 3 11 10 20 16 20 15 0 14 -7 -8 -65 -14 -38 -25 -51 -42 -54 -23
-3 -23 -2 -7 15 15 17 15 23 2 53 -17 40 -18 51 -3 51 6 0 13 -9 16 -20z m191
-27 c2 -34 0 -43 -12 -43 -12 0 -16 10 -16 35 0 19 -4 35 -10 35 -5 0 -10 -16
-10 -35 0 -24 -5 -35 -15 -35 -10 0 -15 11 -15 35 0 19 -4 35 -10 35 -5 0 -10
-16 -10 -35 0 -24 -5 -35 -15 -35 -11 0 -15 12 -15 45 l0 46 63 -3 62 -3 3
-42z m87 2 c0 -39 -1 -40 -35 -40 -31 0 -35 3 -38 28 -5 46 4 59 40 55 31 -3
33 -5 33 -43z m93 -2 c2 -26 -1 -43 -7 -43 -6 0 -11 16 -11 35 0 24 -5 35 -15
35 -10 0 -15 -11 -15 -35 0 -24 -5 -35 -15 -35 -11 0 -15 12 -15 46 l0 45 38
-3 c36 -3 37 -4 40 -45z m-1442 -39 c-3 -9 -6 -20 -6 -25 0 -5 -4 -9 -10 -9
-5 0 -10 11 -10 25 0 16 6 25 16 25 11 0 14 -5 10 -16z m-2046 -184 l0 -60
-39 0 c-31 0 -41 4 -46 21 -12 36 3 69 30 69 16 0 25 6 25 15 0 8 7 15 15 15
12 0 15 -13 15 -60z m700 50 c0 -5 -7 -10 -15 -10 -8 0 -15 5 -15 10 0 6 7 10
15 10 8 0 15 -4 15 -10z m250 0 c0 -5 -7 -10 -15 -10 -8 0 -15 5 -15 10 0 6 7
10 15 10 8 0 15 -4 15 -10z m390 0 c0 -5 -6 -10 -12 -10 -10 0 -9 -3 1 -9 9
-6 10 -11 2 -15 -6 -4 -11 -23 -11 -42 0 -19 -4 -34 -10 -34 -5 0 -10 15 -10
33 0 18 -5 38 -12 45 -9 9 -9 12 0 12 7 0 12 7 12 15 0 8 9 15 20 15 11 0 20
-4 20 -10z m80 0 c0 -5 -7 -10 -15 -10 -8 0 -15 5 -15 10 0 6 7 10 15 10 8 0
15 -4 15 -10z m360 -50 c0 -33 -4 -60 -10 -60 -6 0 -10 27 -10 60 0 33 4 60
10 60 6 0 10 -27 10 -60z m40 0 c0 -33 -4 -60 -10 -60 -6 0 -10 27 -10 60 0
33 4 60 10 60 6 0 10 -27 10 -60z m640 50 c0 -5 -7 -10 -15 -10 -8 0 -15 5
-15 10 0 6 7 10 15 10 8 0 15 -4 15 -10z m230 -5 c0 -9 9 -15 24 -15 16 0 26
-7 30 -22 10 -40 7 -68 -9 -68 -10 0 -15 11 -15 35 0 24 -5 35 -15 35 -10 0
-15 -11 -15 -35 0 -19 -4 -35 -10 -35 -6 0 -10 27 -10 60 0 33 4 60 10 60 6 0
10 -7 10 -15z m260 -23 l25 -37 3 38 c5 60 22 43 22 -23 0 -73 -14 -77 -52
-17 l-28 42 0 -42 c0 -24 -4 -43 -10 -43 -6 0 -10 27 -10 60 0 71 13 77 50 22z
m190 23 c0 -9 9 -15 24 -15 28 0 41 -28 32 -66 -5 -20 -12 -24 -46 -24 l-40 0
0 60 c0 47 3 60 15 60 8 0 15 -7 15 -15z m280 -12 c0 -21 3 -24 12 -15 7 7 19
12 27 12 11 0 10 -4 -4 -20 -18 -20 -18 -21 5 -45 27 -28 8 -35 -22 -8 -17 15
-18 15 -18 0 0 -10 -4 -17 -10 -17 -6 0 -10 27 -10 60 0 33 4 60 10 60 6 0 10
-12 10 -27z m-3282 0 c12 -12 13 -18 4 -21 -14 -4 -16 -52 -2 -52 6 0 10 -5
10 -11 0 -6 -8 -9 -17 -7 -25 5 -40 108 -16 108 2 0 12 -8 21 -17z m608 3 c9
-9 10 -17 4 -21 -14 -9 -13 -48 3 -64 10 -10 7 -12 -13 -9 -21 2 -26 10 -30
44 -9 63 4 81 36 50z m900 0 c9 -9 10 -17 4 -21 -14 -9 -13 -48 3 -64 10 -10
7 -12 -13 -9 -21 2 -26 10 -30 44 -9 63 4 81 36 50z m550 0 c9 -9 10 -17 4
-21 -13 -8 -13 -52 0 -60 6 -3 10 -1 10 5 0 6 10 8 26 4 19 -5 25 -4 20 5 -4
6 -13 11 -21 11 -16 0 -26 23 -15 39 8 15 62 11 58 -4 -2 -5 -12 -9 -23 -7
-15 2 -13 -2 8 -13 17 -10 27 -23 25 -33 -3 -14 -15 -17 -63 -17 l-60 0 -5 41
c-9 63 4 81 36 50z m442 -3 c12 -12 13 -18 4 -21 -14 -4 -16 -38 -2 -47 17
-10 11 -27 -7 -23 -25 5 -40 108 -16 108 2 0 12 -8 21 -17z m-2550 -51 l3 -43
-38 3 c-48 4 -56 30 -16 53 22 12 24 15 8 14 -31 -2 -37 0 -30 12 4 5 21 9 38
7 30 -3 32 -6 35 -46z m147 3 c0 -39 -1 -40 -35 -40 -31 0 -35 3 -38 28 -5 46
4 59 40 55 31 -3 33 -5 33 -43z m233 -2 c2 -34 0 -43 -12 -43 -12 0 -16 10
-16 35 0 19 -4 35 -10 35 -5 0 -10 -16 -10 -35 0 -24 -5 -35 -15 -35 -10 0
-15 11 -15 35 0 19 -4 35 -10 35 -5 0 -10 -16 -10 -35 0 -24 -5 -35 -15 -35
-11 0 -15 12 -15 45 l0 46 63 -3 62 -3 3 -42z m93 26 c16 -30 -3 -69 -34 -69
-29 0 -47 17 -47 45 0 45 60 63 81 24z m93 5 c12 -31 7 -74 -9 -74 -10 0 -15
11 -15 35 0 24 -5 35 -15 35 -10 0 -15 -11 -15 -35 0 -19 -4 -35 -10 -35 -5 0
-10 20 -10 45 0 44 0 45 34 45 22 0 36 -6 40 -16z m36 -29 c0 -25 -4 -45 -10
-45 -5 0 -10 20 -10 45 0 25 5 45 10 45 6 0 10 -20 10 -45z m148 33 c28 -28 7
-78 -33 -78 -27 0 -45 18 -45 45 0 27 18 45 45 45 12 0 26 -5 33 -12z m72 3
c0 -5 -7 -11 -15 -15 -9 -3 -15 -18 -15 -36 0 -16 -4 -30 -10 -30 -5 0 -10 20
-10 45 0 41 2 45 25 45 14 0 25 -4 25 -9z m30 -36 c0 -25 -4 -45 -10 -45 -5 0
-10 20 -10 45 0 25 5 45 10 45 6 0 10 -20 10 -45z m94 29 c12 -31 7 -74 -9
-74 -10 0 -15 11 -15 35 0 24 -5 35 -15 35 -10 0 -15 -11 -15 -35 0 -19 -4
-35 -10 -35 -5 0 -10 20 -10 45 0 44 0 45 34 45 22 0 36 -6 40 -16z m106 -32
c0 -55 -12 -72 -51 -72 -41 0 -47 20 -7 21 27 1 29 3 8 6 -29 6 -40 19 -40 49
0 29 19 44 57 44 33 0 33 0 33 -48z m128 36 c28 -28 7 -78 -33 -78 -27 0 -45
18 -45 45 0 27 18 45 45 45 12 0 26 -5 33 -12z m152 -33 c0 -33 -4 -45 -15
-45 -11 0 -15 12 -15 45 0 33 4 45 15 45 11 0 15 -12 15 -45z m88 -2 c4 -50
-15 -59 -20 -10 -2 20 -8 32 -18 32 -10 0 -16 -12 -18 -32 -5 -50 -22 -39 -22
13 l0 45 38 -3 c36 -3 37 -4 40 -45z m84 32 c-2 -5 -13 -9 -25 -7 -19 2 -18 0
6 -13 39 -22 32 -50 -12 -50 -19 0 -36 6 -39 13 -3 9 3 11 24 6 19 -5 25 -4
20 5 -4 6 -13 11 -21 11 -15 0 -24 19 -17 38 5 15 69 12 64 -3z m146 -32 l3
-43 -35 0 c-20 0 -36 2 -36 4 0 2 -3 11 -6 20 -4 10 4 20 28 31 30 14 30 15 6
10 -16 -3 -28 -2 -28 3 0 16 14 23 40 20 22 -3 25 -8 28 -45z m220 0 c2 -34 0
-43 -12 -43 -12 0 -16 10 -16 35 0 19 -4 35 -10 35 -5 0 -10 -16 -10 -35 0
-24 -5 -35 -15 -35 -10 0 -15 11 -15 35 0 19 -4 35 -10 35 -5 0 -10 -16 -10
-35 0 -24 -5 -35 -15 -35 -11 0 -15 12 -15 45 l0 46 63 -3 62 -3 3 -42z m92
28 c15 -30 -4 -71 -33 -71 -29 0 -47 17 -47 45 0 44 60 63 80 26z m88 -28 c2
-26 -1 -43 -7 -43 -6 0 -11 16 -11 35 0 24 -5 35 -15 35 -10 0 -15 -11 -15
-35 0 -19 -4 -35 -10 -35 -5 0 -10 21 -10 46 0 45 0 45 33 42 30 -3 32 -6 35
-45z m229 27 c3 -11 9 -20 13 -20 4 0 10 9 13 20 5 20 27 29 27 11 0 -19 -31
-81 -40 -81 -9 0 -40 62 -40 81 0 18 22 9 27 -11z m93 -25 c0 -33 -4 -45 -15
-45 -11 0 -15 12 -15 45 0 33 4 45 15 45 11 0 15 -12 15 -45z m84 29 c3 -9 6
-29 6 -45 0 -29 -2 -30 -37 -27 -49 4 -59 38 -16 56 l28 12 -27 -5 c-26 -5
-36 4 -21 18 13 13 61 7 67 -9z m291 -29 c0 -39 -1 -40 -35 -40 -31 0 -35 3
-38 28 -5 46 4 59 40 55 31 -3 33 -5 33 -43z m207 13 c2 -21 8 -33 18 -33 10
0 16 12 18 33 5 49 22 38 22 -14 l0 -45 -37 3 c-37 3 -38 4 -41 46 -4 49 15
58 20 10z m246 -16 l3 -43 -38 3 c-48 4 -56 30 -16 53 22 12 24 15 8 14 -31
-2 -37 0 -30 12 4 5 21 9 38 7 30 -3 32 -6 35 -46z m90 1 c2 -26 -1 -43 -7
-43 -6 0 -11 16 -11 35 0 24 -5 35 -15 35 -10 0 -15 -11 -15 -35 0 -24 -5 -35
-15 -35 -11 0 -15 12 -15 46 l0 45 38 -3 c36 -3 37 -4 40 -45z m220 0 l3 -43
-35 0 c-20 0 -36 2 -36 4 0 2 -3 11 -6 20 -4 10 4 20 28 31 30 14 30 15 6 10
-16 -3 -28 -2 -28 3 0 16 14 23 40 20 22 -3 25 -8 28 -45z m101 25 c12 -34 -2
-63 -33 -66 -14 -2 -26 -10 -26 -18 0 -8 -4 -14 -10 -14 -6 0 -10 27 -10 60
l0 60 35 0 c28 0 38 -5 44 -22z m96 -23 c0 -36 -3 -40 -27 -43 -16 -2 -28 -9
-28 -18 0 -8 -4 -14 -10 -14 -6 0 -10 27 -10 61 l0 60 38 -3 c36 -3 37 -4 37
-43z m-3515 -44 c0 -19 -17 -38 -25 -29 -7 7 7 48 16 48 5 0 9 -9 9 -19z
m-100 -181 l0 -60 -35 0 c-28 0 -38 5 -46 24 -15 32 4 66 36 66 16 0 25 6 25
15 0 8 5 15 10 15 6 0 10 -27 10 -60z m1660 50 c0 -5 -7 -10 -15 -10 -8 0 -15
5 -15 10 0 6 7 10 15 10 8 0 15 -4 15 -10z m180 0 c0 -5 -7 -10 -15 -10 -8 0
-15 5 -15 10 0 6 7 10 15 10 8 0 15 -4 15 -10z m-1562 -17 c12 -12 13 -18 4
-21 -14 -4 -16 -38 -2 -47 17 -10 11 -27 -7 -23 -25 5 -40 108 -16 108 2 0 12
-8 21 -17z m1330 0 c12 -12 13 -18 4 -21 -14 -4 -16 -52 -2 -52 6 0 10 -5 10
-11 0 -6 -8 -9 -17 -7 -25 5 -40 108 -16 108 2 0 12 -8 21 -17z m188 3 c9 -9
10 -17 4 -21 -14 -9 -13 -48 3 -64 10 -10 7 -12 -13 -9 -21 2 -26 10 -30 44
-9 63 4 81 36 50z m-1988 -54 l3 -43 -38 3 c-48 4 -56 30 -16 53 22 12 24 15
8 14 -31 -2 -37 0 -30 12 4 5 21 9 38 7 30 -3 32 -6 35 -46z m90 1 c2 -26 -1
-43 -7 -43 -6 0 -11 16 -11 35 0 24 -5 35 -15 35 -10 0 -15 -11 -15 -35 0 -24
-5 -35 -15 -35 -11 0 -15 12 -15 46 l0 45 38 -3 c36 -3 37 -4 40 -45z m236 31
c3 -9 6 -29 6 -45 0 -29 -2 -30 -37 -27 -49 4 -59 38 -16 56 l28 12 -27 -5
c-26 -5 -36 4 -21 18 13 13 61 7 67 -9z m38 -16 c2 -21 8 -33 18 -33 10 0 16
12 18 33 5 49 22 38 22 -14 l0 -45 -37 3 c-37 3 -38 4 -41 46 -4 49 15 58 20
10z m207 10 c14 -38 -2 -63 -40 -63 -30 0 -34 3 -37 28 -5 43 4 57 38 57 23 0
33 -6 39 -22z m95 6 c12 -31 7 -74 -9 -74 -10 0 -15 11 -15 35 0 24 -5 35 -15
35 -10 0 -15 -11 -15 -35 0 -19 -4 -35 -10 -35 -5 0 -10 20 -10 45 0 44 0 45
34 45 22 0 36 -6 40 -16z m95 -6 c14 -38 -2 -63 -40 -63 -30 0 -34 3 -37 28
-5 43 4 57 38 57 23 0 33 -6 39 -22z m139 -25 c2 -26 -1 -43 -7 -43 -6 0 -11
16 -11 35 0 24 -5 35 -15 35 -10 0 -15 -11 -15 -35 0 -19 -4 -35 -10 -35 -5 0
-10 16 -10 35 0 24 -5 35 -15 35 -10 0 -15 -11 -15 -35 0 -19 -4 -35 -10 -35
-5 0 -10 20 -10 45 l0 46 58 -3 57 -3 3 -42z m90 35 c28 -28 7 -78 -33 -78
-27 0 -45 18 -45 45 0 27 18 45 45 45 12 0 26 -5 33 -12z m44 -20 c2 -21 8
-33 18 -33 10 0 16 12 18 33 5 49 22 38 22 -14 l0 -45 -37 3 c-37 3 -38 4 -41
46 -4 49 15 58 20 10z m138 16 c0 -11 -6 -14 -21 -9 -15 5 -19 4 -15 -4 4 -6
13 -11 21 -11 16 0 26 -23 15 -39 -9 -16 -62 -10 -68 7 -3 9 3 11 22 6 33 -8
34 3 1 16 -24 9 -32 29 -18 43 14 14 63 7 63 -9z m190 1 c6 -8 10 -26 8 -42
-2 -23 -8 -29 -35 -31 -36 -4 -59 24 -48 58 5 15 3 18 -9 14 -10 -4 -16 -19
-16 -40 0 -24 -5 -34 -15 -34 -11 0 -15 12 -15 44 l0 45 59 0 c38 -1 64 -6 71
-14z m98 -32 c2 -26 -1 -43 -7 -43 -6 0 -11 16 -11 35 0 24 -5 35 -15 35 -10
0 -15 -11 -15 -35 0 -24 -5 -35 -15 -35 -11 0 -15 12 -15 46 l0 45 38 -3 c36
-3 37 -4 40 -45z m93 31 c11 -14 13 -14 21 0 6 10 23 16 44 16 l35 0 -3 -57
c-3 -56 -4 -58 -32 -61 -16 -2 -33 1 -39 7 -8 8 -1 11 24 12 27 1 29 3 9 6
-14 3 -33 14 -42 26 l-18 22 0 -22 c0 -18 -6 -23 -28 -23 -33 0 -52 16 -52 45
0 42 54 62 81 29z m187 4 c28 -28 7 -78 -33 -78 -27 0 -45 18 -45 45 0 27 18
45 45 45 12 0 26 -5 33 -12z m102 -33 c0 -25 -4 -45 -10 -45 -5 0 -10 20 -10
45 0 25 5 45 10 45 6 0 10 -20 10 -45z m88 -2 l3 -43 -35 0 c-20 0 -36 2 -36
4 0 2 -3 11 -6 20 -4 10 4 20 28 31 30 14 30 15 6 10 -16 -3 -28 -2 -28 3 0
16 14 23 40 20 22 -3 25 -8 28 -45z m102 2 c0 -25 -4 -45 -10 -45 -5 0 -10 20
-10 45 0 25 5 45 10 45 6 0 10 -20 10 -45z m88 33 c28 -28 7 -78 -33 -78 -27
0 -45 18 -45 45 0 27 18 45 45 45 12 0 26 -5 33 -12z m100 -35 c4 -50 -15 -59
-20 -10 -2 20 -8 32 -18 32 -10 0 -16 -12 -18 -32 -5 -50 -22 -39 -22 13 l0
45 38 -3 c36 -3 37 -4 40 -45z m42 -33 c0 -5 -7 -10 -15 -10 -8 0 -15 5 -15
10 0 6 7 10 15 10 8 0 15 -4 15 -10z m-2364 -1180 l2 -35 -5 33 c-4 28 -8 33
-24 29 -11 -3 -16 -1 -13 4 14 23 39 3 40 -31z m104 36 c0 -2 -9 -6 -20 -9
-11 -3 -20 -1 -20 4 0 5 9 9 20 9 11 0 20 -2 20 -4z m72 -74 c-3 -8 -7 -10
-11 -4 -3 5 -14 11 -24 13 -16 4 -17 6 -2 24 12 16 14 17 9 3 -4 -11 -1 -18 6
-18 6 0 11 10 10 23 -4 39 2 43 9 7 4 -19 5 -41 3 -48z m-198 19 c-2 -3 -12 3
-22 13 -16 17 -16 18 5 5 12 -7 20 -15 17 -18z m126 13 c11 -12 10 -18 -3 -32
-12 -12 -20 -13 -28 -5 -8 8 -6 11 6 10 27 -3 30 22 3 32 -15 6 -17 10 -7 10
9 1 22 -6 29 -15z m-125 -42 c-3 -3 -11 0 -18 7 -9 10 -8 11 6 5 10 -3 15 -9
12 -12z m4295 -662 c0 -59 0 -60 -28 -60 -33 0 -52 16 -52 45 0 27 18 45 47
45 14 0 23 6 23 15 0 8 2 15 5 15 3 0 5 -27 5 -60z m-284 18 c5 -8 0 -9 -14
-6 -32 9 -38 -10 -7 -22 30 -11 31 -43 2 -48 -25 -5 -50 6 -42 18 5 8 11 8 19
1 7 -6 16 -8 19 -4 12 11 8 23 -7 23 -22 0 -38 24 -24 38 15 15 45 15 54 0z
m94 -7 c15 -28 13 -31 -20 -31 -16 0 -30 -5 -30 -11 0 -7 10 -9 25 -6 16 3 24
0 22 -7 -11 -33 -67 -10 -67 28 0 44 50 63 70 27z m88 7 c14 -14 16 -78 3 -78
-6 0 -11 17 -13 38 -2 25 -8 37 -18 37 -10 0 -16 -12 -18 -37 -4 -53 -22 -47
-22 7 0 43 1 45 28 45 15 0 33 -5 40 -12z"/>
<path d="M3704 6235 c-4 -9 -2 -21 4 -27 15 -15 44 -1 40 19 -4 23 -36 29 -44
8z"/>
<path d="M5774 6235 c-4 -9 -2 -21 4 -27 15 -15 44 -1 40 19 -4 23 -36 29 -44
8z"/>
<path d="M2670 6225 c0 -18 5 -25 19 -25 20 0 31 17 24 38 -3 6 -13 12 -24 12
-14 0 -19 -7 -19 -25z"/>
<path d="M2873 6253 c-20 -7 -15 -23 7 -23 11 0 20 4 20 9 0 13 -12 19 -27 14z"/>
<path d="M3063 6253 c-20 -7 -15 -23 7 -23 11 0 20 4 20 9 0 13 -12 19 -27 14z"/>
<path d="M3343 6253 c-20 -7 -15 -23 7 -23 11 0 20 4 20 9 0 13 -12 19 -27 14z"/>
<path d="M3467 6214 c-4 -4 -4 -10 -1 -15 6 -10 34 0 34 12 0 10 -24 12 -33 3z"/>
<path d="M3610 6240 c0 -5 9 -10 20 -10 11 0 20 5 20 10 0 6 -9 10 -20 10 -11
0 -20 -4 -20 -10z"/>
<path d="M3904 6235 c-4 -9 -2 -21 4 -27 15 -15 44 -1 40 19 -4 23 -36 29 -44
8z"/>
<path d="M4084 6235 c-4 -9 -2 -21 4 -27 15 -15 44 -1 40 19 -4 23 -36 29 -44
8z"/>
<path d="M4180 6211 c0 -18 18 -21 30 -6 10 13 9 15 -9 15 -11 0 -21 -4 -21
-9z"/>
<path d="M4727 6254 c-4 -4 -7 -18 -7 -31 0 -17 6 -23 21 -23 16 0 20 5 17 27
-3 26 -18 39 -31 27z"/>
<path d="M4815 6240 c-4 -6 5 -10 20 -10 15 0 24 4 20 10 -3 6 -12 10 -20 10
-8 0 -17 -4 -20 -10z"/>
<path d="M5028 6238 c-8 -21 2 -38 23 -38 14 0 19 7 19 25 0 18 -5 25 -19 25
-10 0 -21 -6 -23 -12z"/>
<path d="M5127 6214 c-4 -4 -4 -10 -1 -15 6 -10 34 0 34 12 0 10 -24 12 -33 3z"/>
<path d="M5444 6235 c-4 -9 -2 -21 4 -27 15 -15 44 -1 40 19 -4 23 -36 29 -44
8z"/>
<path d="M5918 6238 c-8 -21 2 -38 23 -38 14 0 19 7 19 25 0 18 -5 25 -19 25
-10 0 -21 -6 -23 -12z"/>
<path d="M6350 6225 c0 -18 5 -25 20 -25 15 0 20 7 20 25 0 18 -5 25 -20 25
-15 0 -20 -7 -20 -25z"/>
<path d="M6500 6240 c0 -5 9 -10 20 -10 11 0 20 5 20 10 0 6 -9 10 -20 10 -11
0 -20 -4 -20 -10z"/>
<path d="M4760 5745 c0 -18 5 -25 19 -25 20 0 31 17 24 38 -3 6 -13 12 -24 12
-14 0 -19 -7 -19 -25z"/>
<path d="M2867 5774 c-4 -4 -7 -18 -7 -31 0 -17 6 -23 21 -23 16 0 20 5 17 27
-3 26 -18 39 -31 27z"/>
<path d="M2963 5773 c-20 -7 -15 -23 7 -23 11 0 20 4 20 9 0 13 -12 19 -27 14z"/>
<path d="M3173 5773 c-17 -6 -16 -50 1 -56 15 -6 36 11 36 29 0 16 -22 32 -37
27z"/>
<path d="M3260 5745 c0 -18 5 -25 20 -25 15 0 20 7 20 25 0 18 -5 25 -20 25
-15 0 -20 -7 -20 -25z"/>
<path d="M3358 5758 c-8 -21 2 -38 23 -38 14 0 19 7 19 25 0 18 -5 25 -19 25
-10 0 -21 -6 -23 -12z"/>
<path d="M3687 5734 c-4 -4 -4 -10 -1 -15 6 -10 34 0 34 12 0 10 -24 12 -33 3z"/>
<path d="M3875 5730 c-3 -5 3 -10 14 -10 12 0 21 5 21 10 0 6 -6 10 -14 10 -8
0 -18 -4 -21 -10z"/>
<path d="M4430 5760 c0 -5 9 -10 20 -10 11 0 20 5 20 10 0 6 -9 10 -20 10 -11
0 -20 -4 -20 -10z"/>
<path d="M4633 5773 c-17 -6 -16 -50 1 -56 15 -6 36 11 36 29 0 16 -22 32 -37
27z"/>
<path d="M5083 5773 c-17 -6 -16 -50 1 -56 15 -6 36 11 36 29 0 16 -22 32 -37
27z"/>
<path d="M5355 5760 c-4 -6 5 -10 20 -10 15 0 24 4 20 10 -3 6 -12 10 -20 10
-8 0 -17 -4 -20 -10z"/>
<path d="M5754 5755 c-4 -9 -2 -21 4 -27 15 -15 44 -1 40 19 -4 23 -36 29 -44
8z"/>
<path d="M6133 5773 c-17 -6 -16 -50 1 -56 15 -6 36 11 36 29 0 16 -22 32 -37
27z"/>
<path d="M2677 5494 c-4 -4 -4 -10 -1 -15 6 -10 34 0 34 12 0 10 -24 12 -33 3z"/>
<path d="M2953 5533 c-17 -6 -16 -50 1 -56 15 -6 36 11 36 29 0 16 -22 32 -37
27z"/>
<path d="M2710 4665 c0 -18 5 -25 20 -25 15 0 20 7 20 25 0 18 -5 25 -20 25
-15 0 -20 -7 -20 -25z"/>
<path d="M2805 4650 c-3 -5 3 -10 14 -10 12 0 21 5 21 10 0 6 -6 10 -14 10 -8
0 -18 -4 -21 -10z"/>
<path d="M2664 4429 c-10 -17 13 -36 27 -22 12 12 4 33 -11 33 -5 0 -12 -5
-16 -11z"/>
<path d="M2856 4411 c-4 -7 -5 -15 -2 -18 9 -9 19 4 14 18 -4 11 -6 11 -12 0z"/>
<path d="M3610 3825 c0 -18 5 -25 19 -25 20 0 31 17 24 38 -3 6 -13 12 -24 12
-14 0 -19 -7 -19 -25z"/>
<path d="M4078 3838 c-8 -21 2 -38 23 -38 14 0 19 7 19 25 0 18 -5 25 -19 25
-10 0 -21 -6 -23 -12z"/>
<path d="M4750 3825 c0 -18 5 -25 20 -25 15 0 20 7 20 25 0 18 -5 25 -20 25
-15 0 -20 -7 -20 -25z"/>
<path d="M3084 3835 c-4 -9 -2 -21 4 -27 15 -15 44 -1 40 19 -4 23 -36 29 -44
8z"/>
<path d="M3475 3840 c-4 -6 5 -10 20 -10 15 0 24 4 20 10 -3 6 -12 10 -20 10
-8 0 -17 -4 -20 -10z"/>
<path d="M3723 3853 c-20 -7 -15 -23 7 -23 11 0 20 4 20 9 0 13 -12 19 -27 14z"/>
<path d="M3985 3840 c-4 -6 5 -10 20 -10 15 0 24 4 20 10 -3 6 -12 10 -20 10
-8 0 -17 -4 -20 -10z"/>
<path d="M4233 3853 c-17 -6 -16 -50 1 -56 15 -6 36 11 36 29 0 16 -22 32 -37
27z"/>
<path d="M4327 3854 c-4 -4 -7 -18 -7 -31 0 -17 6 -23 21 -23 16 0 20 5 17 27
-3 26 -18 39 -31 27z"/>
<path d="M4510 3825 c0 -18 5 -25 20 -25 15 0 20 7 20 25 0 18 -5 25 -20 25
-15 0 -20 -7 -20 -25z"/>
<path d="M4845 3840 c-4 -6 5 -10 20 -10 15 0 24 4 20 10 -3 6 -12 10 -20 10
-8 0 -17 -4 -20 -10z"/>
<path d="M4974 3835 c-4 -9 -2 -21 4 -27 15 -15 44 -1 40 19 -4 23 -36 29 -44
8z"/>
<path d="M2974 3195 c-7 -18 3 -35 22 -35 8 0 14 10 14 25 0 27 -27 35 -36 10z"/>
<path d="M3390 3220 c0 -22 7 -25 29 -11 16 10 6 31 -15 31 -8 0 -14 -9 -14
-20z"/>
<path d="M6400 3225 c0 -10 7 -15 18 -13 21 4 19 22 -2 26 -10 2 -16 -3 -16
-13z"/>
<path d="M6500 3200 c0 -34 3 -41 18 -38 12 2 17 13 17 38 0 25 -5 36 -17 38
-15 3 -18 -4 -18 -38z"/>
<path d="M3070 3170 c0 -5 4 -10 9 -10 6 0 13 5 16 10 3 6 -1 10 -9 10 -9 0
-16 -4 -16 -10z"/>
<path d="M3485 3200 c-3 -5 3 -10 14 -10 12 0 21 5 21 10 0 6 -6 10 -14 10 -8
0 -18 -4 -21 -10z"/>
<path d="M3498 3163 c7 -3 16 -2 19 1 4 3 -2 6 -13 5 -11 0 -14 -3 -6 -6z"/>
<path d="M3720 3185 c0 -20 4 -26 18 -23 9 2 17 12 17 23 0 11 -8 21 -17 23
-14 3 -18 -3 -18 -23z"/>
<path d="M3915 3170 c-3 -5 1 -10 9 -10 9 0 16 5 16 10 0 6 -4 10 -9 10 -6 0
-13 -4 -16 -10z"/>
<path d="M4174 3195 c-7 -18 3 -35 22 -35 8 0 14 10 14 25 0 27 -27 35 -36 10z"/>
<path d="M4270 3170 c0 -5 4 -10 9 -10 6 0 13 5 16 10 3 6 -1 10 -9 10 -9 0
-16 -4 -16 -10z"/>
<path d="M5195 3170 c-3 -5 1 -10 9 -10 9 0 16 5 16 10 0 6 -4 10 -9 10 -6 0
-13 -4 -16 -10z"/>
<path d="M5500 3200 c0 -5 7 -10 15 -10 8 0 15 5 15 10 0 6 -7 10 -15 10 -8 0
-15 -4 -15 -10z"/>
<path d="M5508 3163 c7 -3 16 -2 19 1 4 3 -2 6 -13 5 -11 0 -14 -3 -6 -6z"/>
<path d="M6060 3185 c0 -20 4 -26 18 -23 9 2 17 12 17 23 0 11 -8 21 -17 23
-14 3 -18 -3 -18 -23z"/>
<path d="M6260 3185 c0 -20 4 -26 18 -23 9 2 17 12 17 23 0 11 -8 21 -17 23
-14 3 -18 -3 -18 -23z"/>
<path d="M2754 2955 c-7 -18 3 -35 22 -35 8 0 14 10 14 25 0 27 -27 35 -36 10z"/>
<path d="M3343 2954 c-8 -21 13 -42 28 -27 13 13 5 43 -11 43 -6 0 -13 -7 -17
-16z"/>
<path d="M2855 2930 c-3 -5 1 -10 9 -10 9 0 16 5 16 10 0 6 -4 10 -9 10 -6 0
-13 -4 -16 -10z"/>
<path d="M3165 2930 c-3 -5 1 -10 9 -10 9 0 16 5 16 10 0 6 -4 10 -9 10 -6 0
-13 -4 -16 -10z"/>
<path d="M3584 2955 c-7 -18 3 -35 22 -35 8 0 14 10 14 25 0 27 -27 35 -36 10z"/>
<path d="M3780 2945 c0 -20 4 -26 18 -23 9 2 17 12 17 23 0 11 -8 21 -17 23
-14 3 -18 -3 -18 -23z"/>
<path d="M4304 2955 c-7 -18 3 -35 22 -35 8 0 14 10 14 25 0 27 -27 35 -36 10z"/>
<path d="M4830 2945 c0 -20 4 -26 18 -23 9 2 17 12 17 23 0 11 -8 21 -17 23
-14 3 -18 -3 -18 -23z"/>
<path d="M4976 2961 c-9 -14 4 -41 20 -41 8 0 14 10 14 25 0 25 -23 35 -34 16z"/>
<path d="M5075 2930 c-3 -5 1 -10 9 -10 9 0 16 5 16 10 0 6 -4 10 -9 10 -6 0
-13 -4 -16 -10z"/>
<path d="M5335 2930 c-3 -5 1 -10 9 -10 9 0 16 5 16 10 0 6 -4 10 -9 10 -6 0
-13 -4 -16 -10z"/>
<path d="M5740 2945 c0 -20 4 -26 18 -23 9 2 17 12 17 23 0 11 -8 21 -17 23
-14 3 -18 -3 -18 -23z"/>
<path d="M5835 2930 c-3 -5 1 -10 9 -10 9 0 16 5 16 10 0 6 -4 10 -9 10 -6 0
-13 -4 -16 -10z"/>
<path d="M6020 2945 c0 -20 4 -26 18 -23 9 2 17 12 17 23 0 11 -8 21 -17 23
-14 3 -18 -3 -18 -23z"/>
<path d="M6254 2955 c-7 -18 3 -35 22 -35 8 0 14 10 14 25 0 27 -27 35 -36 10z"/>
<path d="M4210 2705 c0 -16 6 -25 15 -25 9 0 15 9 15 25 0 16 -6 25 -15 25 -9
0 -15 -9 -15 -25z"/>
<path d="M3030 2690 c0 -5 4 -10 9 -10 6 0 13 5 16 10 3 6 -1 10 -9 10 -9 0
-16 -4 -16 -10z"/>
<path d="M3330 2720 c0 -5 9 -10 21 -10 11 0 17 5 14 10 -3 6 -13 10 -21 10
-8 0 -14 -4 -14 -10z"/>
<path d="M3348 2683 c7 -3 16 -2 19 1 4 3 -2 6 -13 5 -11 0 -14 -3 -6 -6z"/>
<path d="M4075 2690 c-3 -5 1 -10 9 -10 9 0 16 5 16 10 0 6 -4 10 -9 10 -6 0
-13 -4 -16 -10z"/>
<path d="M4430 2705 c0 -27 3 -28 38 -19 39 11 17 43 -30 44 -5 0 -8 -11 -8
-25z"/>
<path d="M4520 2705 c0 -20 4 -26 18 -23 9 2 17 12 17 23 0 11 -8 21 -17 23
-14 3 -18 -3 -18 -23z"/>
<path d="M5135 2690 c-3 -5 1 -10 9 -10 9 0 16 5 16 10 0 6 -4 10 -9 10 -6 0
-13 -4 -16 -10z"/>
<path d="M5320 2705 c0 -16 6 -25 15 -25 9 0 15 9 15 25 0 16 -6 25 -15 25 -9
0 -15 -9 -15 -25z"/>
<path d="M5415 2720 c-3 -5 3 -10 14 -10 12 0 21 5 21 10 0 6 -6 10 -14 10 -8
0 -18 -4 -21 -10z"/>
<path d="M5428 2683 c7 -3 16 -2 19 1 4 3 -2 6 -13 5 -11 0 -14 -3 -6 -6z"/>
<path d="M5554 2715 c-7 -18 3 -35 22 -35 8 0 14 10 14 25 0 27 -27 35 -36 10z"/>
<path d="M5754 2715 c-7 -18 3 -35 22 -35 8 0 14 10 14 25 0 27 -27 35 -36 10z"/>
<path d="M5850 2690 c0 -5 4 -10 9 -10 6 0 13 5 16 10 3 6 -1 10 -9 10 -9 0
-16 -4 -16 -10z"/>
<path d="M6160 2720 c0 -5 9 -10 21 -10 11 0 17 5 14 10 -3 6 -13 10 -21 10
-8 0 -14 -4 -14 -10z"/>
<path d="M6178 2683 c7 -3 16 -2 19 1 4 3 -2 6 -13 5 -11 0 -14 -3 -6 -6z"/>
<path d="M2754 2475 c-7 -18 3 -35 22 -35 8 0 14 10 14 25 0 27 -27 35 -36 10z"/>
<path d="M5960 2465 c0 -20 4 -26 18 -23 9 2 17 12 17 23 0 11 -8 21 -17 23
-14 3 -18 -3 -18 -23z"/>
<path d="M2855 2450 c-3 -5 1 -10 9 -10 9 0 16 5 16 10 0 6 -4 10 -9 10 -6 0
-13 -4 -16 -10z"/>
<path d="M3000 2480 c0 -5 9 -10 21 -10 11 0 17 5 14 10 -3 6 -13 10 -21 10
-8 0 -14 -4 -14 -10z"/>
<path d="M3018 2443 c7 -3 16 -2 19 1 4 3 -2 6 -13 5 -11 0 -14 -3 -6 -6z"/>
<path d="M3324 2475 c-7 -18 3 -35 22 -35 8 0 14 10 14 25 0 27 -27 35 -36 10z"/>
<path d="M3610 2465 c0 -20 4 -26 18 -23 9 2 17 12 17 23 0 11 -8 21 -17 23
-14 3 -18 -3 -18 -23z"/>
<path d="M3894 2475 c-7 -18 3 -35 22 -35 8 0 14 10 14 25 0 27 -27 35 -36 10z"/>
<path d="M4040 2465 c0 -20 4 -26 18 -23 9 2 17 12 17 23 0 11 -8 21 -17 23
-14 3 -18 -3 -18 -23z"/>
<path d="M4515 2450 c-3 -5 1 -10 9 -10 9 0 16 5 16 10 0 6 -4 10 -9 10 -6 0
-13 -4 -16 -10z"/>
<path d="M4815 2480 c-3 -5 3 -10 14 -10 12 0 21 5 21 10 0 6 -6 10 -14 10 -8
0 -18 -4 -21 -10z"/>
<path d="M4828 2443 c7 -3 16 -2 19 1 4 3 -2 6 -13 5 -11 0 -14 -3 -6 -6z"/>
<path d="M5315 2450 c-3 -5 1 -10 9 -10 9 0 16 5 16 10 0 6 -4 10 -9 10 -6 0
-13 -4 -16 -10z"/>
<path d="M5600 2480 c0 -5 9 -10 21 -10 11 0 17 5 14 10 -3 6 -13 10 -21 10
-8 0 -14 -4 -14 -10z"/>
<path d="M5618 2443 c7 -3 16 -2 19 1 4 3 -2 6 -13 5 -11 0 -14 -3 -6 -6z"/>
<path d="M6055 2450 c-3 -5 1 -10 9 -10 9 0 16 5 16 10 0 6 -4 10 -9 10 -6 0
-13 -4 -16 -10z"/>
<path d="M6375 2450 c-3 -5 1 -10 9 -10 9 0 16 5 16 10 0 6 -4 10 -9 10 -6 0
-13 -4 -16 -10z"/>
<path d="M6464 2475 c-7 -18 3 -35 22 -35 8 0 14 10 14 25 0 27 -27 35 -36 10z"/>
<path d="M6560 2465 c0 -20 4 -26 18 -23 9 2 17 12 17 23 0 11 -8 21 -17 23
-14 3 -18 -3 -18 -23z"/>
<path d="M2940 2225 c0 -20 4 -26 18 -23 9 2 17 12 17 23 0 11 -8 21 -17 23
-14 3 -18 -3 -18 -23z"/>
<path d="M2755 2210 c-3 -5 1 -10 9 -10 9 0 16 5 16 10 0 6 -4 10 -9 10 -6 0
-13 -4 -16 -10z"/>
<path d="M3085 2210 c-3 -5 1 -10 9 -10 9 0 16 5 16 10 0 6 -4 10 -9 10 -6 0
-13 -4 -16 -10z"/>
<path d="M3324 2235 c-7 -18 3 -35 22 -35 8 0 14 10 14 25 0 27 -27 35 -36 10z"/>
<path d="M3514 2235 c-7 -18 3 -35 22 -35 8 0 14 10 14 25 0 27 -27 35 -36 10z"/>
<path d="M3750 2225 c0 -20 4 -26 18 -23 9 2 17 12 17 23 0 11 -8 21 -17 23
-14 3 -18 -3 -18 -23z"/>
<path d="M4120 2240 c0 -5 9 -10 21 -10 11 0 17 5 14 10 -3 6 -13 10 -21 10
-8 0 -14 -4 -14 -10z"/>
<path d="M4128 2203 c6 -2 18 -2 25 0 6 3 1 5 -13 5 -14 0 -19 -2 -12 -5z"/>
<path d="M4310 2240 c0 -5 7 -10 15 -10 8 0 15 5 15 10 0 6 -7 10 -15 10 -8 0
-15 -4 -15 -10z"/>
<path d="M4400 2225 c0 -20 4 -26 18 -23 9 2 17 12 17 23 0 11 -8 21 -17 23
-14 3 -18 -3 -18 -23z"/>
<path d="M4318 2203 c7 -3 16 -2 19 1 4 3 -2 6 -13 5 -11 0 -14 -3 -6 -6z"/>
<path d="M4500 2225 c0 -20 4 -26 18 -23 9 2 17 12 17 23 0 11 -8 21 -17 23
-14 3 -18 -3 -18 -23z"/>
<path d="M4695 2210 c-3 -5 1 -10 9 -10 9 0 16 5 16 10 0 6 -4 10 -9 10 -6 0
-13 -4 -16 -10z"/>
<path d="M4880 2225 c0 -20 4 -26 18 -23 9 2 17 12 17 23 0 11 -8 21 -17 23
-14 3 -18 -3 -18 -23z"/>
<path d="M6920 285 c0 -18 5 -25 19 -25 20 0 31 17 24 38 -3 6 -13 12 -24 12
-14 0 -19 -7 -19 -25z"/>
<path d="M6740 300 c0 -5 9 -10 20 -10 11 0 20 5 20 10 0 6 -9 10 -20 10 -11
0 -20 -4 -20 -10z"/>
</g>
</svg>
