<?xml version="1.0" standalone="no"?>
<!DOCTYPE svg PUBLIC "-//W3C//DTD SVG 20010904//EN"
 "http://www.w3.org/TR/2001/REC-SVG-20010904/DTD/svg10.dtd">
<svg version="1.0" xmlns="http://www.w3.org/2000/svg"
 width="959.000000pt" height="638.000000pt" viewBox="0 0 959.000000 638.000000"
 preserveAspectRatio="xMidYMid meet">

<g transform="translate(0.000000,638.000000) scale(0.100000,-0.100000)"
fill="#000000" stroke="none">
<path d="M0 3190 l0 -3190 4720 0 4720 0 0 3180 0 3180 75 0 c43 0 75 4 75 10
0 7 -1605 10 -4795 10 l-4795 0 0 -3190z m5030 2849 c0 -5 -7 -9 -15 -9 -15 0
-20 12 -9 23 8 8 24 -1 24 -14z m600 0 c0 -5 -7 -9 -15 -9 -15 0 -20 12 -9 23
8 8 24 -1 24 -14z m-3210 1 c0 -5 -11 -10 -25 -10 -24 0 -25 -2 -25 -75 0 -60
-3 -75 -15 -75 -12 0 -15 15 -15 75 0 73 -1 75 -25 75 -14 0 -25 5 -25 10 0 6
28 10 65 10 37 0 65 -4 65 -10z m1140 -13 c0 -21 4 -23 32 -19 41 6 58 -17 58
-80 0 -36 -4 -48 -15 -48 -11 0 -15 12 -15 50 0 36 -4 52 -15 56 -26 10 -45
-16 -45 -62 0 -24 -4 -44 -10 -44 -6 0 -10 35 -10 85 0 50 4 85 10 85 6 0 10
-10 10 -23z m2010 -62 c0 -50 -4 -85 -10 -85 -6 0 -10 35 -10 85 0 50 4 85 10
85 6 0 10 -35 10 -85z m250 38 l0 -47 28 27 c38 37 64 35 28 -2 l-27 -28 25
-31 c30 -34 32 -42 12 -42 -7 0 -21 11 -30 25 -9 14 -21 25 -26 25 -6 0 -10
-11 -10 -25 0 -16 -6 -25 -15 -25 -12 0 -15 16 -15 85 0 69 3 85 15 85 11 0
15 -12 15 -47z m280 37 c28 -15 43 -69 29 -108 -14 -40 -35 -52 -93 -52 l-46
0 0 85 0 85 46 0 c25 0 54 -4 64 -10z m560 -75 c0 -50 -4 -85 -10 -85 -6 0
-10 35 -10 85 0 50 4 85 10 85 6 0 10 -35 10 -85z m430 1 l0 -84 -42 0 c-52
-1 -78 20 -78 63 0 40 30 69 65 63 21 -4 25 -1 25 18 0 15 6 24 15 24 12 0 15
-16 15 -84z m66 62 c-3 -13 -6 -42 -6 -66 0 -26 -4 -41 -10 -37 -5 3 -10 33
-10 66 0 48 3 59 16 59 12 0 15 -6 10 -22z m-3826 -2 c0 -8 6 -17 13 -20 10
-5 10 -7 0 -12 -8 -3 -13 -24 -13 -49 0 -26 5 -45 13 -48 6 -2 8 -8 4 -13 -17
-18 -42 13 -45 57 -2 24 -9 47 -15 52 -9 7 -9 10 1 14 6 2 12 11 12 19 0 8 7
14 15 14 8 0 15 -6 15 -14z m150 -1 c0 -8 7 -15 15 -15 8 0 15 -4 15 -10 0 -5
-7 -10 -15 -10 -11 0 -15 -12 -15 -45 0 -33 4 -45 15 -45 8 0 15 -5 15 -11 0
-6 -10 -9 -22 -7 -20 3 -23 10 -26 53 -2 27 -9 53 -15 58 -9 7 -9 10 1 14 6 2
12 11 12 19 0 8 5 14 10 14 6 0 10 -7 10 -15z m1470 0 c0 -8 7 -15 15 -15 8 0
15 -4 15 -10 0 -5 -7 -10 -15 -10 -11 0 -15 -12 -15 -45 0 -33 4 -45 15 -45 8
0 15 -5 15 -11 0 -6 -10 -9 -22 -7 -20 3 -23 10 -26 53 -2 27 -9 53 -15 58 -9
7 -9 10 1 14 6 2 12 11 12 19 0 8 5 14 10 14 6 0 10 -7 10 -15z m-2425 -29
c13 -9 19 -26 19 -51 0 -41 -22 -65 -59 -65 -37 0 -59 24 -59 65 0 41 22 65
59 65 12 0 30 -6 40 -14z m209 -2 c9 -8 16 -24 16 -35 0 -16 -7 -19 -45 -19
-33 0 -45 -4 -45 -15 0 -20 46 -30 65 -15 20 17 32 5 15 -15 -16 -19 -60 -19
-85 -1 -13 9 -19 26 -19 51 0 58 60 88 98 49z m71 -4 c3 -11 10 -20 15 -20 5
0 14 9 20 20 6 11 18 20 26 20 13 0 12 -5 -5 -29 -12 -16 -21 -32 -21 -36 0
-4 9 -20 21 -36 17 -24 18 -29 5 -29 -8 0 -21 10 -27 22 l-12 22 -17 -22 c-29
-35 -45 -27 -23 11 19 31 19 33 0 65 -16 27 -17 32 -4 32 9 0 19 -9 22 -20z
m200 4 c20 -20 19 -78 -2 -99 -10 -11 -27 -15 -45 -13 -25 4 -28 2 -28 -24 0
-18 -5 -28 -15 -28 -12 0 -15 17 -15 89 l0 88 45 1 c27 1 50 -5 60 -14z m149
-6 c33 -46 7 -108 -44 -108 -38 0 -60 24 -60 65 0 18 7 41 16 49 23 24 70 20
88 -6z m106 12 c0 -4 -9 -10 -20 -13 -17 -4 -20 -14 -20 -56 0 -39 -4 -51 -15
-51 -12 0 -15 14 -15 64 l0 64 35 0 c19 0 35 -4 35 -8z m514 -6 c9 -8 16 -24
16 -35 0 -16 -7 -19 -45 -19 -33 0 -45 -4 -45 -15 0 -20 46 -30 65 -15 20 17
32 5 15 -15 -16 -19 -60 -19 -85 -1 -13 9 -19 26 -19 51 0 58 60 88 98 49z
m206 1 c17 -21 7 -29 -18 -14 -31 19 -52 5 -52 -36 0 -41 21 -55 52 -36 25 15
35 7 18 -14 -31 -38 -100 -3 -100 50 0 53 69 88 100 50z m135 1 c13 -9 19 -26
19 -51 0 -41 -22 -65 -59 -65 -37 0 -59 24 -59 65 0 41 22 65 59 65 12 0 30
-6 40 -14z m142 2 c15 -12 18 -118 3 -118 -5 0 -10 15 -10 33 0 56 -10 78 -34
75 -18 -3 -21 -11 -24 -55 -2 -38 -7 -53 -18 -53 -11 0 -14 15 -14 64 l0 64
42 0 c23 1 48 -4 55 -10z m73 -33 c14 -52 25 -50 41 5 7 22 18 40 26 40 16 0
17 5 -10 -65 -13 -33 -29 -60 -37 -60 -8 0 -24 27 -37 60 -27 70 -26 65 -9 65
7 0 19 -20 26 -45z m192 28 c10 -9 18 -24 18 -35 0 -15 -8 -18 -45 -18 -34 0
-45 -4 -45 -15 0 -22 29 -31 52 -16 26 16 47 2 23 -16 -29 -20 -72 -16 -89 9
-46 66 28 144 86 91z m118 7 c0 -5 -10 -10 -22 -12 -20 -3 -23 -10 -26 -55 -4
-75 -22 -66 -22 10 l0 64 35 1 c19 1 35 -3 35 -8z m99 1 c7 -5 10 -14 6 -20
-5 -9 -10 -9 -21 0 -15 12 -44 6 -44 -10 0 -5 12 -12 27 -16 30 -7 53 -23 53
-36 0 -32 -76 -53 -99 -26 -15 19 -3 28 19 15 18 -12 50 -5 50 10 0 5 -15 13
-32 18 -55 16 -49 74 7 74 11 0 26 -4 34 -9z m125 3 c12 -5 16 -20 16 -64 l0
-58 -47 2 c-43 1 -48 4 -51 25 -4 29 20 51 55 51 13 0 23 5 23 10 0 17 -31 24
-50 12 -22 -13 -34 -4 -19 15 12 14 46 17 73 7z m166 -59 c0 -51 -3 -65 -15
-65 -12 0 -15 14 -15 65 0 51 3 65 15 65 12 0 15 -14 15 -65z m134 43 c33 -46
7 -108 -44 -108 -38 0 -60 24 -60 65 0 18 7 41 16 49 23 24 70 20 88 -6z m133
10 c15 -12 18 -118 4 -118 -6 0 -11 24 -13 53 -3 48 -5 52 -28 52 -23 0 -25
-4 -28 -52 -2 -38 -7 -53 -18 -53 -11 0 -14 15 -14 64 l0 64 42 0 c23 1 48 -4
55 -10z m211 0 c16 -16 15 -28 -3 -28 -8 0 -15 5 -15 10 0 14 -33 13 -48 -2
-27 -27 -7 -78 30 -78 10 0 18 5 18 10 0 6 7 10 15 10 18 0 19 -12 3 -28 -17
-17 -64 -15 -82 4 -9 8 -16 31 -16 49 0 18 7 41 16 49 18 19 65 21 82 4z m122
-53 c0 -51 -3 -65 -15 -65 -12 0 -15 14 -15 65 0 51 3 65 15 65 12 0 15 -14
15 -65z m125 49 c22 -22 11 -30 -20 -14 -30 16 -55 0 -55 -35 0 -35 25 -51 55
-35 31 16 42 8 20 -14 -39 -39 -99 -9 -99 49 0 58 60 88 99 49z m507 -1 c22
-20 23 -70 1 -95 -36 -40 -103 -10 -103 45 0 58 60 88 102 50z m71 -30 l14
-46 13 46 c16 61 36 60 52 0 l12 -48 14 48 c7 26 19 47 27 47 10 0 9 -14 -8
-65 -12 -36 -26 -65 -33 -65 -6 0 -17 21 -25 48 l-13 47 -14 -47 c-7 -27 -19
-48 -26 -48 -11 0 -46 89 -46 118 0 29 21 8 33 -35z m267 28 c16 -31 13 -111
-4 -111 -11 0 -16 15 -18 52 -2 42 -7 54 -22 56 -25 5 -36 -14 -36 -65 0 -24
-4 -43 -10 -43 -6 0 -10 28 -10 63 l0 64 45 1 c35 2 46 -2 55 -17z m192 2 c22
-20 23 -70 1 -95 -23 -25 -68 -23 -87 4 -46 66 28 144 86 91z m136 5 c7 -7 12
-35 12 -63 l0 -52 -45 -1 c-36 -2 -46 2 -56 20 -10 18 -8 24 11 40 12 10 33
18 46 18 13 0 24 5 24 10 0 17 -31 24 -50 12 -22 -13 -34 -4 -19 15 14 16 61
17 77 1z m227 -97 c7 -12 -12 -24 -25 -16 -11 7 -4 25 10 25 5 0 11 -4 15 -9z
m-4531 -607 c9 -3 16 -13 16 -22 0 -12 -3 -13 -12 -4 -17 17 -55 15 -62 -4
-10 -25 -7 -42 10 -59 15 -14 18 -14 40 0 21 14 24 14 24 0 0 -20 -43 -30 -69
-15 -16 8 -21 20 -21 50 0 49 30 71 74 54z m716 -4 c0 -5 -4 -10 -10 -10 -5 0
-10 5 -10 10 0 6 5 10 10 10 6 0 10 -4 10 -10z m676 -20 c8 0 14 8 15 18 0 13
2 14 6 2 3 -8 11 -18 17 -22 8 -6 8 -8 0 -8 -18 0 -26 -32 -12 -42 10 -6 10
-8 1 -8 -7 0 -13 -7 -13 -15 0 -8 -4 -15 -10 -15 -5 0 -10 7 -10 15 0 8 -4 15
-10 15 -5 0 -10 -7 -10 -15 0 -22 -17 -18 -23 5 -3 11 -1 20 5 20 6 0 8 11 6
25 -3 14 -1 25 3 25 5 0 10 8 10 18 1 16 2 16 6 0 2 -10 11 -18 19 -18z m92
-32 l-2 -63 -3 53 c-3 42 -7 52 -19 48 -7 -3 -14 -1 -14 3 0 9 16 18 33 20 4
1 6 -27 5 -61z m240 0 l-2 -63 -3 53 c-3 42 -7 52 -19 48 -7 -3 -14 -1 -14 3
0 9 16 18 33 20 4 1 6 -27 5 -61z m100 50 c15 -15 16 -63 2 -89 -13 -23 -43
-25 -60 -4 -8 9 -9 15 -2 15 6 0 13 -4 17 -10 8 -13 35 -1 35 15 0 8 -12 15
-27 17 -17 2 -29 10 -31 21 -7 37 39 62 66 35z m57 -63 c-10 -36 -22 -65 -26
-65 -4 0 -4 12 1 28 5 15 14 47 20 71 6 23 14 41 17 37 3 -3 -3 -35 -12 -71z
m109 43 c19 -55 -22 -109 -59 -78 -18 15 -20 81 -3 98 20 20 52 10 62 -20z
m96 27 c0 -13 -55 -115 -62 -115 -5 0 3 22 17 50 14 27 25 51 25 54 0 3 -15 7
-32 9 -29 3 -27 4 10 5 23 1 42 0 42 -3z m56 -12 c-2 -10 -10 -38 -17 -63 -7
-25 -17 -49 -22 -55 -6 -6 -7 -1 -3 15 4 14 12 46 18 73 6 26 15 47 20 47 5 0
7 -8 4 -17z m87 -4 c8 -12 4 -25 -17 -52 l-27 -36 28 -4 c20 -3 16 -4 -15 -6
l-44 -1 31 39 c17 21 31 44 31 49 0 21 -23 25 -37 7 -10 -15 -13 -16 -13 -4 0
9 3 19 7 23 12 11 45 2 56 -15z m96 7 c17 -21 10 -87 -11 -100 -28 -17 -52 5
-56 48 -4 41 11 66 38 66 10 0 23 -6 29 -14z m99 -17 c2 -15 -5 -32 -18 -44
-27 -24 -25 -33 8 -38 19 -3 14 -4 -16 -6 -38 -1 -42 1 -33 17 5 9 19 26 30
36 12 11 21 25 21 32 0 19 -20 28 -33 15 -17 -17 -31 -13 -17 4 20 24 54 15
58 -16z m98 1 c1 -14 5 -33 9 -43 4 -10 2 -24 -6 -33 -15 -18 -61 -15 -67 4
-3 11 0 12 17 3 12 -7 26 -9 31 -6 18 11 11 35 -12 45 -17 6 -18 9 -6 9 9 1
20 6 24 12 10 16 -18 30 -33 17 -8 -6 -17 -8 -20 -4 -11 10 19 27 42 24 14 -2
20 -11 21 -28z m142 18 c7 -7 12 -28 12 -48 0 -56 -47 -84 -70 -41 -31 59 16
131 58 89z m102 2 c0 -17 -51 -113 -56 -107 -3 3 4 23 15 46 27 52 26 59 -6
64 -23 3 -21 4 10 6 20 0 37 -4 37 -9z m111 1 c-32 -9 -38 -29 -10 -33 12 -2
27 -11 33 -20 23 -37 -36 -77 -64 -43 -15 18 0 21 18 3 9 -9 15 -9 23 -1 18
18 6 48 -18 48 -13 0 -23 3 -23 8 -1 45 0 47 33 46 29 -1 29 -2 8 -8z m119 -6
c8 -9 9 -15 2 -15 -6 0 -14 5 -17 10 -9 15 -23 12 -34 -8 -8 -15 -5 -18 16
-17 32 0 52 -28 37 -52 -27 -44 -74 -21 -74 36 0 56 40 82 70 46z m139 1 c17
-21 10 -87 -11 -100 -28 -17 -52 5 -56 48 -4 41 11 66 38 66 10 0 23 -6 29
-14z m99 -17 c2 -15 -5 -32 -18 -44 -27 -24 -25 -33 8 -38 19 -3 14 -4 -16 -6
-38 -1 -42 1 -33 17 5 9 19 26 30 36 12 11 21 25 21 32 0 19 -20 28 -33 15
-17 -17 -31 -13 -17 4 20 24 54 15 58 -16z m320 -1 c21 -44 -2 -82 -51 -86
l-37 -3 0 61 0 61 37 -3 c30 -2 41 -9 51 -30z m362 -28 c0 -33 -4 -60 -10 -60
-6 0 -10 27 -10 60 0 33 4 60 10 60 6 0 10 -27 10 -60z m280 0 c0 -59 0 -60
-28 -60 -33 0 -52 16 -52 45 0 26 18 45 42 45 10 0 18 7 18 15 0 8 5 15 10 15
6 0 10 -27 10 -60z m-3529 43 c5 -59 2 -102 -6 -100 -11 4 -24 76 -17 96 4 12
22 15 23 4z m2139 -13 c0 -5 -4 -10 -10 -10 -5 0 -10 5 -10 10 0 6 5 10 10 10
6 0 10 -4 10 -10z m240 0 c0 -5 -4 -10 -10 -10 -5 0 -10 5 -10 10 0 6 5 10 10
10 6 0 10 -4 10 -10z m-2942 -12 c7 -7 12 -21 12 -33 0 -46 -53 -62 -71 -21
-21 45 26 87 59 54z m98 -38 l2 -45 -7 40 c-8 53 -35 55 -39 3 -5 -54 -22 -47
-22 8 0 45 0 45 33 42 31 -3 32 -5 33 -48z m46 18 l12 -33 13 34 c8 18 16 31
20 28 7 -7 -16 -75 -28 -83 -9 -5 -39 53 -39 76 0 20 11 9 22 -22z m126 20
c21 -21 13 -38 -18 -38 -16 0 -30 -4 -30 -10 0 -11 13 -14 44 -10 11 1 15 -3
12 -9 -13 -21 -56 -12 -67 13 -21 45 26 87 59 54z m70 1 c-12 -6 -18 -22 -18
-44 0 -19 -4 -35 -10 -35 -5 0 -10 20 -10 45 0 42 2 45 28 45 23 -1 24 -2 10
-11z m78 0 c4 -7 0 -9 -14 -5 -31 10 -37 -13 -7 -24 17 -7 25 -16 23 -28 -4
-21 -49 -23 -56 -2 -5 13 -3 13 12 1 12 -10 20 -11 28 -3 8 8 4 14 -15 21 -26
10 -35 30 -20 44 10 11 41 8 49 -4z m92 -35 c3 -40 3 -41 -30 -40 -26 1 -33 5
-33 21 0 12 9 21 23 25 27 6 26 26 -1 23 -11 -2 -15 1 -12 8 4 5 17 9 28 7 18
-2 23 -11 25 -44z m102 1 c0 -25 -4 -45 -10 -45 -5 0 -10 20 -10 45 0 25 5 45
10 45 6 0 10 -20 10 -45z m91 24 c18 -34 -4 -71 -39 -67 -21 2 -28 9 -30 31
-2 16 -1 35 2 43 8 22 54 17 67 -7z m91 9 c11 -18 10 -78 -1 -78 -6 0 -11 17
-13 38 -4 52 -31 50 -39 -3 l-6 -40 -2 45 c-1 43 1 46 26 48 15 1 30 -4 35
-10z m90 -25 c4 -53 31 -51 39 2 l6 40 2 -45 c1 -40 -2 -46 -21 -47 -32 -3
-48 15 -48 53 0 46 18 43 22 -3z m134 26 c4 -7 0 -9 -14 -5 -31 10 -37 -13 -7
-24 17 -7 25 -16 23 -27 -4 -22 -36 -29 -52 -13 -8 9 -6 11 11 6 31 -10 39 12
9 24 -25 9 -34 29 -19 43 10 11 41 8 49 -4z m94 -8 c15 -29 13 -31 -21 -31
-20 0 -29 -4 -26 -12 2 -7 14 -12 26 -11 13 2 20 -1 16 -7 -17 -27 -65 -2 -65
35 0 43 50 62 70 26z m58 8 c-12 -6 -18 -22 -18 -44 0 -19 -4 -35 -10 -35 -5
0 -10 20 -10 45 0 42 2 45 28 45 23 -1 24 -2 10 -11z m2372 -3 c28 -35 -11
-93 -47 -70 -36 22 -23 84 17 84 10 0 23 -7 30 -14z m45 -13 l7 -28 10 28 c5
15 13 27 18 27 5 0 13 -12 18 -27 l10 -28 7 28 c4 15 11 27 16 27 12 0 11 -5
-3 -52 -12 -42 -29 -45 -39 -7 l-6 24 -11 -27 c-6 -16 -16 -28 -21 -28 -5 0
-12 12 -15 28 -4 15 -9 35 -12 45 -3 9 -1 17 4 17 6 0 13 -12 17 -27z m183
-20 c2 -26 -1 -43 -7 -43 -6 0 -11 15 -11 34 0 60 -34 53 -43 -9 -3 -22 -4
-18 -6 16 -1 46 -1 46 32 45 30 -1 32 -3 35 -43z m133 26 c16 -31 -3 -69 -36
-69 -17 0 -29 8 -36 24 -15 32 4 66 36 66 15 0 29 -9 36 -21z m87 -27 l3 -43
-33 3 c-43 4 -51 34 -13 48 14 5 23 15 20 20 -5 8 -11 8 -20 0 -8 -6 -16 -7
-19 -2 -9 14 6 23 34 20 22 -3 25 -8 28 -46z m-2485 21 c-7 -2 -21 -2 -30 0
-10 3 -4 5 12 5 17 0 24 -2 18 -5z m1197 -33 c0 -5 -4 -10 -10 -10 -5 0 -10 5
-10 10 0 6 5 10 10 10 6 0 10 -4 10 -10z m240 0 c0 -5 -4 -10 -10 -10 -5 0
-10 5 -10 10 0 6 5 10 10 10 6 0 10 -4 10 -10z m-3046 -676 c9 -3 16 -13 16
-22 0 -12 -3 -13 -12 -4 -17 17 -55 15 -62 -4 -10 -25 -7 -42 10 -59 15 -14
18 -14 40 0 21 14 24 14 24 0 0 -20 -43 -30 -69 -15 -16 8 -21 20 -21 50 0 49
30 71 74 54z m716 -4 c0 -5 -4 -10 -10 -10 -5 0 -10 5 -10 10 0 6 5 10 10 10
6 0 10 -4 10 -10z m676 -20 c8 0 14 8 15 18 0 14 2 14 8 -3 5 -11 3 -28 -3
-38 -8 -13 -8 -20 0 -25 8 -5 5 -13 -7 -26 -17 -17 -19 -18 -19 -3 0 22 -9 22
-25 1 -11 -15 -12 -15 -18 5 -3 11 -1 21 4 21 5 0 9 9 9 20 0 11 -4 20 -10 20
-5 0 -2 8 8 18 12 13 18 14 20 5 2 -7 10 -13 18 -13z m122 -1 c2 -15 -5 -32
-18 -44 -26 -23 -25 -33 3 -38 13 -3 8 -5 -15 -6 -43 -1 -47 8 -17 35 11 10
25 27 31 38 14 26 -11 40 -34 19 -20 -18 -25 -4 -6 15 21 21 53 10 56 -19z
m230 -31 l-2 -63 -3 53 c-3 42 -7 52 -19 48 -7 -3 -14 -1 -14 3 0 9 16 18 33
20 4 1 6 -27 5 -61z m100 50 c17 -17 15 -83 -3 -98 -18 -15 -47 -10 -53 10 -5
13 -3 13 12 0 16 -13 20 -12 32 5 20 26 18 31 -12 30 -34 0 -53 27 -35 49 16
19 42 21 59 4z m62 -54 c-19 -65 -30 -89 -30 -66 0 24 34 132 41 132 4 0 -1
-30 -11 -66z m104 34 c19 -55 -22 -109 -59 -78 -18 15 -20 81 -3 98 20 20 52
10 62 -20z m96 27 c0 -13 -55 -115 -62 -115 -5 0 3 22 17 50 14 27 25 51 25
54 0 3 -15 7 -32 9 -29 3 -27 4 10 5 23 1 42 0 42 -3z m43 -69 c-9 -36 -21
-66 -26 -66 -5 0 -7 6 -4 14 3 8 11 34 17 58 16 61 20 72 26 66 3 -3 -3 -35
-13 -72z m101 52 c8 -13 5 -24 -12 -47 -27 -37 -27 -39 1 -44 13 -3 8 -5 -15
-6 -21 0 -38 2 -38 5 0 3 11 19 25 36 14 16 25 36 25 43 0 22 -17 27 -34 9
-13 -12 -16 -13 -16 -1 0 32 44 36 64 5z m95 8 c17 -21 10 -87 -11 -100 -28
-17 -52 5 -56 48 -4 41 11 66 38 66 10 0 23 -6 29 -14z m99 -17 c2 -15 -5 -32
-18 -44 -27 -24 -25 -33 8 -38 19 -3 14 -4 -16 -6 -38 -1 -42 1 -33 17 5 9 19
26 30 36 12 11 21 25 21 32 0 19 -20 28 -33 15 -17 -17 -31 -13 -17 4 20 24
54 15 58 -16z m98 1 c1 -14 5 -33 9 -43 9 -20 -10 -47 -34 -47 -22 0 -47 17
-38 26 3 4 13 1 21 -5 8 -7 20 -10 26 -6 15 9 12 35 -5 41 -14 6 -13 8 2 20
14 10 16 15 6 25 -10 10 -16 10 -25 1 -18 -18 -33 -15 -18 3 20 24 55 15 56
-15z m155 3 c24 -65 -29 -123 -65 -71 -20 28 -20 48 0 76 21 31 52 28 65 -5z
m89 17 c0 -17 -51 -113 -56 -107 -3 3 4 23 15 46 27 52 26 59 -6 64 -23 3 -21
4 10 6 20 0 37 -4 37 -9z m98 -52 l-2 -63 -3 52 c-3 44 -7 51 -21 46 -15 -6
-15 -5 -3 10 24 30 31 19 29 -45z m99 54 c19 -12 24 -55 10 -82 -16 -32 -60
-35 -66 -5 -3 19 -2 19 16 3 15 -14 22 -15 31 -6 20 20 14 37 -9 31 -15 -4
-27 0 -35 12 -25 34 16 71 53 47z m152 -6 c17 -21 10 -87 -11 -100 -28 -17
-52 5 -56 48 -4 41 11 66 38 66 10 0 23 -6 29 -14z m101 -1 c8 -9 9 -15 2 -15
-6 0 -13 4 -17 10 -6 10 -35 2 -35 -10 0 -5 10 -10 21 -12 30 -4 47 -33 33
-55 -25 -41 -74 -21 -74 29 0 59 40 89 70 53z m320 -17 c13 -25 13 -31 0 -55
-12 -22 -24 -29 -53 -31 l-37 -3 0 61 0 61 37 -3 c29 -2 41 -9 53 -30z m360
-28 c0 -33 -4 -60 -10 -60 -6 0 -10 27 -10 60 0 33 4 60 10 60 6 0 10 -27 10
-60z m280 0 c0 -59 0 -60 -28 -60 -33 0 -52 16 -52 45 0 27 18 45 47 45 14 0
23 6 23 15 0 8 2 15 5 15 3 0 5 -27 5 -60z m-3529 43 c5 -59 2 -102 -6 -100
-11 4 -24 76 -17 96 4 12 22 15 23 4z m2159 -13 c0 -5 -4 -10 -10 -10 -5 0
-10 5 -10 10 0 6 5 10 10 10 6 0 10 -4 10 -10z m220 0 c0 -5 -4 -10 -10 -10
-5 0 -10 5 -10 10 0 6 5 10 10 10 6 0 10 -4 10 -10z m-2940 -14 c28 -35 -11
-93 -47 -70 -36 22 -23 84 17 84 10 0 23 -7 30 -14z m98 -33 c2 -26 -1 -43 -7
-43 -6 0 -11 18 -11 40 0 59 -33 48 -43 -15 -3 -21 -4 -16 -6 18 l-1 48 33 -3
c30 -3 32 -6 35 -45z m44 15 l12 -33 13 34 c8 18 16 31 20 28 7 -7 -16 -75
-28 -83 -9 -5 -39 53 -39 76 0 20 11 9 22 -22z m126 20 c21 -21 13 -38 -18
-38 -16 0 -30 -4 -30 -10 0 -11 13 -14 44 -10 11 1 15 -3 12 -9 -13 -21 -56
-12 -67 13 -21 45 26 87 59 54z m59 -5 c-8 -10 -17 -31 -20 -48 -3 -21 -4 -16
-6 18 -1 42 1 47 21 47 19 0 20 -1 5 -17z m89 6 c4 -7 0 -9 -14 -5 -31 10 -37
-13 -7 -24 17 -7 25 -16 23 -28 -4 -21 -49 -23 -56 -2 -5 13 -3 13 12 1 12
-10 20 -11 28 -3 8 8 4 14 -15 21 -26 10 -35 30 -20 44 10 11 41 8 49 -4z m92
-37 l3 -43 -33 3 c-25 2 -33 8 -33 23 0 13 8 21 23 23 12 2 22 10 22 18 0 11
-7 13 -26 8 -20 -5 -25 -4 -20 5 5 7 20 11 34 9 24 -3 27 -8 30 -46z m102 3
c0 -25 -4 -45 -10 -45 -5 0 -10 20 -10 45 0 25 5 45 10 45 6 0 10 -20 10 -45z
m91 24 c18 -34 -4 -71 -39 -67 -21 2 -28 9 -30 31 -2 16 -1 35 2 43 8 22 54
17 67 -7z m89 1 c13 -24 13 -70 1 -70 -6 0 -11 17 -13 38 -2 25 -8 37 -18 37
-10 0 -16 -12 -18 -37 -4 -53 -22 -48 -22 5 0 42 1 44 30 45 20 0 33 -6 40
-18z m92 -17 c4 -53 31 -51 39 2 l6 40 2 -45 c1 -40 -2 -46 -21 -47 -32 -3
-48 15 -48 53 0 46 18 43 22 -3z m134 26 c4 -7 0 -9 -14 -5 -31 10 -37 -13 -7
-24 17 -7 25 -16 23 -27 -4 -22 -36 -29 -52 -13 -8 9 -6 11 11 6 31 -10 39 12
9 24 -25 9 -34 29 -19 43 10 11 41 8 49 -4z m92 -16 c3 -20 -1 -23 -29 -23
-27 0 -30 -2 -19 -15 8 -10 21 -13 34 -9 16 5 18 3 10 -6 -7 -6 -22 -10 -35
-8 -18 2 -25 10 -27 31 -5 44 4 59 35 55 20 -2 29 -9 31 -25z m60 16 c-12 -6
-18 -22 -18 -44 0 -19 -4 -35 -10 -35 -5 0 -10 20 -10 45 0 42 2 45 28 45 23
-1 24 -2 10 -11z m2381 -11 c12 -31 -2 -62 -28 -66 -28 -4 -51 14 -51 42 0 47
63 66 79 24z m39 -5 l10 -28 7 28 c8 32 28 31 33 -1 4 -27 22 -19 22 9 0 10 5
19 10 19 12 0 12 -6 -1 -52 -12 -45 -24 -48 -37 -10 l-10 27 -7 -28 c-10 -38
-27 -29 -42 21 -13 46 0 58 15 15z m180 -20 c2 -24 -1 -43 -7 -43 -5 0 -11 17
-13 38 -2 20 -7 37 -13 37 -5 0 -11 -17 -13 -37 -5 -54 -22 -47 -22 8 0 45 0
45 33 42 30 -3 32 -6 35 -45z m133 26 c16 -31 -3 -69 -36 -69 -17 0 -29 8 -36
24 -15 32 4 66 36 66 15 0 29 -9 36 -21z m87 9 c7 -7 12 -27 12 -46 0 -32 -1
-33 -37 -30 -50 4 -58 34 -14 49 17 6 28 15 25 20 -3 5 -13 5 -25 -1 -10 -6
-19 -7 -19 -2 0 23 38 30 58 10z m-2465 -15 c-7 -2 -21 -2 -30 0 -10 3 -4 5
12 5 17 0 24 -2 18 -5z m1197 -33 c0 -5 -4 -10 -10 -10 -5 0 -10 5 -10 10 0 6
5 10 10 10 6 0 10 -4 10 -10z m220 0 c0 -5 -4 -10 -10 -10 -5 0 -10 5 -10 10
0 6 5 10 10 10 6 0 10 -4 10 -10z m-3050 -690 c7 -14 7 -20 0 -20 -5 0 -10 5
-10 10 0 18 -49 11 -60 -9 -20 -39 24 -85 54 -56 21 21 29 19 16 -5 -23 -44
-90 -14 -90 40 0 54 67 84 90 40z m700 10 c0 -5 -4 -10 -10 -10 -5 0 -10 5
-10 10 0 6 5 10 10 10 6 0 10 -4 10 -10z m664 -5 c-4 -9 0 -15 10 -15 9 0 16
7 16 15 0 8 5 15 11 15 6 0 9 -7 5 -15 -3 -8 0 -15 7 -15 8 0 8 -3 -2 -9 -8
-5 -12 -18 -8 -30 3 -12 1 -21 -4 -21 -5 0 -10 -8 -10 -17 -1 -17 -2 -17 -6 0
-2 9 -11 17 -19 17 -8 0 -14 -8 -15 -17 0 -14 -2 -15 -6 -3 -3 8 -11 18 -17
22 -7 5 -6 8 3 8 9 0 12 8 9 25 -3 14 -1 25 3 25 5 0 9 7 9 15 0 8 4 15 10 15
5 0 7 -7 4 -15z m136 0 c10 -12 10 -18 1 -29 -8 -10 -9 -16 -1 -21 20 -12 11
-44 -15 -51 -24 -6 -62 12 -50 24 2 3 12 -1 20 -8 13 -11 19 -11 32 2 14 15
14 17 -5 29 -19 12 -19 14 -4 25 14 10 15 15 5 25 -10 10 -16 10 -25 1 -17
-17 -33 -15 -18 3 7 8 20 15 30 15 10 0 23 -7 30 -15z m240 -45 c0 -33 -4 -60
-10 -60 -5 0 -10 22 -10 50 0 42 -2 49 -17 44 -15 -5 -15 -3 1 10 31 25 36 20
36 -44z m98 48 c15 -15 16 -63 2 -89 -13 -23 -43 -25 -60 -4 -8 9 -9 15 -2 15
6 0 13 -4 17 -10 8 -13 35 -1 35 15 0 8 -12 15 -27 17 -17 2 -29 10 -31 21 -7
37 39 62 66 35z m57 -63 c-10 -36 -22 -65 -26 -65 -4 0 -4 12 1 28 5 15 14 47
20 71 6 23 14 41 17 37 3 -3 -3 -35 -12 -71z m109 43 c19 -55 -22 -109 -59
-78 -18 15 -20 81 -3 98 20 20 52 10 62 -20z m96 27 c0 -13 -55 -115 -62 -115
-5 0 3 22 17 50 14 27 25 51 25 54 0 3 -15 7 -32 9 -29 3 -27 4 10 5 23 1 42
0 42 -3z m56 -12 c-2 -10 -10 -38 -17 -63 -7 -25 -17 -49 -22 -55 -6 -6 -7 -1
-3 15 4 14 12 46 18 73 6 26 15 47 20 47 5 0 7 -8 4 -17z m87 -4 c8 -12 4 -25
-17 -52 l-27 -36 28 -4 c20 -3 16 -4 -15 -6 l-44 -1 31 39 c17 21 31 44 31 49
0 21 -23 25 -37 7 -10 -15 -13 -16 -13 -4 0 9 3 19 7 23 12 11 45 2 56 -15z
m96 7 c17 -21 10 -87 -11 -100 -28 -17 -52 5 -56 48 -4 41 11 66 38 66 10 0
23 -6 29 -14z m99 -17 c2 -15 -5 -32 -18 -44 -27 -24 -25 -33 8 -38 19 -3 14
-4 -16 -6 -38 -1 -42 1 -33 17 5 9 19 26 30 36 12 11 21 25 21 32 0 19 -20 28
-33 15 -17 -17 -31 -13 -17 4 20 24 54 15 58 -16z m98 1 c1 -14 5 -33 9 -43 4
-10 2 -24 -6 -33 -15 -18 -61 -15 -67 4 -3 11 0 12 17 3 12 -7 26 -9 31 -6 18
11 11 35 -12 45 -17 6 -18 9 -6 9 9 1 20 6 24 12 10 16 -18 30 -33 17 -8 -6
-17 -8 -20 -4 -11 10 19 27 42 24 14 -2 20 -11 21 -28z m142 18 c7 -7 12 -28
12 -48 0 -56 -47 -84 -70 -41 -31 59 16 131 58 89z m102 2 c0 -17 -51 -113
-56 -107 -3 3 4 23 15 46 27 52 26 59 -6 64 -23 3 -21 4 10 6 20 0 37 -4 37
-9z m129 -4 c17 -21 10 -87 -11 -100 -28 -17 -52 5 -56 48 -4 41 11 66 38 66
10 0 23 -6 29 -14z m101 -1 c10 -12 10 -18 1 -29 -8 -10 -9 -16 -1 -21 20 -12
11 -44 -15 -51 -24 -6 -62 12 -50 24 2 3 12 -1 20 -8 13 -11 19 -11 32 2 14
15 14 17 -5 29 -19 12 -19 14 -4 25 14 10 15 15 5 25 -10 10 -16 10 -25 1 -17
-17 -33 -15 -18 3 7 8 20 15 30 15 10 0 23 -7 30 -15z m151 -12 c24 -65 -29
-123 -65 -71 -20 28 -20 48 0 76 21 31 52 28 65 -5z m97 7 c5 -13 3 -13 -11
-1 -14 11 -20 11 -32 1 -22 -18 -18 -28 9 -23 17 4 27 -1 35 -16 24 -43 -28
-83 -59 -46 -16 19 -15 71 1 91 15 18 51 14 57 -6z m310 8 c7 -7 12 -28 12
-48 0 -45 -15 -60 -57 -60 l-33 0 0 60 0 60 33 0 c18 0 38 -5 45 -12z m372
-48 c0 -33 -4 -60 -10 -60 -6 0 -10 27 -10 60 0 33 4 60 10 60 6 0 10 -27 10
-60z m280 -1 l0 -60 -37 3 c-37 3 -38 4 -38 43 0 36 3 40 28 43 15 2 27 9 27
18 0 8 5 14 10 14 6 0 10 -27 10 -61z m-3564 36 c9 -8 11 -15 5 -15 -15 0 -14
-53 2 -69 10 -10 8 -12 -8 -9 -15 2 -21 14 -25 44 -9 62 -1 76 26 49z m2164
-5 c0 -5 -4 -10 -10 -10 -5 0 -10 5 -10 10 0 6 5 10 10 10 6 0 10 -4 10 -10z
m-2719 -21 c18 -34 -4 -71 -39 -67 -21 2 -28 9 -30 31 -2 16 -1 35 2 43 8 22
54 17 67 -7z m89 1 c13 -24 13 -70 1 -70 -6 0 -11 17 -13 38 -2 25 -8 37 -18
37 -10 0 -16 -12 -18 -37 -4 -53 -22 -48 -22 5 0 42 1 44 30 45 20 0 33 -6 40
-18z m47 -12 l10 -33 13 33 c6 17 16 32 20 32 5 0 2 -20 -8 -45 -18 -50 -28
-56 -41 -22 -18 49 -22 67 -13 67 5 0 14 -15 19 -32z m131 5 c3 -20 -1 -23
-29 -23 -27 0 -30 -2 -19 -15 8 -10 21 -13 34 -9 16 5 18 3 10 -6 -7 -6 -22
-10 -35 -8 -18 2 -25 10 -27 31 -5 44 4 59 35 55 20 -2 29 -9 31 -25z m60 16
c-12 -6 -18 -22 -18 -44 0 -19 -4 -35 -10 -35 -5 0 -10 20 -10 45 0 42 2 45
28 45 23 -1 24 -2 10 -11z m78 0 c4 -8 0 -9 -15 -4 -30 9 -27 -13 4 -25 28
-11 31 -22 10 -40 -18 -15 -47 -10 -53 10 -5 13 -3 13 12 1 12 -10 20 -11 28
-3 8 8 4 14 -15 21 -26 10 -35 30 -20 44 10 11 41 8 49 -4z m92 -34 c3 -39 2
-41 -28 -43 -16 -1 -31 2 -31 8 -5 29 -2 35 19 40 27 6 26 26 -1 23 -11 -2
-15 1 -12 8 4 5 17 9 28 7 18 -2 23 -11 25 -43z m102 0 c0 -25 -4 -45 -10 -45
-5 0 -10 20 -10 45 0 25 5 45 10 45 6 0 10 -20 10 -45z m90 31 c28 -35 -11
-93 -47 -70 -36 22 -23 84 17 84 10 0 23 -7 30 -14z m98 -33 c2 -26 -1 -43 -7
-43 -6 0 -11 18 -11 40 0 59 -33 48 -43 -15 -3 -21 -4 -16 -6 18 l-1 48 33 -3
c30 -3 32 -6 35 -45z m102 -28 c10 0 16 12 18 38 4 52 22 47 22 -7 0 -44 0
-44 -32 -43 -32 2 -33 4 -34 47 l-2 45 7 -40 c4 -26 11 -40 21 -40z m116 64
c4 -7 0 -9 -14 -5 -31 10 -37 -13 -7 -24 17 -7 25 -16 23 -28 -4 -21 -49 -23
-56 -2 -5 13 -3 13 12 1 12 -10 20 -11 28 -3 8 8 4 14 -15 21 -26 10 -35 30
-20 44 10 11 41 8 49 -4z m92 -1 c22 -22 13 -38 -19 -38 -20 0 -29 -4 -26 -12
2 -7 14 -12 26 -11 13 2 20 -1 16 -7 -8 -14 -38 -13 -53 2 -26 26 -7 78 28 78
9 0 21 -5 28 -12z m59 -1 c-9 -7 -18 -28 -20 -47 -3 -31 -4 -30 -5 10 -2 40 1
46 19 47 19 2 19 0 6 -10z m2413 -1 c28 -35 -11 -93 -47 -70 -36 22 -23 84 17
84 10 0 23 -7 30 -14z m40 -5 c0 -28 18 -36 22 -9 5 32 25 33 33 1 l7 -28 10
28 c12 32 33 37 22 5 -15 -51 -24 -68 -34 -68 -5 0 -10 9 -10 19 0 30 -17 34
-24 6 -9 -36 -21 -31 -34 14 -15 47 -15 51 -2 51 6 0 10 -9 10 -19z m178 7
c14 -14 16 -78 3 -78 -6 0 -11 17 -13 38 -2 25 -8 37 -18 37 -10 0 -16 -12
-18 -37 -4 -53 -22 -47 -22 7 0 43 1 45 28 45 15 0 33 -5 40 -12z m141 -10
c12 -31 -2 -62 -28 -66 -28 -4 -51 14 -51 42 0 47 63 66 79 24z m89 -26 l3
-43 -33 3 c-43 4 -51 34 -13 48 31 12 25 31 -7 22 -15 -4 -19 -2 -14 7 5 7 20
11 34 9 24 -3 27 -8 30 -46z m-2495 21 c-7 -2 -21 -2 -30 0 -10 3 -4 5 12 5
17 0 24 -2 18 -5z m1197 -33 c0 -5 -4 -10 -10 -10 -5 0 -10 5 -10 10 0 6 5 10
10 10 6 0 10 -4 10 -10z m-2832 -682 c20 -20 13 -30 -10 -14 -30 21 -58 4 -58
-34 0 -38 28 -55 58 -34 23 16 30 6 10 -14 -29 -29 -88 3 -88 48 0 45 59 77
88 48z m1372 -3 c0 -20 10 -19 25 1 11 15 12 15 18 -5 3 -11 1 -21 -5 -21 -6
0 -8 -11 -6 -24 3 -13 -1 -32 -9 -42 -12 -16 -13 -16 -13 -1 0 22 -19 22 -27
0 -6 -15 -7 -14 -13 3 -4 10 -2 27 4 37 8 14 8 20 -4 27 -10 6 -11 10 -2 10 6
0 12 7 12 15 0 8 5 15 10 15 6 0 10 -7 10 -15z m130 -25 c0 -25 5 -40 13 -41
10 0 10 -2 0 -6 -7 -2 -13 -12 -13 -21 -1 -15 -2 -15 -11 1 -5 9 -21 17 -34
17 -14 0 -25 2 -25 5 0 11 53 85 61 85 5 0 9 -18 9 -40z m238 -22 l-2 -63 -3
52 c-3 44 -7 51 -21 46 -15 -6 -15 -5 -3 10 24 30 31 19 29 -45z m99 54 c19
-12 24 -55 10 -82 -16 -32 -60 -35 -66 -5 -3 19 -2 19 16 3 15 -14 22 -15 31
-6 20 20 14 37 -9 31 -15 -4 -27 0 -35 12 -25 34 16 71 53 47z m79 -9 c-2 -10
-10 -38 -17 -63 -7 -25 -17 -49 -22 -55 -6 -6 -7 -1 -3 15 4 14 12 46 18 73 6
26 15 47 20 47 5 0 7 -8 4 -17z m83 3 c17 -21 10 -87 -11 -100 -28 -17 -52 5
-56 48 -4 41 11 66 38 66 10 0 23 -6 29 -14z m101 4 c0 -19 -50 -110 -60 -110
-6 0 1 22 15 50 14 27 25 51 25 54 0 3 -15 7 -32 9 -29 3 -27 4 10 5 23 1 42
-3 42 -8z m45 -65 c-10 -36 -22 -65 -26 -65 -4 0 -4 12 1 28 5 15 14 47 20 71
6 23 14 41 17 37 3 -3 -3 -35 -12 -71z m99 53 c8 -13 5 -24 -12 -47 -27 -37
-27 -39 1 -44 13 -3 8 -5 -15 -6 -21 0 -38 2 -38 5 0 3 11 19 25 36 14 16 25
36 25 43 0 22 -17 27 -34 9 -13 -12 -16 -13 -16 -1 0 32 44 36 64 5z m94 10
c16 -16 16 -80 0 -96 -29 -29 -68 -2 -68 48 0 50 39 77 68 48z m105 -9 c8 -12
4 -25 -17 -52 l-27 -36 28 -4 c20 -3 16 -4 -15 -6 l-44 -1 31 39 c17 21 31 44
31 49 0 21 -23 25 -37 7 -10 -15 -13 -16 -13 -4 0 9 3 19 7 23 12 11 45 2 56
-15z m97 6 c10 -12 10 -18 1 -29 -8 -10 -9 -16 -1 -21 20 -12 11 -44 -15 -51
-24 -6 -62 12 -50 24 2 3 12 -1 20 -8 13 -11 19 -11 32 2 14 15 14 17 -5 29
-19 12 -19 14 -4 25 14 10 15 15 5 25 -10 10 -16 10 -25 1 -17 -17 -33 -15
-18 3 7 8 20 15 30 15 10 0 23 -7 30 -15z m154 -17 c19 -55 -22 -109 -59 -78
-18 15 -20 81 -3 98 20 20 52 10 62 -20z m96 17 c8 -9 9 -15 2 -15 -6 0 -14 5
-17 10 -9 15 -23 12 -34 -8 -8 -15 -5 -18 16 -17 32 0 52 -28 37 -52 -27 -44
-74 -21 -74 36 0 56 40 82 70 46z m141 -28 c2 -24 3 -51 1 -60 -4 -21 -22 -22
-22 -2 0 9 -9 15 -25 15 -14 0 -25 2 -25 5 0 12 51 85 59 85 5 0 11 -20 12
-43z m104 -17 c0 -52 -2 -55 -26 -58 -14 -2 -31 4 -39 12 -14 17 -3 21 19 7
17 -11 41 -3 41 14 0 6 -10 17 -22 23 -18 8 -19 11 -5 11 9 1 17 7 17 14 0 21
-11 27 -31 16 -11 -5 -19 -6 -19 -1 0 16 14 23 40 20 23 -3 25 -7 25 -58z
m143 29 c2 -15 -5 -32 -18 -44 -27 -24 -25 -33 8 -38 19 -3 14 -4 -16 -6 -38
-1 -42 1 -33 17 5 9 19 26 30 36 12 11 21 25 21 32 0 19 -20 28 -33 15 -17
-17 -31 -13 -17 4 20 24 54 15 58 -16z m96 9 c8 -13 5 -24 -12 -47 -27 -37
-27 -39 1 -44 13 -3 8 -5 -15 -6 -21 0 -38 2 -38 5 0 3 11 19 25 36 14 16 25
36 25 43 0 22 -17 27 -34 9 -13 -12 -16 -13 -16 -1 0 32 44 36 64 5z m310 6
c9 -8 16 -28 16 -44 0 -38 -24 -60 -66 -60 l-34 0 0 60 0 60 34 0 c19 0 42 -7
50 -16z m363 -76 c-2 -18 -4 -4 -4 32 0 36 2 50 4 33 2 -18 2 -48 0 -65z m293
34 l0 -59 -35 -1 c-28 -1 -38 3 -46 22 -16 34 5 70 37 63 18 -3 24 0 24 14 0
11 5 19 10 19 6 0 10 -26 10 -58z m-3581 20 c-13 -5 -11 -56 3 -70 9 -9 8 -12
-5 -12 -13 0 -17 9 -17 34 0 19 -4 38 -10 41 -6 4 -5 11 2 19 9 9 16 10 24 2
7 -6 8 -12 3 -14z m2181 8 c0 -5 -4 -10 -10 -10 -5 0 -10 5 -10 10 0 6 5 10
10 10 6 0 10 -4 10 -10z m250 0 c0 -5 -4 -10 -10 -10 -5 0 -10 5 -10 10 0 6 5
10 10 10 6 0 10 -4 10 -10z m-2990 -14 c28 -35 -11 -93 -47 -70 -36 22 -23 84
17 84 10 0 23 -7 30 -14z m92 2 c11 -18 10 -78 -1 -78 -6 0 -11 17 -13 38 -4
52 -31 50 -39 -3 l-6 -40 -2 45 c-1 43 1 46 26 48 15 1 30 -4 35 -10z m42 -13
c4 -14 11 -25 16 -25 5 0 12 11 16 25 3 14 10 25 14 25 5 0 2 -20 -7 -45 -8
-25 -19 -45 -23 -45 -4 0 -15 20 -23 45 -9 25 -12 45 -7 45 4 0 11 -11 14 -25z
m136 6 c15 -29 13 -31 -21 -31 -20 0 -29 -4 -26 -12 2 -7 14 -12 26 -11 13 2
20 -1 16 -7 -17 -27 -65 -2 -65 35 0 43 50 62 70 26z m57 6 c-9 -7 -18 -28
-20 -47 -3 -31 -4 -30 -5 10 -2 40 1 46 19 47 19 2 19 0 6 -10z m89 2 c4 -7 0
-9 -14 -5 -31 10 -37 -13 -7 -24 17 -7 25 -16 23 -28 -4 -20 -45 -29 -62 -12
-8 9 -5 11 13 8 13 -1 26 3 28 10 3 6 -2 12 -10 12 -23 0 -39 24 -25 38 15 15
45 15 54 1z m82 -1 c7 -7 12 -27 12 -46 0 -32 -2 -33 -32 -30 -25 2 -34 8 -36
25 -2 15 3 22 18 25 25 4 22 24 -3 21 -10 -2 -15 2 -12 7 8 14 38 13 53 -2z
m99 -55 c-2 -16 -4 -5 -4 22 0 28 2 40 4 28 2 -13 2 -35 0 -50z m93 53 c28
-35 -11 -93 -47 -70 -36 22 -23 84 17 84 10 0 23 -7 30 -14z m96 -36 l2 -45
-7 40 c-8 53 -35 55 -39 3 -5 -54 -22 -47 -22 8 0 45 0 45 33 42 31 -3 32 -5
33 -48z m96 -17 c16 -20 28 -5 28 33 0 19 5 34 10 34 6 0 10 -21 10 -46 0 -45
0 -45 -32 -42 -32 3 -33 5 -34 48 -1 28 0 34 3 15 3 -16 9 -36 15 -42z m124
56 c4 -8 0 -9 -15 -4 -30 9 -27 -13 4 -25 28 -11 31 -22 10 -40 -18 -15 -47
-10 -53 10 -5 13 -3 13 12 1 12 -10 20 -11 28 -3 8 8 4 14 -15 21 -26 10 -35
30 -20 44 10 11 41 8 49 -4z m92 -1 c21 -21 13 -38 -18 -38 -16 0 -30 -4 -30
-10 0 -11 13 -14 44 -10 11 1 15 -3 12 -9 -13 -21 -56 -12 -67 13 -21 45 26
87 59 54z m59 -5 c-8 -10 -17 -31 -20 -48 -3 -21 -4 -16 -6 18 -1 42 1 47 21
47 19 0 20 -1 5 -17z m2434 -4 c16 -31 -3 -69 -36 -69 -17 0 -29 8 -36 24 -15
32 4 66 36 66 15 0 29 -9 36 -21z m39 -10 c0 -11 5 -17 10 -14 6 3 10 15 10
26 0 10 7 19 15 19 8 0 15 -9 15 -19 0 -28 18 -36 22 -9 2 12 8 23 15 25 8 3
8 -7 -1 -38 -16 -54 -32 -60 -42 -17 l-7 33 -10 -32 c-12 -41 -22 -42 -36 -2
-14 40 -14 62 -1 54 6 -3 10 -15 10 -26z m177 -19 l1 -45 -7 38 c-4 20 -11 40
-14 43 -13 13 -27 -9 -27 -42 0 -19 -4 -34 -10 -34 -5 0 -10 21 -10 46 0 45 0
45 33 42 31 -3 32 -5 34 -48z m133 36 c28 -35 -11 -93 -47 -70 -36 22 -23 84
17 84 10 0 23 -7 30 -14z m94 -2 c3 -9 6 -29 6 -45 0 -26 -3 -29 -34 -29 -49
0 -59 42 -12 51 26 5 19 25 -7 21 -12 -2 -17 1 -13 7 11 17 53 13 60 -5z
m-2511 -11 c-7 -2 -21 -2 -30 0 -10 3 -4 5 12 5 17 0 24 -2 18 -5z m1217 -33
c0 -5 -4 -10 -10 -10 -5 0 -10 5 -10 10 0 6 5 10 10 10 6 0 10 -4 10 -10z
m250 0 c0 -5 -4 -10 -10 -10 -5 0 -10 5 -10 10 0 6 5 10 10 10 6 0 10 -4 10
-10z"/>
<path d="M6020 5965 c0 -65 0 -65 28 -65 36 0 62 28 62 67 0 36 -27 63 -63 63
-26 0 -27 -1 -27 -65z"/>
<path d="M7000 5969 c-17 -31 2 -71 33 -67 19 3 22 9 22 43 0 33 -4 41 -22 43
-14 2 -26 -4 -33 -19z"/>
<path d="M2460 5976 c-15 -19 -9 -56 12 -69 34 -22 66 41 36 71 -16 16 -33 15
-48 -2z"/>
<path d="M2673 5983 c-26 -10 -12 -23 23 -23 31 0 35 2 24 15 -13 15 -25 17
-47 8z"/>
<path d="M2937 5983 c-13 -12 -7 -61 9 -74 33 -27 72 33 44 67 -13 15 -42 19
-53 7z"/>
<path d="M3082 5978 c-29 -29 -4 -84 35 -76 28 5 26 82 -2 86 -11 1 -26 -3
-33 -10z"/>
<path d="M3713 5983 c-26 -10 -12 -23 23 -23 31 0 35 2 24 15 -13 15 -25 17
-47 8z"/>
<path d="M4050 5976 c-15 -19 -9 -56 12 -69 34 -22 66 41 36 71 -16 16 -33 15
-48 -2z"/>
<path d="M4457 5984 c-15 -15 -6 -24 24 -24 20 0 29 4 27 13 -5 14 -40 21 -51
11z"/>
<path d="M4810 5930 c-11 -7 -12 -12 -3 -21 15 -15 47 -7 51 14 4 19 -23 23
-48 7z"/>
<path d="M5092 5978 c-29 -29 -4 -84 35 -76 28 5 26 82 -2 86 -11 1 -26 -3
-33 -10z"/>
<path d="M6189 5969 c-15 -29 3 -69 31 -69 28 0 46 40 31 69 -7 11 -20 21 -31
21 -11 0 -24 -10 -31 -21z"/>
<path d="M6727 5983 c-14 -14 -7 -74 9 -80 37 -14 70 41 44 73 -13 15 -42 19
-53 7z"/>
<path d="M6873 5933 c-20 -7 -15 -33 5 -33 19 0 42 18 42 32 0 9 -27 9 -47 1z"/>
<path d="M3996 5244 c-9 -22 -8 -24 9 -24 8 0 15 9 15 20 0 24 -15 27 -24 4z"/>
<path d="M4403 5274 c-8 -21 13 -42 28 -27 13 13 5 43 -11 43 -6 0 -13 -7 -17
-16z"/>
<path d="M4558 5265 c-8 -19 -8 -31 0 -50 17 -37 42 -22 42 25 0 47 -25 62
-42 25z"/>
<path d="M4900 5265 c-10 -27 2 -75 20 -75 20 0 34 48 22 75 -6 14 -16 25 -22
25 -6 0 -15 -11 -20 -25z"/>
<path d="M5253 5283 c-18 -6 -17 -79 1 -86 19 -8 36 12 36 44 0 29 -18 49 -37
42z"/>
<path d="M5574 5236 c-8 -22 3 -49 19 -43 6 2 12 14 12 27 0 27 -22 39 -31 16z"/>
<path d="M5710 5265 c-10 -27 2 -75 20 -75 20 0 34 48 22 75 -6 14 -16 25 -22
25 -6 0 -15 -11 -20 -25z"/>
<path d="M6110 5242 c0 -45 4 -52 30 -45 42 11 36 83 -6 83 -21 0 -24 -4 -24
-38z"/>
<path d="M6760 5225 c0 -18 5 -25 20 -25 15 0 20 7 20 25 0 18 -5 25 -20 25
-15 0 -20 -7 -20 -25z"/>
<path d="M2693 5253 c-17 -6 -16 -50 1 -56 15 -6 36 11 36 29 0 16 -22 32 -37
27z"/>
<path d="M2960 5250 c-19 -12 -7 -22 21 -18 19 2 20 5 8 15 -9 7 -20 9 -29 3z"/>
<path d="M3190 5205 c0 -8 4 -15 9 -15 5 0 14 7 21 15 10 13 9 15 -9 15 -12 0
-21 -6 -21 -15z"/>
<path d="M3381 5247 c-22 -22 -2 -61 25 -50 8 3 14 15 14 28 0 26 -22 39 -39
22z"/>
<path d="M3790 5245 c-11 -13 -9 -15 15 -15 16 0 25 5 23 12 -7 19 -24 20 -38
3z"/>
<path d="M6220 5225 c0 -18 5 -25 20 -25 15 0 20 7 20 25 0 18 -5 25 -20 25
-15 0 -20 -7 -20 -25z"/>
<path d="M6574 5235 c-4 -9 -2 -21 4 -27 15 -15 44 -1 40 19 -4 23 -36 29 -44
8z"/>
<path d="M6670 5211 c0 -18 18 -21 30 -6 10 13 9 15 -9 15 -11 0 -21 -4 -21
-9z"/>
<path d="M3997 4493 c-13 -12 -7 -33 8 -33 8 0 15 9 15 20 0 20 -11 26 -23 13z"/>
<path d="M4431 4520 c-14 -8 -8 -40 7 -40 5 0 15 6 21 14 15 17 -8 39 -28 26z"/>
<path d="M4578 4505 c-8 -19 -8 -31 0 -50 17 -37 42 -22 42 25 0 47 -25 62
-42 25z"/>
<path d="M4920 4505 c-10 -27 2 -75 20 -75 20 0 34 48 22 75 -6 14 -16 25 -22
25 -6 0 -15 -11 -20 -25z"/>
<path d="M5272 4518 c-28 -28 -4 -101 25 -77 7 7 13 24 13 39 0 34 -21 55 -38
38z"/>
<path d="M5570 4520 c-18 -11 -4 -42 17 -38 10 2 19 10 21 19 4 19 -19 31 -38
19z"/>
<path d="M5710 4505 c-10 -27 2 -75 20 -75 20 0 34 48 22 75 -6 14 -16 25 -22
25 -6 0 -15 -11 -20 -25z"/>
<path d="M5814 4476 c-8 -22 3 -49 19 -43 6 2 12 14 12 27 0 27 -22 39 -31 16z"/>
<path d="M6110 4481 c0 -46 6 -52 38 -40 19 7 23 15 20 41 -2 28 -8 34 -30 36
-26 3 -28 1 -28 -37z"/>
<path d="M6760 4465 c0 -18 5 -25 19 -25 20 0 31 17 24 38 -3 6 -13 12 -24 12
-14 0 -19 -7 -19 -25z"/>
<path d="M2687 4493 c-11 -11 -8 -51 5 -59 18 -11 39 25 27 47 -10 20 -21 24
-32 12z"/>
<path d="M2960 4490 c-19 -12 -7 -22 21 -18 19 2 20 5 8 15 -9 7 -20 9 -29 3z"/>
<path d="M3185 4451 c-3 -5 -1 -12 5 -16 12 -7 30 2 30 16 0 12 -27 12 -35 0z"/>
<path d="M3381 4487 c-22 -22 -2 -61 25 -50 8 3 14 15 14 28 0 26 -22 39 -39
22z"/>
<path d="M3790 4490 c-19 -12 -7 -22 21 -18 19 2 20 5 8 15 -9 7 -20 9 -29 3z"/>
<path d="M6233 4493 c-17 -6 -16 -50 1 -56 15 -6 36 11 36 29 0 16 -22 32 -37
27z"/>
<path d="M6574 4475 c-4 -9 -2 -21 4 -27 15 -15 44 -1 40 19 -4 23 -36 29 -44
8z"/>
<path d="M6677 4454 c-4 -4 -4 -10 -1 -15 6 -10 34 0 34 12 0 10 -24 12 -33 3z"/>
<path d="M3977 3720 c-6 -24 18 -28 27 -4 8 22 8 24 -8 24 -7 0 -16 -9 -19
-20z"/>
<path d="M4413 3754 c-8 -21 13 -42 28 -27 13 13 5 43 -11 43 -6 0 -13 -7 -17
-16z"/>
<path d="M4568 3745 c-8 -19 -8 -31 0 -50 17 -37 42 -22 42 25 0 47 -25 62
-42 25z"/>
<path d="M4910 3745 c-10 -27 2 -75 20 -75 6 0 16 11 22 25 12 27 -2 75 -22
75 -6 0 -15 -11 -20 -25z"/>
<path d="M5263 3763 c-18 -6 -17 -79 1 -86 19 -8 36 12 36 44 0 29 -18 49 -37
42z"/>
<path d="M5480 3745 c-10 -27 2 -75 20 -75 20 0 34 48 22 75 -6 14 -16 25 -22
25 -6 0 -15 -11 -20 -25z"/>
<path d="M5732 3758 c-28 -28 -4 -101 25 -77 7 7 13 24 13 39 0 34 -21 55 -38
38z"/>
<path d="M5830 3714 c-10 -11 -10 -17 0 -28 15 -19 40 -10 40 14 0 24 -25 33
-40 14z"/>
<path d="M6130 3715 c0 -48 2 -50 29 -35 39 20 32 80 -9 80 -17 0 -20 -7 -20
-45z"/>
<path d="M6778 3718 c-8 -21 2 -38 23 -38 14 0 19 7 19 25 0 18 -5 25 -19 25
-10 0 -21 -6 -23 -12z"/>
<path d="M2671 3727 c-22 -22 -2 -61 25 -50 8 3 14 15 14 28 0 26 -22 39 -39
22z"/>
<path d="M2940 3730 c-19 -12 -7 -22 21 -18 19 2 20 5 8 15 -9 7 -20 9 -29 3z"/>
<path d="M3170 3692 c0 -14 11 -21 26 -15 21 8 17 23 -6 23 -11 0 -20 -4 -20
-8z"/>
<path d="M3360 3724 c-10 -11 -11 -20 -3 -32 17 -27 38 -20 38 12 0 34 -16 44
-35 20z"/>
<path d="M3777 3734 c-13 -13 -7 -24 14 -24 11 0 19 5 17 12 -5 14 -22 21 -31
12z"/>
<path d="M6238 3718 c-8 -21 2 -38 23 -38 14 0 19 7 19 25 0 18 -5 25 -19 25
-10 0 -21 -6 -23 -12z"/>
<path d="M6603 3733 c-17 -6 -16 -50 1 -56 15 -6 36 11 36 29 0 16 -22 32 -37
27z"/>
<path d="M6685 3690 c-3 -5 3 -10 14 -10 12 0 21 5 21 10 0 6 -6 10 -14 10 -8
0 -18 -4 -21 -10z"/>
<path d="M3970 2959 c0 -24 23 -21 28 4 2 10 -3 17 -12 17 -10 0 -16 -9 -16
-21z"/>
<path d="M4077 2970 c-16 -22 -16 -25 -1 -28 21 -5 26 2 22 30 l-3 23 -18 -25z"/>
<path d="M4410 3000 c-18 -11 -4 -42 17 -38 10 2 19 10 21 19 4 19 -19 31 -38
19z"/>
<path d="M4560 2985 c-10 -27 2 -75 20 -75 20 0 34 48 22 75 -6 14 -16 25 -22
25 -6 0 -15 -11 -20 -25z"/>
<path d="M4913 3003 c-18 -6 -17 -79 1 -86 19 -8 36 12 36 44 0 29 -18 49 -37
42z"/>
<path d="M5248 2985 c-8 -19 -8 -31 0 -50 17 -37 42 -22 42 25 0 47 -25 62
-42 25z"/>
<path d="M5354 2956 c-8 -22 3 -49 19 -43 6 2 12 14 12 27 0 27 -22 39 -31 16z"/>
<path d="M5502 2965 c-10 -21 -9 -25 3 -25 9 0 15 10 15 25 0 14 -2 25 -3 25
-2 0 -9 -11 -15 -25z"/>
<path d="M6130 2961 c0 -46 6 -52 38 -40 19 7 23 15 20 41 -2 28 -8 34 -30 36
-26 3 -28 1 -28 -37z"/>
<path d="M6784 2955 c-4 -9 -2 -21 4 -27 15 -15 44 -1 40 19 -4 23 -36 29 -44
8z"/>
<path d="M2660 2964 c-10 -11 -11 -20 -3 -32 17 -27 38 -20 38 12 0 34 -16 44
-35 20z"/>
<path d="M2930 2965 c-11 -13 -9 -15 15 -15 16 0 25 5 23 12 -7 19 -24 20 -38
3z"/>
<path d="M3165 2931 c-3 -5 -1 -12 5 -16 12 -7 30 2 30 16 0 12 -27 12 -35 0z"/>
<path d="M3357 2973 c-11 -11 -8 -51 5 -59 18 -11 39 25 27 47 -10 20 -21 24
-32 12z"/>
<path d="M3770 2970 c-19 -12 -7 -22 21 -18 19 2 20 5 8 15 -9 7 -20 9 -29 3z"/>
<path d="M6244 2955 c-4 -9 -2 -21 4 -27 15 -15 44 -1 40 19 -4 23 -36 29 -44
8z"/>
<path d="M6600 2945 c0 -18 5 -25 20 -25 15 0 20 7 20 25 0 18 -5 25 -20 25
-15 0 -20 -7 -20 -25z"/>
<path d="M6697 2934 c-4 -4 -4 -10 -1 -15 6 -10 34 0 34 12 0 10 -24 12 -33 3z"/>
<path d="M9495 80 c17 -19 19 -19 37 -4 24 23 24 24 -19 24 -36 0 -36 0 -18
-20z"/>
</g>
</svg>
